<?xml version="1.0" standalone="no"?>
<!DOCTYPE svg PUBLIC "-//W3C//DTD SVG 1.1//EN" "http://www.w3.org/Graphics/SVG/1.1/DTD/svg11.dtd" >
<svg xmlns="http://www.w3.org/2000/svg">
<metadata></metadata>
<defs>
<font id="berlinregular" horiz-adv-x="1265" >
<font-face units-per-em="2048" ascent="1536" descent="-512" />
<missing-glyph horiz-adv-x="516" />
<glyph horiz-adv-x="2048" />
<glyph horiz-adv-x="2048" />
<glyph unicode="&#xd;" horiz-adv-x="681" />
<glyph unicode=" "  horiz-adv-x="516" />
<glyph unicode="&#x09;" horiz-adv-x="516" />
<glyph unicode="&#xa0;" horiz-adv-x="516" />
<glyph unicode="!" horiz-adv-x="262" d="M41 88q0 41 24.5 66.5t63.5 25.5q41 0 66.5 -25.5t25.5 -66.5q0 -39 -25.5 -63.5t-66.5 -24.5q-39 0 -63.5 24.5t-24.5 63.5zM49 1430h160v-1033h-154z" />
<glyph unicode="&#x22;" horiz-adv-x="487" d="M41 1137l82 297h123l-82 -297h-123zM242 1137l82 297h122l-81 -297h-123z" />
<glyph unicode="#" horiz-adv-x="931" d="M41 260v113h180q6 31 13.5 65.5t15.5 67.5l31 135h-240v115h262l25 118l28 140h107l-49 -258h213l37 178l12 80h110l-53 -258h158v-115h-180q-6 -33 -14.5 -66.5t-14.5 -68.5t-13 -66.5t-14 -66.5h236v-113h-256q-6 -33 -13.5 -67.5t-15.5 -65.5l-24 -127h-113l53 260 h-215q-6 -29 -11 -58.5t-11 -58.5q-6 -35 -14.5 -71.5t-14.5 -71.5h-106l49 260h-158zM332 373h213l59 268h-213l-31 -135q-8 -35 -15 -66.5t-13 -66.5z" />
<glyph unicode="$" horiz-adv-x="1011" d="M41 205l113 108q59 -72 132.5 -116.5t174.5 -55.5v430q-68 18 -131.5 42t-114.5 61t-82 93t-31 140q0 57 18.5 112.5t60.5 100.5t110.5 75t169.5 36v203h133v-203q231 -18 375 -195l-111 -96q-90 129 -264 154v-406q70 -20 137.5 -45t120.5 -62.5t86 -96t33 -144.5 q0 -147 -101.5 -232t-275.5 -102v-211h-133v209q-129 6 -231.5 54t-188.5 147zM258 926q0 -41 15.5 -72t43 -54.5t64.5 -41t80 -31.5v369q-111 -10 -157 -56t-46 -114zM594 141q111 12 165 59t54 119q0 47 -17.5 81t-46 59.5t-69.5 44t-86 33.5v-396z" />
<glyph unicode="%" horiz-adv-x="995" d="M41 0l762 1430h141l-762 -1430h-141zM49 1229q0 86 56.5 143.5t154.5 57.5q104 0 157.5 -57.5t53.5 -143.5q0 -84 -53 -142.5t-158 -58.5q-98 0 -154.5 59.5t-56.5 141.5zM152 1229q0 -47 24.5 -81t83.5 -34t85 32t26 83q0 49 -26 85t-85 36t-83.5 -35t-24.5 -86z M532 201q0 86 56.5 143t154.5 57q104 0 157.5 -57t53.5 -143q0 -84 -53 -142.5t-158 -58.5q-98 0 -154.5 59.5t-56.5 141.5zM639 201q0 -47 22.5 -81t81.5 -34t85 33t26 82t-25.5 85t-85.5 36q-59 0 -81.5 -35t-22.5 -86z" />
<glyph unicode="&#x26;" horiz-adv-x="1226" d="M41 397q0 129 84 228.5t258 195.5q-78 100 -118 173t-40 132q0 135 99 222q100 90 254 90q143 0 237 -88q92 -86 92 -213q0 -53 -18.5 -97.5t-54 -84.5t-90 -78.5t-126.5 -81.5l312 -381q29 39 52.5 99t25.5 153h151q-8 -111 -37.5 -206t-81.5 -181l146 -181 q-33 -29 -64.5 -55.5t-62.5 -52.5l-127 155q-176 -160 -438 -159q-195 0 -326 118q-127 119 -127 293zM215 410q0 -119 80 -201q82 -88 203 -88q203 0 342 143l-371 451q-66 -39 -114 -74t-78.5 -70.5t-46 -74.5t-15.5 -86zM387 1143q0 -39 25.5 -83t66.5 -99l53 -62 q109 57 161 105.5t52 130.5q0 80 -52 130t-126 50q-76 0 -128 -48t-52 -124z" />
<glyph unicode="'" horiz-adv-x="204" d="M41 1137v297h123v-297h-123z" />
<glyph unicode="(" horiz-adv-x="544" d="M41 692q0 160 29.5 293t78 243.5t108.5 202t120 164.5h127q-70 -88 -131.5 -186t-106.5 -208.5t-70.5 -237.5t-25.5 -271q0 -145 25.5 -271t70.5 -236.5t106.5 -209t131.5 -186.5h-127q-59 76 -119.5 166t-109 200.5t-78 243.5t-29.5 293z" />
<glyph unicode=")" horiz-adv-x="544" d="M41 -211q70 88 131 186.5t106.5 209t71 236.5t25.5 271q0 143 -25.5 270.5t-71 238t-106.5 208.5t-131 186h127q59 -74 119.5 -165t108.5 -201.5t78 -243.5t30 -293t-30 -293t-78 -243.5t-108.5 -200.5t-119.5 -166h-127z" />
<glyph unicode="*" horiz-adv-x="768" d="M41 1147l31 90l258 -86v283h102l2 -283l264 84l29 -90l-266 -96l174 -224l-76 -57l-176 219l-172 -217l-82 55l160 230z" />
<glyph unicode="+" horiz-adv-x="983" d="M41 461v112h393v396h113v-396h395v-112h-395v-393h-113v393h-393z" />
<glyph unicode="," horiz-adv-x="346" d="M41 -297l133 502h131l-141 -502h-123z" />
<glyph unicode="-" horiz-adv-x="491" d="M41 455v120h410v-120h-410z" />
<glyph unicode="." horiz-adv-x="280" d="M41 98q0 43 27.5 72t70.5 29t72 -29t29 -72t-29 -70.5t-72 -27.5t-70.5 27.5t-27.5 70.5z" />
<glyph unicode="/" horiz-adv-x="749" d="M41 0l551 1434h117l-551 -1434h-117z" />
<glyph unicode="0" horiz-adv-x="1097" d="M41 698q0 164 38 297t105.5 226.5t160.5 144.5t204 51t204 -51t160.5 -144.5t105.5 -226.5t38 -297q0 -166 -38 -299t-105.5 -225t-160.5 -142t-204 -50t-204 50t-160.5 142t-105.5 225t-38 299zM168 698q0 -137 28.5 -246.5t80 -186.5t121 -118t151.5 -41q78 0 145.5 41 t117.5 118t79 186.5t29 246.5q0 135 -29 245t-79 185.5t-117.5 116.5t-145.5 41q-82 0 -151.5 -41t-121 -116.5t-80 -185t-28.5 -245.5z" />
<glyph unicode="1" horiz-adv-x="223" d="M41 0v1380l141 54v-1434h-141z" />
<glyph unicode="2" horiz-adv-x="931" d="M41 1200q53 104 155.5 167t229.5 63q98 0 176 -32t132 -89.5t84 -135t30 -172.5q0 -66 -24.5 -130t-61.5 -125.5t-82 -117t-86 -100.5l-191 -211l-165 -182h653v-135h-836v147l418 453q37 43 78 92t76 102.5t57.5 106.5t22.5 107q0 57 -19.5 108t-55.5 89t-88 59.5 t-118 21.5q-102 0 -171 -49t-97 -135z" />
<glyph unicode="3" horiz-adv-x="995" d="M41 158l115 96q57 -74 136 -106.5t169 -32.5q160 0 252 74.5t92 207.5q0 143 -110.5 215t-309.5 72h-47v141h51q76 0 139.5 16.5t110.5 48.5t73.5 80t26.5 111q0 49 -22.5 92.5t-60.5 75t-90 49t-111 17.5q-104 0 -171 -32t-122 -97l-107 90q80 86 171 126t227 40 q92 0 172 -22.5t139 -66.5t93 -111.5t34 -158.5q0 -119 -62.5 -200.5t-166.5 -116.5q129 -35 210.5 -125t81.5 -244q0 -102 -40 -178t-107.5 -128t-157.5 -77.5t-188 -25.5q-135 0 -232.5 40t-187.5 130z" />
<glyph unicode="4" horiz-adv-x="1042" d="M41 383v109l702 940h129v-904h129v-145h-129v-381h-143v381h-688zM240 528h489l-2 643z" />
<glyph unicode="5" horiz-adv-x="1003" d="M41 164l111 100q55 -72 139 -100.5t176 -28.5q76 0 140.5 27.5t111.5 75t74.5 111t27.5 134.5q0 168 -112.5 254t-302.5 86q-31 0 -69 -3t-76 -7t-74.5 -11t-65.5 -16l61 648h670v-146h-547l-31 -334q35 4 81 6.5t81 2.5q106 0 201.5 -26t168.5 -82t115 -146t42 -217 q0 -94 -37 -183.5t-102.5 -160t-157 -113.5t-199.5 -43q-139 0 -237.5 43t-188.5 129z" />
<glyph unicode="6" horiz-adv-x="1036" d="M41 559q0 141 42 283.5t134 263.5t239.5 210t358.5 128l41 -125q-287 -68 -439.5 -199t-201.5 -348v-2q76 72 159 99.5t201 27.5q82 0 158 -30.5t134.5 -87t93 -138.5t34.5 -184t-32.5 -188.5t-94 -149t-148.5 -98t-194 -35.5q-117 0 -207 45t-151.5 122.5t-94 182 t-32.5 223.5zM188 528q0 -82 24 -156.5t68 -131t107.5 -90t144.5 -33.5q74 0 133.5 24.5t100.5 68.5t63.5 105.5t22.5 133.5t-23.5 129t-63.5 97t-94.5 60.5t-115.5 20.5q-104 0 -195.5 -42t-162.5 -110q-4 -16 -6.5 -36t-2.5 -40z" />
<glyph unicode="7" horiz-adv-x="925" d="M41 1288v146h844v-111l-242 -438q-61 -115 -118.5 -222.5t-101.5 -211t-70.5 -202.5t-26.5 -198v-47h-142v43q0 90 13.5 168t41 157t70.5 166t101.5 194.5t132 243.5t166.5 312h-668z" />
<glyph unicode="8" horiz-adv-x="1075" d="M41 397q0 154 82 244t211 125q-104 35 -167 117t-63 200q0 90 34 158t93.5 112t139.5 66.5t172 22.5h8q76 0 135 -19q127 -31 206 -114.5t79 -225.5q0 -119 -62.5 -200.5t-167.5 -116.5q129 -35 211 -125t82 -244q0 -90 -31.5 -161.5t-87 -122t-130 -81t-160.5 -38.5 l-25 -4q-10 0 -18.5 -1t-18.5 -1h-2h-20h-6h-19l-65 6q-86 8 -161 38.5t-130.5 81t-87 122t-31.5 161.5zM195 397q0 -80 32 -141q55 -68 138.5 -102.5t169.5 -34.5t171 33.5t142 103.5q33 57 33 141q0 129 -90.5 200t-251.5 83q-164 -12 -254 -83t-90 -200zM252 1081 q0 -55 22.5 -99t60.5 -76t90 -51t114 -26q59 6 111 25.5t90 51.5t60.5 76t22.5 99q0 49 -22.5 91t-61.5 72t-92 46.5t-112 16.5h-7q-57 -2 -107 -19.5t-88 -47.5t-59.5 -70t-21.5 -89z" />
<glyph unicode="9" horiz-adv-x="1036" d="M41 973q0 100 32.5 187t94 149.5t147.5 98.5t195 36q117 0 207 -45t151.5 -123t94 -182.5t32.5 -223.5q0 -141 -42 -283.5t-134 -263t-239.5 -209.5t-358.5 -128l-41 125q143 33 252 82t187.5 115.5t128 153.5t73.5 195v2q-76 -72 -158.5 -99.5t-201.5 -27.5 q-82 0 -158 31t-134 87.5t-93 138t-35 184.5zM184 981q0 -72 23.5 -129t63.5 -97t94.5 -60.5t115.5 -20.5q104 0 195.5 42t163.5 109q4 16 6 36t2 40q0 82 -23.5 157t-67.5 131t-107.5 90t-145.5 34q-74 0 -133.5 -24.5t-100.5 -68.5t-63.5 -105.5t-22.5 -133.5z" />
<glyph unicode=":" horiz-adv-x="280" d="M41 98q0 43 27.5 72t70.5 29t72 -29t29 -72t-29 -70.5t-72 -27.5t-70.5 27.5t-27.5 70.5zM41 922q0 43 27.5 71.5t70.5 28.5t72 -28.5t29 -71.5t-29 -71t-72 -28t-70.5 28t-27.5 71z" />
<glyph unicode=";" horiz-adv-x="374" d="M41 -313l139 501h131l-141 -501h-129zM135 922q0 43 27.5 71.5t70.5 28.5t72 -28.5t29 -71.5t-29 -71t-72 -28t-70.5 28t-27.5 71z" />
<glyph unicode="&#x3c;" horiz-adv-x="520" d="M41 477l287 344h151l-268 -344l27 -37l45 -55q47 -57 101 -124.5t95 -127.5h-151z" />
<glyph unicode="=" horiz-adv-x="927" d="M41 289v131h846v-131h-846zM41 686v137h846v-137h-846z" />
<glyph unicode="&#x3e;" horiz-adv-x="520" d="M41 133l268 344q-33 41 -66.5 82t-64.5 80l-137 182h152l286 -344l-286 -344h-152z" />
<glyph unicode="?" horiz-adv-x="833" d="M41 1270q78 82 165 123t212 41q74 0 141.5 -21.5t119.5 -64.5t83 -108.5t31 -156.5q0 -66 -31 -127t-80 -116.5t-107.5 -103.5t-113.5 -85v-332h-133l-6 422q86 53 146 93t98 78t56.5 78t18.5 93q0 106 -67.5 159.5t-167.5 53.5q-86 0 -145.5 -32.5t-113.5 -98.5zM297 98 q0 39 27.5 67t70.5 28q39 0 66.5 -28t27.5 -67q0 -43 -27.5 -70.5t-66.5 -27.5q-43 0 -70.5 27.5t-27.5 70.5z" />
<glyph unicode="@" horiz-adv-x="1398" d="M41 715q0 141 42 269t125 226.5t205 156.5t283 58q147 0 269 -47t209.5 -133t135.5 -209t48 -274q0 -113 -25.5 -193t-66.5 -132t-93.5 -76.5t-105.5 -24.5q-66 0 -110 24.5t-60 69.5q-51 -53 -118.5 -80.5t-137.5 -27.5q-123 0 -202 66.5t-79 180.5q0 66 25 114t67 79 t97 46t117 15q57 0 115.5 -10t103.5 -25v74q0 80 -51.5 123t-147.5 43q-53 0 -105.5 -22.5t-99.5 -81.5l-86 96q51 63 125 97t172 34q145 0 233.5 -69.5t88.5 -204.5v-377q0 -27 12 -41.5t45 -14.5q27 0 54.5 14.5t48 49.5t34 94.5t13.5 151.5q0 135 -38 238.5t-106.5 174 t-166 107.5t-214.5 37q-129 0 -227 -48.5t-164.5 -130t-99.5 -190t-33 -229.5q0 -127 33 -235.5t98.5 -188.5t164.5 -125t234 -45t236.5 34.5t187.5 122.5l66 -96q-96 -92 -220 -136t-276 -44q-160 0 -282.5 53t-205.5 148.5t-125 226.5t-42 287zM487 571q0 -61 46.5 -97 t125.5 -36q59 0 122 36t104 89v103q-47 20 -97.5 31.5t-101.5 11.5q-35 0 -70.5 -7.5t-64.5 -23.5t-46.5 -42t-17.5 -65z" />
<glyph unicode="A" d="M41 0l510 1434h164l510 -1434h-172l-154 434h-532l-154 -434h-172zM420 586h424l-211 600z" />
<glyph unicode="B" horiz-adv-x="1107" d="M41 0v1434h561q80 0 149.5 -31t122 -83t82 -122t29.5 -149q0 -86 -35 -159t-94 -126q94 -53 152.5 -147.5t58.5 -208.5q0 -86 -33 -160t-88 -129.5t-130 -87t-161 -31.5h-614zM193 152h464q53 0 101.5 22.5t84.5 60t56.5 87t20.5 102.5t-20.5 98t-56.5 77t-84 50.5 t-102 18.5h-464v-516zM193 819h411q49 0 91 18.5t73 49.5t49.5 72.5t18.5 91.5q0 49 -18.5 91t-49.5 72.5t-73 49t-91 18.5h-411v-463z" />
<glyph unicode="C" horiz-adv-x="1222" d="M41 725q0 141 38 272t116.5 232.5t197.5 162t283 60.5q172 0 294 -61.5t212 -167.5l-109 -97q-84 104 -180 139t-213 35q-127 0 -218 -48t-151.5 -128t-89 -184t-28.5 -217q0 -111 28.5 -216.5t89 -186t151.5 -130t218 -49.5q117 0 213 38t180 143l109 -97 q-90 -106 -212 -169.5t-294 -63.5q-164 0 -283 62.5t-197.5 165t-116.5 234.5t-38 271z" />
<glyph unicode="D" horiz-adv-x="1290" d="M41 0v1434h520q176 0 306 -57.5t215 -155t126 -226.5t41 -274q0 -150 -43 -281t-129 -229t-215 -154.5t-301 -56.5h-520zM193 152h358q135 0 236.5 40.5t170 114.5t102.5 178.5t34 233.5q0 133 -38 237.5t-108.5 177t-171 110.5t-225.5 38h-358v-1130z" />
<glyph unicode="E" horiz-adv-x="942" d="M41 0v1434h854v-152h-702v-461h638v-151h-638v-518h708v-152h-860z" />
<glyph unicode="F" horiz-adv-x="935" d="M41 0v1434h854v-152h-702v-461h638v-151h-638v-670h-152z" />
<glyph unicode="G" horiz-adv-x="1243" d="M41 725q0 141 38 272t116.5 232.5t197.5 162t283 60.5q172 0 294 -61.5t212 -167.5l-109 -97q-84 104 -180 139t-213 35q-127 0 -218 -48t-151.5 -128t-89 -184t-28.5 -217q0 -111 31.5 -216.5t96 -186t158.5 -130t221 -49.5q100 0 187.5 28t163.5 103v398h-408v151h559 v-596q-90 -106 -212 -169.5t-294 -63.5q-164 0 -285.5 62.5t-204.5 165t-124 234.5t-41 271z" />
<glyph unicode="H" horiz-adv-x="1093" d="M41 0v1434h152v-613h708v613h152v-1434h-152v670h-708v-670h-152z" />
<glyph unicode="I" horiz-adv-x="233" d="M41 0v1434h152v-1434h-152z" />
<glyph unicode="J" horiz-adv-x="894" d="M41 201l115 106q53 -82 123.5 -127t183.5 -45q131 0 185 79t54 210v1010h152v-1012q0 -217 -106.5 -327.5t-309.5 -110.5q-66 0 -118 11t-99 36.5t-91 67.5t-89 102z" />
<glyph unicode="K" horiz-adv-x="1128" d="M41 0v1434h152v-697l692 697h198l-696 -697l700 -737h-210l-684 733v-733h-152z" />
<glyph unicode="L" horiz-adv-x="940" d="M41 0v1434h152v-1282h706v-152h-858z" />
<glyph unicode="M" horiz-adv-x="1357" d="M41 0v1434h117l522 -834l522 834h115v-1434h-150v1135l-487 -795l-494 778v-1118h-145z" />
<glyph unicode="N" horiz-adv-x="1232" d="M41 0v1434h123l880 -1162v1162h148v-1434h-127l-877 1161v-1161h-147z" />
<glyph unicode="O" horiz-adv-x="1417" d="M41 725q0 143 42 274t126 231.5t208 161t290 60.5t291.5 -60.5t209.5 -161t126 -231.5t42 -274t-42 -276.5t-126 -234.5t-210 -162.5t-291 -61.5q-166 0 -290 61.5t-208 162.5t-126 234.5t-42 276.5zM195 723q0 -117 32.5 -222.5t97 -185t160 -127t222.5 -47.5 q129 0 225 46t160.5 126t97.5 185.5t33 224.5q0 117 -33 221.5t-97.5 183t-160.5 125.5t-225 47q-127 0 -222.5 -46t-160 -124.5t-97 -184t-32.5 -222.5z" />
<glyph unicode="P" horiz-adv-x="1026" d="M41 0v1434h534q84 0 159 -33t130.5 -88.5t88 -130t32.5 -160.5t-32.5 -161t-88 -130t-130.5 -87t-159 -32h-382v-612h-152zM193 764h382q53 0 100.5 20.5t82.5 55t55.5 82t20.5 100.5t-20.5 100t-55.5 82t-82 56.5t-101 21.5h-382v-518z" />
<glyph unicode="Q" horiz-adv-x="1417" d="M41 725q0 143 42 274t126 231.5t208 161t290 60.5t291.5 -60.5t209.5 -161t126 -231.5t42 -274q0 -121 -28.5 -233.5t-87 -205.5t-145.5 -164t-204 -104l176 -223h-167l-152 199q-16 -2 -30.5 -3t-30.5 -1q-166 0 -290 61.5t-208 162.5t-126 234.5t-42 276.5zM195 723 q0 -117 32.5 -222.5t97 -185t160 -127t222.5 -47.5q129 0 225 46t160.5 126t97.5 185.5t33 224.5q0 117 -33 221.5t-97.5 183t-160.5 125.5t-225 47q-127 0 -222.5 -46t-160 -124.5t-97 -184t-32.5 -222.5z" />
<glyph unicode="R" horiz-adv-x="1077" d="M41 0v1434h534q84 0 159 -33t130.5 -88.5t88 -130t32.5 -160.5q0 -68 -21.5 -130.5t-58.5 -113.5t-89 -89t-114 -58l334 -631h-170l-336 612h-337v-612h-152zM193 764h382q53 0 100.5 20.5t82.5 55t55.5 82t20.5 100.5t-20.5 100t-55.5 82t-82 56.5t-101 21.5h-382v-518z " />
<glyph unicode="S" horiz-adv-x="1103" d="M41 231l123 103q72 -98 172 -143.5t229 -45.5q76 0 138.5 16.5t107.5 46.5t70.5 69.5t25.5 87.5q0 63 -34.5 111t-88 84t-121 61.5t-131.5 46.5q-76 27 -150.5 54.5t-135 69.5t-97 106.5t-36.5 166.5q0 74 25.5 141.5t80.5 119.5t143.5 83t210.5 31q147 0 264 -47 t222 -172l-133 -105l-8 12q-66 86 -148 123t-192 37q-145 0 -226.5 -60.5t-81.5 -148.5q0 -53 34 -94t87 -72.5t117.5 -56.5t124.5 -47q57 -18 132 -51t141.5 -82t111.5 -119t45 -164q0 -98 -38 -174t-105.5 -126t-159.5 -76.5t-199 -26.5q-154 0 -280.5 57t-239.5 184z" />
<glyph unicode="T" horiz-adv-x="946" d="M41 1282v152h864v-152h-352v-1282h-152v1282h-360z" />
<glyph unicode="U" horiz-adv-x="1228" d="M41 471v25v938h152v-940q0 -88 28.5 -153t78.5 -108t117.5 -65.5t143.5 -28.5q10 -2 18.5 -2h18.5h14h4h15h17t18 2q76 6 143.5 28.5t118.5 65.5t79.5 108t28.5 153v940h152v-938v-25q-4 -102 -41 -185t-100.5 -144.5t-148.5 -99.5t-185 -50l-76 -6h-21h-4q-49 0 -98 6 q-100 12 -185 50t-147.5 99.5t-99.5 144.5t-41 185z" />
<glyph unicode="V" d="M41 1434h172l420 -1186l420 1186h172l-510 -1434h-164z" />
<glyph unicode="W" horiz-adv-x="1845" d="M41 1434h168l319 -1125l314 1125h168l313 -1125l313 1125h168l-401 -1434h-160l-313 1122l-322 -1122h-166z" />
<glyph unicode="X" horiz-adv-x="1275" d="M41 0l502 723l-494 711h197l391 -572l393 572h197l-496 -711l504 -723h-199l-399 584l-399 -584h-197z" />
<glyph unicode="Y" horiz-adv-x="1251" d="M41 1434h180l404 -576l405 576h180l-508 -750l-2 -684h-151v682z" />
<glyph unicode="Z" horiz-adv-x="1124" d="M41 0v152l786 1130h-743v152h948v-150l-786 -1132h837v-152h-1042z" />
<glyph unicode="[" horiz-adv-x="348" d="M41 -203v1807h266v-123h-141v-1561h141v-123h-266z" />
<glyph unicode="\" horiz-adv-x="749" d="M41 1434h117l551 -1430h-117z" />
<glyph unicode="]" horiz-adv-x="348" d="M41 -80h139v1561h-139v123h266v-1807h-266v123z" />
<glyph unicode="^" horiz-adv-x="583" d="M41 1202l190 232h121l191 -232h-140l-112 133l-111 -133h-139z" />
<glyph unicode="_" horiz-adv-x="1105" d="M41 -313h1024v-113h-1024v113z" />
<glyph unicode="`" horiz-adv-x="413" d="M41 1434h141l191 -232h-140z" />
<glyph unicode="a" horiz-adv-x="917" d="M41 281q0 86 31.5 149.5t86 105.5t126 62t151.5 20q82 0 158 -6t141 -30v84q0 117 -72.5 179t-201.5 62q-82 0 -138.5 -19.5t-111.5 -88.5l-100 86q66 78 149.5 113.5t206.5 35.5q90 0 166 -22.5t130 -67.5t84 -110.5t30 -151.5v-682h-142v109q-31 -41 -68.5 -65 t-79.5 -36t-90 -15t-102 -3q-76 0 -140.5 18.5t-112.5 55t-74.5 91t-26.5 126.5zM182 283q0 -86 64.5 -129t179.5 -43q94 0 175 33.5t134 119.5v180q-63 29 -133 34t-141 5q-51 0 -100.5 -9t-89.5 -31.5t-64.5 -61.5t-24.5 -98z" />
<glyph unicode="b" horiz-adv-x="974" d="M41 49v1385h143v-428q53 14 106.5 22t108.5 8q102 0 198.5 -29.5t171.5 -93t120 -162t45 -235.5q0 -115 -37 -210t-107.5 -164.5t-171 -108.5t-225.5 -39q-174 0 -352 55zM184 150q53 -18 108.5 -25.5t113.5 -7.5q180 0 279 109.5t99 287.5q0 193 -107.5 296t-289.5 103 q-49 0 -101.5 -11t-101.5 -28v-724z" />
<glyph unicode="c" horiz-adv-x="950" d="M41 516q0 111 30.5 205t90 164.5t149.5 110.5t207 40q127 0 220 -44t161 -120l-94 -94q-53 61 -123 98t-160 37q-92 0 -155.5 -31.5t-103.5 -85t-58.5 -125t-18.5 -151.5q0 -76 19.5 -148.5t60.5 -129t106.5 -91t155.5 -34.5q84 0 161 31.5t136 99.5l84 -90 q-72 -76 -164 -120t-225 -44q-125 0 -216 44t-149.5 116.5t-86 167t-27.5 194.5z" />
<glyph unicode="d" horiz-adv-x="974" d="M41 516q0 137 45 235.5t120 162t171 93t198 29.5q55 0 108.5 -8t107.5 -22v428h143v-1385q-178 -55 -352 -55q-127 0 -226.5 39t-170 108.5t-107.5 164.5t-37 210zM190 514q0 -178 99.5 -287.5t279.5 -109.5q57 0 112.5 7t109.5 26v724q-49 16 -101.5 27.5t-101.5 11.5 q-182 0 -290 -103t-108 -296z" />
<glyph unicode="e" horiz-adv-x="999" d="M41 506q0 135 37 234.5t100.5 165t147.5 97t178 31.5q226 0 340 -138q111 -133 110 -384v-18h-768q6 -174 100.5 -276.5t256.5 -102.5q90 0 163.5 29.5t133.5 95.5l86 -90q-72 -78 -166 -118t-228 -40q-123 0 -215 42t-153.5 113.5t-92 163.5t-30.5 195zM190 614h621 q0 63 -19.5 118.5t-55.5 94.5t-93 62.5t-133 23.5q-78 0 -134.5 -23.5t-89 -60t-60 -93t-36.5 -122.5z" />
<glyph unicode="f" horiz-adv-x="546" d="M41 899v127h92v27q0 86 16.5 163.5t59.5 132t115 77.5q38 13 88 13q43 0 94 -9l-19 -117q-16 4 -34.5 7t-40.5 1q-43 -4 -70 -26.5t-41 -60.5t-19.5 -86t-5.5 -99v-23h181v-127h-181v-899h-143v899h-92z" />
<glyph unicode="g" horiz-adv-x="972" d="M41 512q0 113 37 209t107.5 165.5t170 108.5t226.5 39q172 0 350 -55v-1024q0 -121 -35 -205t-97.5 -137t-148.5 -77.5t-190 -24.5q-133 0 -233.5 46t-174.5 124l94 102q119 -135 318 -135q162 0 242.5 66.5t80.5 219.5v89q-53 -14 -105 -22.5t-108 -8.5 q-102 0 -198 29.5t-171 93t-120 162t-45 235.5zM190 514q0 -193 108 -296t290 -103q49 0 100 11t100 28v725q-53 18 -107 25t-112 7q-180 0 -279.5 -109.5t-99.5 -287.5z" />
<glyph unicode="h" horiz-adv-x="942" d="M41 0v1434h145v-547q49 66 133 111.5t205 45.5q78 0 146.5 -23.5t120 -68.5t81 -112.5t29.5 -155.5v-684h-143v655q0 129 -76 193.5t-188 64.5q-59 0 -107.5 -23.5t-86.5 -59t-65.5 -76.5t-48.5 -76v-678h-145z" />
<glyph unicode="i" horiz-adv-x="256" d="M41 1346q0 39 23.5 63.5t62.5 24.5t63.5 -25t24.5 -63q0 -39 -24.5 -62.5t-63.5 -23.5t-62.5 23.5t-23.5 62.5zM57 0v1024h144v-1024h-144z" />
<glyph unicode="j" horiz-adv-x="491" d="M41 -303q133 16 191.5 93t58.5 222v1014h143v-1020q0 -80 -20.5 -153.5t-64.5 -132t-112.5 -97.5t-164.5 -49zM276 1346q0 39 24 63.5t62 24.5q39 0 64 -25t25 -63q0 -39 -25 -62.5t-64 -23.5t-62.5 23.5t-23.5 62.5z" />
<glyph unicode="k" horiz-adv-x="909" d="M41 0v1432h143v-1432h-143zM184 528l492 496h192l-503 -492l501 -532h-198z" />
<glyph unicode="l" horiz-adv-x="225" d="M41 0v1434h143v-1434h-143z" />
<glyph unicode="m" horiz-adv-x="1654" d="M41 0v1026h143v-139q49 66 133 111.5t205 45.5q115 0 205 -48t135 -144q27 31 61.5 64.5t81 62.5t103.5 47t129 18q78 0 146.5 -22.5t119.5 -68.5t81 -113.5t30 -155.5v-684h-141v655q0 129 -77 192.5t-190 65.5q-66 0 -115 -23.5t-84.5 -59t-61 -76.5t-46.5 -76v-678 h-141v655q0 129 -77 193.5t-189 64.5q-59 0 -107.5 -23.5t-86.5 -59t-65.5 -76.5t-48.5 -76v-678h-143z" />
<glyph unicode="n" horiz-adv-x="940" d="M41 0v1026h143v-139q49 66 133 111.5t205 45.5q78 0 146.5 -23.5t120 -68.5t81 -112.5t29.5 -155.5v-684h-141v655q0 129 -77 193.5t-189 64.5q-59 0 -107.5 -23.5t-86.5 -59t-65.5 -76.5t-48.5 -76v-678h-143z" />
<glyph unicode="o" horiz-adv-x="1038" d="M41 512q0 111 29.5 206t89 165.5t148.5 110.5t210 40t211 -41t149.5 -112.5t89 -167.5t29.5 -207t-29.5 -206t-89 -166t-149.5 -110.5t-211 -39.5t-210 42t-148.5 113.5t-89 167.5t-29.5 205zM193 510q0 -86 18 -162t57 -131t100.5 -87t149.5 -32t150.5 31t101.5 86 t57.5 130t18.5 163t-18.5 162.5t-57.5 130t-101.5 87.5t-150.5 32t-149.5 -31t-100.5 -85t-57 -130t-18 -164z" />
<glyph unicode="p" horiz-adv-x="985" d="M41 -508v1487q178 55 350 55q125 0 227.5 -39t175 -108.5t111.5 -165.5t39 -209q0 -137 -47 -235.5t-124 -162t-175 -93t-201 -29.5q-55 0 -108 8t-107 23v-531h-141zM182 154q49 -16 101.5 -27.5t101.5 -11.5q182 0 289.5 103t107.5 296q0 178 -99 287.5t-280 109.5 q-57 0 -112 -7t-109 -25v-725z" />
<glyph unicode="q" horiz-adv-x="972" d="M41 512q0 113 37 209t107.5 165.5t170 108.5t226.5 39q172 0 350 -55v-1487h-141v531q-53 -14 -106.5 -22.5t-109.5 -8.5q-102 0 -198 29.5t-171 93t-120 162t-45 235.5zM190 514q0 -193 108 -296t290 -103q49 0 101 11t102 28v725q-53 18 -108.5 25t-113.5 7 q-180 0 -279.5 -109.5t-99.5 -287.5z" />
<glyph unicode="r" horiz-adv-x="702" d="M41 0v1024h143v-137q49 66 133 111.5t205 45.5q35 0 72 -4t68 -12l-37 -137q-27 10 -64 16t-69 6q-59 0 -107.5 -23.5t-86.5 -59t-65.5 -76.5t-48.5 -76v-678h-143z" />
<glyph unicode="s" horiz-adv-x="823" d="M41 162l106 98q106 -143 277 -143q111 0 164 43t53 104q0 47 -19.5 79t-53 54.5t-78 38t-93.5 29.5q-55 16 -109.5 36.5t-97.5 52.5t-70.5 81t-27.5 125q0 135 94.5 208.5t243.5 73.5q106 0 189 -36.5t159 -128.5l-100 -97l-2 2q-51 68 -110.5 99.5t-141.5 31.5 q-104 0 -146 -38.5t-42 -98.5q0 -41 19 -69.5t51 -49t74 -36t87 -29.5q55 -18 110.5 -40t101.5 -56.5t74.5 -85t28.5 -125.5q0 -70 -28.5 -125.5t-77.5 -93t-115.5 -57t-142.5 -19.5q-117 0 -207 40t-170 132z" />
<glyph unicode="t" horiz-adv-x="546" d="M41 901v127h92v242h143v-242h181v-127h-181v-518q0 -53 5.5 -100t19.5 -85t41 -61.5t70 -25.5q23 -2 41 1t34 7l19 -117q-53 -11 -97 -11q-47 0 -85 13q-72 25 -115 79t-59.5 132t-16.5 164v522h-92z" />
<glyph unicode="u" horiz-adv-x="966" d="M41 344v680h143v-651q0 -66 22.5 -114t61.5 -81t90.5 -49t108.5 -16q123 0 197.5 49t115.5 119v743h146v-1024h-138v115q-104 -129 -356 -129q-82 0 -152.5 22.5t-124 67.5t-84 112.5t-30.5 155.5z" />
<glyph unicode="v" horiz-adv-x="1077" d="M41 1022h156l348 -864l350 864h141l-422 -1022h-147z" />
<glyph unicode="w" horiz-adv-x="1681" d="M41 1022h154l284 -844l301 844h133l304 -842l282 842h141l-358 -1022h-137l-301 827l-307 -827h-138z" />
<glyph unicode="x" horiz-adv-x="1026" d="M41 0l377 520l-369 504h172l305 -416l299 416h156l-369 -506l373 -518h-172l-309 426l-305 -426h-158z" />
<glyph unicode="y" horiz-adv-x="1079" d="M41 1024h162l342 -860l340 860h153l-426 -1040l-37 -99q-18 -59 -53 -112.5t-86 -94t-115.5 -67.5t-140.5 -35l-30 123q43 8 98 26.5t105 52.5t84 84t34 122z" />
<glyph unicode="z" horiz-adv-x="858" d="M41 0v137l567 752h-567v135h745v-135l-581 -752h612v-137h-776z" />
<glyph unicode="{" horiz-adv-x="415" d="M41 643v143q47 0 57.5 36t14.5 108l2 438q8 117 69.5 172t157.5 55h33v-112l-33 -2q-49 0 -71.5 -23.5t-32 -57.5t-9.5 -71v-63v-369q-2 -29 -4 -57.5t-11 -53t-29.5 -43t-59.5 -28.5q39 -10 59.5 -29.5t29.5 -44.5t11 -52.5t4 -56.5v-409q2 -35 2 -73t9.5 -69.5t32 -52 t69.5 -20.5l33 -2v-113h-33q-96 0 -157.5 55.5t-69.5 171.5l-2 480q-4 72 -14.5 107.5t-57.5 35.5z" />
<glyph unicode="|" horiz-adv-x="194" d="M41 -393v1966h113v-1966h-113z" />
<glyph unicode="}" horiz-adv-x="415" d="M41 -94l33 2q47 0 69.5 20.5t31.5 52t9 69.5t2 73v409q2 29 4.5 56.5t11.5 52.5t29.5 44.5t59.5 29.5q-39 10 -59.5 28.5t-29.5 43t-11.5 53t-4.5 57.5v369v63.5t-9 70.5t-31.5 57.5t-71.5 23.5l-33 2v112h33q96 0 157.5 -55t69.5 -172l2 -438q4 -72 14.5 -108t57.5 -36 v-143q-47 0 -57.5 -36t-14.5 -107l-2 -480q-8 -117 -69.5 -172t-157.5 -55h-33v113z" />
<glyph unicode="~" horiz-adv-x="741" d="M41 623q45 45 89 67.5t110 22.5q31 0 66.5 -10.5t82.5 -30.5q45 -20 69.5 -29.5t51.5 -9.5q29 0 55.5 12t75.5 39l59 -86q-66 -45 -104.5 -62.5t-91.5 -17.5q-37 0 -71 13.5t-65.5 28.5t-63.5 28.5t-66 13.5q-18 0 -30.5 -2t-27 -10t-32 -21.5t-48.5 -33.5z" />
<glyph unicode="&#xa1;" horiz-adv-x="256" d="M41 1079q0 39 24.5 62.5t63.5 23.5t62.5 -23.5t23.5 -62.5t-23.5 -63.5t-62.5 -24.5t-63.5 24.5t-24.5 63.5zM53 -215v997h154v-997h-154z" />
<glyph unicode="&#xa2;" horiz-adv-x="925" d="M41 528q0 94 24.5 184.5t73.5 162t124 120.5t175 62v209h115v-207q106 -10 186 -56.5t146 -121.5l-101 -88q-104 129 -231 143v-817q66 10 122 45t109 100l101 -88q-66 -78 -146 -124t-186 -56v-207h-115v209q-100 12 -175 61.5t-124 122t-73.5 162.5t-24.5 184zM180 528 q0 -68 15.5 -133t47 -121.5t80 -96.5t115.5 -54v809q-68 -14 -116 -53t-79.5 -94.5t-47 -122t-15.5 -134.5z" />
<glyph unicode="&#xa3;" horiz-adv-x="958" d="M41 512v125h160q-41 49 -73 107.5t-32 136.5q0 156 101.5 252t291.5 96q135 0 236.5 -48t179.5 -153l-104 -98q-104 162 -318 162q-127 0 -184 -53.5t-57 -139.5q0 -41 12 -74.5t30.5 -65.5t42 -61.5t46.5 -60.5h409v-125h-333q10 -23 15 -46.5t5 -51.5q0 -92 -45 -152.5 t-111 -109.5h605v-152h-873v119q59 25 111.5 53.5t91.5 64t61.5 77.5t22.5 92q0 55 -35 106h-256z" />
<glyph unicode="&#xa5;" horiz-adv-x="1001" d="M41 1229h170l293 -504l291 504h166l-326 -551h237v-127h-305v-201h305v-127h-305v-223h-135v223h-305v127h305v201h-305v127h233z" />
<glyph unicode="&#xa6;" horiz-adv-x="188" d="M41 -2v508h106v-508h-106zM41 930v508h106v-508h-106z" />
<glyph unicode="&#xa7;" horiz-adv-x="786" d="M41 737q0 92 36 147.5t101 90.5q-47 29 -74.5 79t-27.5 111q0 76 29.5 130.5t78.5 88t111.5 49t128.5 15.5q78 0 143.5 -22.5t137.5 -51.5l-41 -106q-66 41 -115 61.5t-123 20.5q-47 0 -88 -9.5t-71.5 -30t-48 -55t-17.5 -84.5q0 -31 18.5 -53t48 -39.5t69.5 -32 t83 -28.5q53 -16 110.5 -40t105.5 -58.5t78.5 -85.5t30.5 -123q0 -70 -41.5 -130.5t-101.5 -91.5q59 -37 84 -90t25 -118q0 -72 -29 -127.5t-76 -92t-109.5 -56t-131.5 -19.5q-88 0 -165 15t-153 52l49 99q45 -18 80 -29.5t65.5 -19t60.5 -10.5t67 -3q100 0 158.5 43 t58.5 146q0 49 -22.5 81.5t-59.5 56t-84 40t-96 32.5q-53 16 -103.5 34t-90.5 45.5t-64.5 67.5t-24.5 101zM166 743q0 -33 18.5 -56t49 -39.5t68.5 -30t77 -25.5q25 -8 49.5 -15.5t46.5 -17.5q59 23 102.5 60t43.5 90q0 45 -17.5 74.5t-47.5 49t-70 33t-83 25.5l-84 22 q-68 -10 -110.5 -48t-42.5 -122z" />
<glyph unicode="&#xa8;" horiz-adv-x="585" d="M41 1346q0 39 23.5 63.5t62.5 24.5t63.5 -25t24.5 -63q0 -39 -24.5 -62.5t-63.5 -23.5t-62.5 23.5t-23.5 62.5zM371 1346q0 39 23.5 63.5t62.5 24.5t63.5 -25t24.5 -63q0 -39 -24.5 -62.5t-63.5 -23.5t-62.5 23.5t-23.5 62.5z" />
<glyph unicode="&#xa9;" horiz-adv-x="1499" d="M41 725q0 143 48 271t139 224.5t222.5 154t297.5 57.5t298 -57.5t224 -154t140 -224.5t48 -271t-48 -272t-140 -227.5t-224.5 -156t-297.5 -57.5q-166 0 -297.5 57.5t-222.5 156t-139 227.5t-48 272zM164 723q0 -117 44 -225.5t122 -192.5t184.5 -134t233.5 -50 q129 0 236.5 50t186 133t122.5 191.5t44 227.5q0 117 -44 224.5t-122.5 191.5t-186 134t-236.5 50q-127 0 -233.5 -50t-184.5 -133t-122 -191.5t-44 -225.5zM299 725q0 98 29.5 182t86 145.5t137.5 97.5t185 36q111 0 194 -39t142 -107l-82 -82q-47 53 -109.5 86t-140.5 33 q-80 0 -139 -27.5t-98 -75.5t-57.5 -111.5t-18.5 -133.5q0 -68 19.5 -131t59.5 -113.5t99.5 -81t138.5 -30.5q74 0 142.5 28.5t122.5 87.5l73 -79q-63 -68 -145 -107t-199 -39q-111 0 -193.5 39t-137 103.5t-82 147.5t-27.5 171z" />
<glyph unicode="&#xaa;" horiz-adv-x="749" d="M39 714q0 69 25 119.5t68.5 84t100.5 49.5t121 16q66 0 126.5 -4.5t112.5 -23.5v67q0 93 -58 143t-161 50q-65 0 -110 -16t-89 -71l-80 69q52 62 119 90.5t165 28.5q72 0 132.5 -18t104 -54t67.5 -88.5t24 -120.5v-546h-114v87q-24 -33 -54 -52t-64 -28.5t-72 -12 t-81 -2.5q-61 0 -112.5 15t-90 44t-59.5 72.5t-21 101.5zM151 715q0 -68 51.5 -102.5t143.5 -34.5q75 0 140 26.5t107 95.5v144q-50 23 -106 27t-113 4q-40 0 -80 -7t-71.5 -25t-51.5 -49t-20 -79z" />
<glyph unicode="&#xab;" horiz-adv-x="827" d="M41 479l281 338h137l-269 -338l269 -338h-137zM369 479l280 338h137l-268 -338l268 -338h-137z" />
<glyph unicode="&#xac;" horiz-adv-x="956" d="M41 600v121h874v-485h-116v364h-758z" />
<glyph unicode="&#xad;" horiz-adv-x="491" d="M41 455v120h410v-120h-410z" />
<glyph unicode="&#xae;" horiz-adv-x="1499" d="M41 725q0 143 48 271t139 224.5t222.5 154t297.5 57.5t298 -57.5t224 -154t140 -224.5t48 -271t-48 -272t-140 -227.5t-224.5 -156t-297.5 -57.5q-166 0 -297.5 57.5t-222.5 156t-139 227.5t-48 272zM162 723q0 -117 44 -225.5t122 -192.5t185.5 -134t234.5 -50 q129 0 237.5 50t187 133t122.5 191.5t44 227.5q0 117 -44 224.5t-122.5 191.5t-187 134t-237.5 50q-127 0 -234.5 -50t-185.5 -133t-122 -191.5t-44 -225.5zM469 301v854h297q61 0 116.5 -15.5t97.5 -46t66.5 -78.5t24.5 -114q0 -55 -13.5 -94t-37 -66.5t-55 -44 t-66.5 -22.5q25 -51 51.5 -100.5t57.5 -104.5l96 -168h-154l-182 338h-156v-338h-143zM612 776h140q84 0 136 40t50 87q-4 66 -51 93.5t-125 27.5h-150v-248z" />
<glyph unicode="&#xaf;" horiz-adv-x="598" d="M41 1309v125h516v-125h-516z" />
<glyph unicode="&#xb0;" horiz-adv-x="507" d="M41 1231q0 88 57.5 145.5t155.5 57.5q104 0 158.5 -58.5t54.5 -144.5q0 -84 -54.5 -143.5t-158.5 -59.5q-98 0 -155.5 60.5t-57.5 142.5zM154 1231q0 -47 21.5 -78t78.5 -31q59 0 82.5 30t23.5 79q0 47 -23.5 82t-82.5 35q-57 0 -78.5 -34t-21.5 -83z" />
<glyph unicode="&#xb1;" horiz-adv-x="983" d="M41 0v113h901v-113h-901zM41 481v133h381v273h133v-273h387v-133h-387v-270h-133v270h-381z" />
<glyph unicode="&#xb2;" horiz-adv-x="567" d="M33 1034q31 60 89.5 95.5t130.5 35.5q56 0 100.5 -18t75.5 -51t48 -77t17 -98q0 -38 -14 -74.5t-35 -71.5t-46.5 -66.5t-49.5 -57.5l-109 -120l-94 -104h373v-77h-478v84l239 258q21 25 44.5 53t43.5 58.5t33 60.5t13 61q0 32 -11.5 61t-32 51t-50 34t-67.5 12 q-58 0 -97.5 -28t-55.5 -77z" />
<glyph unicode="&#xb3;" horiz-adv-x="602" d="M33 442l66 55q32 -43 77 -61.5t97 -18.5q91 0 143 42.5t52 118.5q0 81 -62.5 122t-176.5 41h-27v80h30q43 0 79 9.5t63 28t42 45.5t15 63q0 28 -13 53t-34.5 42.5t-51 27.5t-63.5 10q-59 0 -97 -18t-70 -55l-61 51q46 49 98 72t129 23q52 0 98 -13t79.5 -38t52.5 -63.5 t19 -90.5q0 -67 -35.5 -113.5t-94.5 -66.5q73 -20 119.5 -71t46.5 -139q0 -58 -22.5 -101.5t-61 -73t-90 -44t-106.5 -14.5q-77 0 -132.5 23t-107.5 74z" />
<glyph unicode="&#xb4;" horiz-adv-x="413" d="M41 1202l190 232h142l-193 -232h-139z" />
<glyph unicode="&#xb5;" horiz-adv-x="772" d="M41 -344v1292h127v-561q0 -59 7 -110.5t28.5 -88t59.5 -58t99 -21.5q37 0 71 20.5t62.5 51t49 66.5t33.5 66v635h133v-725q0 -47 5 -99t15 -124h-123l-14 115q-16 -18 -37.5 -40t-51.5 -40.5t-66 -30.5t-79 -12q-53 0 -102 16.5t-90 42.5v-395h-127z" />
<glyph unicode="&#xb6;" horiz-adv-x="831" d="M41 1108q0 53 13.5 110.5t53 104.5t112.5 78t192 31h379v-1440h-136v1298h-145v-1298h-135v807q-98 4 -163 33.5t-102.5 73.5t-53 97.5t-15.5 104.5z" />
<glyph unicode="&#xb7;" horiz-adv-x="272" d="M41 88q0 41 26.5 68.5t67.5 27.5t68.5 -27.5t27.5 -68.5t-27.5 -67.5t-68.5 -26.5t-67.5 26.5t-26.5 67.5z" />
<glyph unicode="&#xb8;" horiz-adv-x="466" d="M41 -303l35 92q23 -12 50.5 -22.5t61.5 -10.5q57 0 97.5 34t40.5 114q0 53 -17 119h99q8 -27 13 -60t5 -67q0 -113 -63.5 -175.5t-172.5 -62.5q-41 0 -77.5 11.5t-71.5 27.5z" />
<glyph unicode="&#xb9;" horiz-adv-x="163" d="M34 350v789l82 30v-819h-82z" />
<glyph unicode="&#xba;" horiz-adv-x="843" d="M39 901q0 89 23.5 164.5t70.5 131.5t118 87.5t168 31.5q96 0 167.5 -32.5t119 -89.5t71 -133t23.5 -165q0 -88 -23.5 -163.5t-71 -132t-119 -88t-167.5 -31.5q-97 0 -168 33.5t-118 90.5t-70.5 133.5t-23.5 162.5zM160 900q0 -69 14 -129.5t45.5 -104t80.5 -69t119 -25.5 t119.5 24.5t80.5 68.5t46 103.5t15 129.5t-15 129.5t-46 103.5t-80.5 69.5t-119.5 25.5t-119 -25t-80.5 -67.5t-45.5 -103t-14 -130.5z" />
<glyph unicode="&#xbb;" horiz-adv-x="839" d="M41 131l248 346l-172 242l-60 82h2l-18 22h149l289 -346l-289 -346h-149zM360 131l248 346l-110 154l-138 192h150l289 -346l-289 -346h-150z" />
<glyph unicode="&#xbc;" horiz-adv-x="993" d="M41 0l551 1434h117l-551 -1434h-117zM59 350v789l82 30v-819h-82zM241 219v62l402 538h74v-517h74v-83h-74v-218h-82v218h-394zM355 302h280l-1 367z" />
<glyph unicode="&#xbd;" horiz-adv-x="989" d="M41 0l551 1434h117l-551 -1434h-117zM59 350v789l82 30v-819h-82zM276 688q30 59 88.5 95t131.5 36q57 0 101.5 -18t75.5 -51t48 -77.5t17 -98.5q0 -38 -14 -75t-35 -72t-47 -67t-49 -57l-110 -121l-95 -105h375v-77h-479v84l239 260q21 24 45 52.5t44 59t32.5 61 t12.5 61.5q0 32 -11 61.5t-31.5 51t-50.5 34t-68 12.5q-58 0 -97.5 -28t-55.5 -77z" />
<glyph unicode="&#xbe;" horiz-adv-x="1259" d="M33 442l66 55q32 -43 77 -61.5t97 -18.5q91 0 143 42.5t52 118.5q0 81 -62.5 122t-176.5 41h-27v80h30q43 0 79 9.5t63 28t42 45.5t15 63q0 28 -13 53t-34.5 42.5t-51 27.5t-63.5 10q-59 0 -97 -18t-70 -55l-61 51q46 49 98 72t129 23q52 0 98 -13t79.5 -38t52.5 -63.5 t19 -90.5q0 -67 -35.5 -113.5t-94.5 -66.5q73 -20 119.5 -71t46.5 -139q0 -58 -22.5 -101.5t-61 -73t-90 -44t-106.5 -14.5q-77 0 -132.5 23t-107.5 74zM307 0l551 1434h117l-551 -1434h-117zM395 219v62l402 538h74v-517h74v-83h-74v-218h-82v218h-394zM509 302h280l-1 367 z" />
<glyph unicode="&#xbf;" horiz-adv-x="837" d="M41 143q0 78 30.5 141.5t80 116t112 96.5t125.5 85v241h119l2 -297q-88 -53 -149.5 -98t-100.5 -88t-57.5 -89t-18.5 -101q0 -117 72 -174.5t182 -57.5q92 0 154.5 32t116.5 93l88 -86q-74 -78 -160 -118t-211 -40q-74 0 -142.5 20.5t-123 62.5t-87 106.5t-32.5 154.5z M360 1120q0 39 25 62.5t64 23.5t62.5 -23.5t23.5 -62.5t-24 -63.5t-62 -24.5q-39 0 -64 24.5t-25 63.5z" />
<glyph unicode="&#xc0;" d="M41 0l510 1434h164l510 -1434h-172l-154 434h-532l-154 -434h-172zM385 1848h141l191 -232h-140zM420 586h424l-211 600z" />
<glyph unicode="&#xc1;" d="M41 0l510 1434h164l510 -1434h-172l-154 434h-532l-154 -434h-172zM420 586h424l-211 600zM545 1616l190 232h142l-193 -232h-139z" />
<glyph unicode="&#xc2;" d="M41 0l510 1434h164l510 -1434h-172l-154 434h-532l-154 -434h-172zM360 1616l190 232h162l191 -232h-160l-113 133l-110 -133h-160zM420 586h424l-211 600z" />
<glyph unicode="&#xc3;" d="M41 0l510 1434h164l510 -1434h-172l-154 434h-532l-154 -434h-172zM303 1753q45 45 89 68t110 23q31 0 66.5 -10.5t82.5 -30.5q45 -20 69.5 -29.5t51.5 -9.5q29 0 55.5 12t75.5 39l59 -86q-66 -45 -104.5 -62.5t-91.5 -17.5q-37 0 -71 13.5t-65.5 28.5t-63.5 28.5 t-66 13.5q-18 0 -30.5 -2t-27 -10.5t-32 -21.5t-48.5 -34zM420 586h424l-211 600z" />
<glyph unicode="&#xc4;" d="M41 0l510 1434h164l510 -1434h-172l-154 434h-532l-154 -434h-172zM381 1760q0 39 23.5 63.5t62.5 24.5t63.5 -25t24.5 -63q0 -39 -24.5 -62.5t-63.5 -23.5t-62.5 23.5t-23.5 62.5zM420 586h424l-211 600zM711 1760q0 39 23.5 63.5t62.5 24.5t63.5 -25t24.5 -63 q0 -39 -24.5 -62.5t-63.5 -23.5t-62.5 23.5t-23.5 62.5z" />
<glyph unicode="&#xc5;" d="M41 0l510 1434h164l510 -1434h-172l-154 434h-532l-154 -434h-172zM408 1622q0 92 57.5 150.5t161.5 58.5t160.5 -60.5t56.5 -148.5q0 -92 -56 -150.5t-161 -58.5q-104 0 -161.5 60.5t-57.5 148.5zM420 586h424l-211 600zM535 1622q0 -39 21.5 -70.5t70.5 -31.5 t71.5 30.5t22.5 71.5q0 43 -22.5 74t-71.5 31t-70.5 -31t-21.5 -74z" />
<glyph unicode="&#xc6;" horiz-adv-x="1775" d="M41 0l842 1432h790v-132h-553v-487h498v-143h-498v-539h615v-131h-760v670h-369l-393 -670h-172zM690 811h285l2 489z" />
<glyph unicode="&#xc7;" horiz-adv-x="1222" d="M41 725q0 141 38 272t116.5 232.5t197.5 162t283 60.5q172 0 294 -61.5t212 -167.5l-109 -97q-84 104 -180 139t-213 35q-127 0 -218 -48t-151.5 -128t-89 -184t-28.5 -217q0 -111 28.5 -216.5t89 -186t151.5 -130t218 -49.5q117 0 213 38t180 143l109 -97 q-90 -106 -213 -170q-86 -45 -201 -59q4 -14 6 -33q6 -33 6 -67q0 -113 -63 -175.5t-172 -62.5q-41 0 -78 11.5t-72 27.5l35 92q23 -12 50.5 -22.5t62.5 -10.5q57 0 97 34t40 114q0 41 -10 88q-160 2 -277 61q-119 63 -197.5 166t-116.5 235t-38 271z" />
<glyph unicode="&#xc8;" horiz-adv-x="942" d="M41 0v1434h854v-152h-702v-461h638v-151h-638v-518h708v-152h-860zM244 1848h141l191 -232h-140z" />
<glyph unicode="&#xc9;" horiz-adv-x="942" d="M41 0v1434h854v-152h-702v-461h638v-151h-638v-518h708v-152h-860zM387 1616l190 232h142l-193 -232h-139z" />
<glyph unicode="&#xca;" horiz-adv-x="942" d="M41 0v1434h854v-152h-702v-461h638v-151h-638v-518h708v-152h-860zM199 1616l190 232h162l191 -232h-160l-113 133l-110 -133h-160z" />
<glyph unicode="&#xcb;" horiz-adv-x="942" d="M41 0v1434h854v-152h-702v-461h638v-151h-638v-518h708v-152h-860zM219 1760q0 39 23.5 63.5t62.5 24.5t63.5 -25t24.5 -63q0 -39 -24.5 -62.5t-63.5 -23.5t-62.5 23.5t-23.5 62.5zM549 1760q0 39 23.5 63.5t62.5 24.5t63.5 -25t24.5 -63q0 -39 -24.5 -62.5t-63.5 -23.5 t-62.5 23.5t-23.5 62.5z" />
<glyph unicode="&#xcc;" horiz-adv-x="233" d="M-123 1848h141l191 -232h-140zM41 0v1434h152v-1434h-152z" />
<glyph unicode="&#xcd;" horiz-adv-x="233" d="M2 1616l190 232h142l-193 -232h-139zM41 0v1434h152v-1434h-152z" />
<glyph unicode="&#xce;" horiz-adv-x="233" d="M-152 1616l190 232h162l191 -232h-160l-113 133l-110 -133h-160zM41 0v1434h152v-1434h-152z" />
<glyph unicode="&#xcf;" horiz-adv-x="233" d="M-133 1760q0 39 23.5 63.5t62.5 24.5t63.5 -25t24.5 -63q0 -39 -24.5 -62.5t-63.5 -23.5t-62.5 23.5t-23.5 62.5zM41 0v1434h152v-1434h-152zM197 1760q0 39 23.5 63.5t62.5 24.5t63.5 -25t24.5 -63q0 -39 -24.5 -62.5t-63.5 -23.5t-62.5 23.5t-23.5 62.5z" />
<glyph unicode="&#xd1;" horiz-adv-x="1232" d="M41 0v1434h123l880 -1162v1162h148v-1434h-127l-877 1161v-1161h-147zM287 1753q45 45 89 68t110 23q31 0 66.5 -10.5t82.5 -30.5q45 -20 69.5 -29.5t51.5 -9.5q29 0 55.5 12t75.5 39l59 -86q-66 -45 -104.5 -62.5t-91.5 -17.5q-37 0 -71 13.5t-65.5 28.5t-63.5 28.5 t-66 13.5q-18 0 -30.5 -2t-27 -10.5t-32 -21.5t-48.5 -34z" />
<glyph unicode="&#xd2;" horiz-adv-x="1417" d="M41 725q0 143 42 274t126 231.5t208 161t290 60.5t291.5 -60.5t209.5 -161t126 -231.5t42 -274t-42 -276.5t-126 -234.5t-210 -162.5t-291 -61.5q-166 0 -290 61.5t-208 162.5t-126 234.5t-42 276.5zM195 723q0 -117 32.5 -222.5t97 -185t160 -127t222.5 -47.5 q129 0 225 46t160.5 126t97.5 185.5t33 224.5q0 117 -33 221.5t-97.5 183t-160.5 125.5t-225 47q-127 0 -222.5 -46t-160 -124.5t-97 -184t-32.5 -222.5zM543 1848h141l191 -232h-140z" />
<glyph unicode="&#xd3;" horiz-adv-x="1417" d="M41 725q0 143 42 274t126 231.5t208 161t290 60.5t291.5 -60.5t209.5 -161t126 -231.5t42 -274t-42 -276.5t-126 -234.5t-210 -162.5t-291 -61.5q-166 0 -290 61.5t-208 162.5t-126 234.5t-42 276.5zM195 723q0 -117 32.5 -222.5t97 -185t160 -127t222.5 -47.5 q129 0 225 46t160.5 126t97.5 185.5t33 224.5q0 117 -33 221.5t-97.5 183t-160.5 125.5t-225 47q-127 0 -222.5 -46t-160 -124.5t-97 -184t-32.5 -222.5zM543 1616l190 232h142l-193 -232h-139z" />
<glyph unicode="&#xd4;" horiz-adv-x="1417" d="M41 725q0 143 42 274t126 231.5t208 161t290 60.5t291.5 -60.5t209.5 -161t126 -231.5t42 -274t-42 -276.5t-126 -234.5t-210 -162.5t-291 -61.5q-166 0 -290 61.5t-208 162.5t-126 234.5t-42 276.5zM195 723q0 -117 32.5 -222.5t97 -185t160 -127t222.5 -47.5 q129 0 225 46t160.5 126t97.5 185.5t33 224.5q0 117 -33 221.5t-97.5 183t-160.5 125.5t-225 47q-127 0 -222.5 -46t-160 -124.5t-97 -184t-32.5 -222.5zM436 1616l190 232h162l191 -232h-160l-113 133l-110 -133h-160z" />
<glyph unicode="&#xd5;" horiz-adv-x="1417" d="M41 725q0 143 42 274t126 231.5t208 161t290 60.5t291.5 -60.5t209.5 -161t126 -231.5t42 -274t-42 -276.5t-126 -234.5t-210 -162.5t-291 -61.5q-166 0 -290 61.5t-208 162.5t-126 234.5t-42 276.5zM195 723q0 -117 32.5 -222.5t97 -185t160 -127t222.5 -47.5 q129 0 225 46t160.5 126t97.5 185.5t33 224.5q0 117 -33 221.5t-97.5 183t-160.5 125.5t-225 47q-127 0 -222.5 -46t-160 -124.5t-97 -184t-32.5 -222.5zM379 1753q45 45 89 68t110 23q31 0 66.5 -10.5t82.5 -30.5q45 -20 69.5 -29.5t51.5 -9.5q29 0 55.5 12t75.5 39l59 -86 q-66 -45 -104.5 -62.5t-91.5 -17.5q-37 0 -71 13.5t-65.5 28.5t-63.5 28.5t-66 13.5q-18 0 -30.5 -2t-27 -10.5t-32 -21.5t-48.5 -34z" />
<glyph unicode="&#xd6;" horiz-adv-x="1417" d="M41 725q0 143 42 274t126 231.5t208 161t290 60.5t291.5 -60.5t209.5 -161t126 -231.5t42 -274t-42 -276.5t-126 -234.5t-210 -162.5t-291 -61.5q-166 0 -290 61.5t-208 162.5t-126 234.5t-42 276.5zM195 723q0 -117 32.5 -222.5t97 -185t160 -127t222.5 -47.5 q129 0 225 46t160.5 126t97.5 185.5t33 224.5q0 117 -33 221.5t-97.5 183t-160.5 125.5t-225 47q-127 0 -222.5 -46t-160 -124.5t-97 -184t-32.5 -222.5zM457 1760q0 39 23.5 63.5t62.5 24.5t63.5 -25t24.5 -63q0 -39 -24.5 -62.5t-63.5 -23.5t-62.5 23.5t-23.5 62.5z M787 1760q0 39 23.5 63.5t62.5 24.5t63.5 -25t24.5 -63q0 -39 -24.5 -62.5t-63.5 -23.5t-62.5 23.5t-23.5 62.5z" />
<glyph unicode="&#xd7;" horiz-adv-x="802" d="M41 799l78 80l280 -277l277 281l80 -80l-277 -281l283 -276l-80 -80l-281 276l-278 -280l-80 78l276 282z" />
<glyph unicode="&#xd8;" horiz-adv-x="1417" d="M41 725q0 143 42 274t126 231.5t208 161t290 60.5q94 0 176 -20l63 206h115l-74 -241q4 -2 10 -6q127 -59 211 -160t126 -232t42 -274t-42 -276.5t-126 -234.5t-210 -162.5t-291 -61.5q-78 0 -148 12l-63 -207h-115l74 238q-20 8 -39 18q-123 61 -207 162.5t-126 235 t-42 276.5zM195 723q0 -117 32.5 -222.5t97 -185t158.5 -127.5q8 -4 17 -8l338 1106q-61 14 -131 14q-127 0 -222.5 -46t-160 -124.5t-97 -184t-32.5 -222.5zM604 150q47 -8 103 -9q129 0 225 46t160.5 126t97.5 185.5t33 224.5q0 117 -33 221.5t-98 181.5q-61 76 -152 123z " />
<glyph unicode="&#xd9;" horiz-adv-x="1228" d="M41 471v25v938h152v-940q0 -88 28.5 -153t78.5 -108t117.5 -65.5t143.5 -28.5q10 -2 18.5 -2h18.5h14h4h15h17t18 2q76 6 143.5 28.5t118.5 65.5t79.5 108t28.5 153v940h152v-938v-25q-4 -102 -41 -185t-100.5 -144.5t-148.5 -99.5t-185 -50l-76 -6h-21h-4q-49 0 -98 6 q-100 12 -185 50t-147.5 99.5t-99.5 144.5t-41 185zM449 1848h141l191 -232h-140z" />
<glyph unicode="&#xda;" horiz-adv-x="1228" d="M41 471v25v938h152v-940q0 -88 28.5 -153t78.5 -108t117.5 -65.5t143.5 -28.5q10 -2 18.5 -2h18.5h14h4h15h17t18 2q76 6 143.5 28.5t118.5 65.5t79.5 108t28.5 153v940h152v-938v-25q-4 -102 -41 -185t-100.5 -144.5t-148.5 -99.5t-185 -50l-76 -6h-21h-4q-49 0 -98 6 q-100 12 -185 50t-147.5 99.5t-99.5 144.5t-41 185zM449 1616l190 232h142l-193 -232h-139z" />
<glyph unicode="&#xdb;" horiz-adv-x="1228" d="M41 471v25v938h152v-940q0 -88 28.5 -153t78.5 -108t117.5 -65.5t143.5 -28.5q10 -2 18.5 -2h18.5h14h4h15h17t18 2q76 6 143.5 28.5t118.5 65.5t79.5 108t28.5 153v940h152v-938v-25q-4 -102 -41 -185t-100.5 -144.5t-148.5 -99.5t-185 -50l-76 -6h-21h-4q-49 0 -98 6 q-100 12 -185 50t-147.5 99.5t-99.5 144.5t-41 185zM342 1616l190 232h162l191 -232h-160l-113 133l-110 -133h-160z" />
<glyph unicode="&#xdc;" horiz-adv-x="1228" d="M41 471v25v938h152v-940q0 -88 28.5 -153t78.5 -108t117.5 -65.5t143.5 -28.5q10 -2 18.5 -2h18.5h14h4h15h17t18 2q76 6 143.5 28.5t118.5 65.5t79.5 108t28.5 153v940h152v-938v-25q-4 -102 -41 -185t-100.5 -144.5t-148.5 -99.5t-185 -50l-76 -6h-21h-4q-49 0 -98 6 q-100 12 -185 50t-147.5 99.5t-99.5 144.5t-41 185zM363 1760q0 39 23.5 63.5t62.5 24.5t63.5 -25t24.5 -63q0 -39 -24.5 -62.5t-63.5 -23.5t-62.5 23.5t-23.5 62.5zM693 1760q0 39 23.5 63.5t62.5 24.5t63.5 -25t24.5 -63q0 -39 -24.5 -62.5t-63.5 -23.5t-62.5 23.5 t-23.5 62.5z" />
<glyph unicode="&#xdd;" horiz-adv-x="1251" d="M41 1434h180l404 -576l405 576h180l-508 -750l-2 -684h-151v682zM459 1616l190 232h142l-193 -232h-139z" />
<glyph unicode="&#xde;" horiz-adv-x="974" d="M41 49v1393h143v-436q53 14 106.5 22t108.5 8q102 0 198.5 -29.5t171.5 -93t120 -162t45 -235.5q0 -115 -37 -210t-107.5 -164.5t-171 -108.5t-225.5 -39q-102 0 -209 18v-444h-141v479zM184 150q53 -18 108.5 -25.5t113.5 -7.5q180 0 279 109.5t99 287.5 q0 193 -107.5 296t-289.5 103q-49 0 -101.5 -11t-101.5 -28v-724z" />
<glyph unicode="&#xdf;" horiz-adv-x="872" d="M41 0v999q0 102 14.5 181.5t49 133.5t96 81.5t155.5 27.5q74 0 134.5 -23.5t103.5 -64.5t66.5 -100t23.5 -129q0 -90 -48 -173t-177 -161q158 -45 219 -83t107 -111.5t46 -206.5t-48 -219t-124.5 -137.5t-173 -71t-190.5 -19.5v127q70 0 141.5 17.5t131 55.5t97 100.5 t37.5 152.5q0 94 -51 151.5t-119.5 91t-136 48t-100.5 22.5v131q143 78 198.5 146.5t55.5 144.5q0 51 -18.5 87t-46 58.5t-62.5 32.5t-66 10q-102 0 -143 -62t-41 -214v-1024h-131z" />
<glyph unicode="&#xe0;" horiz-adv-x="917" d="M41 281q0 86 31.5 149.5t86 105.5t126 62t151.5 20q82 0 158 -6t141 -30v84q0 117 -72.5 179t-201.5 62q-82 0 -138.5 -19.5t-111.5 -88.5l-100 86q66 78 149.5 113.5t206.5 35.5q90 0 166 -22.5t130 -67.5t84 -110.5t30 -151.5v-682h-142v109q-31 -41 -68.5 -65 t-79.5 -36t-90 -15t-102 -3q-76 0 -140.5 18.5t-112.5 55t-74.5 91t-26.5 126.5zM182 283q0 -86 64.5 -129t179.5 -43q94 0 175 33.5t134 119.5v180q-63 29 -133 34t-141 5q-51 0 -100.5 -9t-89.5 -31.5t-64.5 -61.5t-24.5 -98zM293 1434h141l191 -232h-140z" />
<glyph unicode="&#xe1;" horiz-adv-x="917" d="M41 281q0 86 31.5 149.5t86 105.5t126 62t151.5 20q82 0 158 -6t141 -30v84q0 117 -72.5 179t-201.5 62q-82 0 -138.5 -19.5t-111.5 -88.5l-100 86q66 78 149.5 113.5t206.5 35.5q90 0 166 -22.5t130 -67.5t84 -110.5t30 -151.5v-682h-142v109q-31 -41 -68.5 -65 t-79.5 -36t-90 -15t-102 -3q-76 0 -140.5 18.5t-112.5 55t-74.5 91t-26.5 126.5zM182 283q0 -86 64.5 -129t179.5 -43q94 0 175 33.5t134 119.5v180q-63 29 -133 34t-141 5q-51 0 -100.5 -9t-89.5 -31.5t-64.5 -61.5t-24.5 -98zM293 1202l190 232h142l-193 -232h-139z" />
<glyph unicode="&#xe2;" horiz-adv-x="917" d="M41 281q0 86 31.5 149.5t86 105.5t126 62t151.5 20q82 0 158 -6t141 -30v84q0 117 -72.5 179t-201.5 62q-82 0 -138.5 -19.5t-111.5 -88.5l-100 86q66 78 149.5 113.5t206.5 35.5q90 0 166 -22.5t130 -67.5t84 -110.5t30 -151.5v-682h-142v109q-31 -41 -68.5 -65 t-79.5 -36t-90 -15t-102 -3q-76 0 -140.5 18.5t-112.5 55t-74.5 91t-26.5 126.5zM182 283q0 -86 64.5 -129t179.5 -43q94 0 175 33.5t134 119.5v180q-63 29 -133 34t-141 5q-51 0 -100.5 -9t-89.5 -31.5t-64.5 -61.5t-24.5 -98zM186 1202l190 232h162l191 -232h-160 l-113 133l-110 -133h-160z" />
<glyph unicode="&#xe3;" horiz-adv-x="917" d="M41 281q0 86 31.5 149.5t86 105.5t126 62t151.5 20q82 0 158 -6t141 -30v84q0 117 -72.5 179t-201.5 62q-82 0 -138.5 -19.5t-111.5 -88.5l-100 86q66 78 149.5 113.5t206.5 35.5q90 0 166 -22.5t130 -67.5t84 -110.5t30 -151.5v-682h-142v109q-31 -41 -68.5 -65 t-79.5 -36t-90 -15t-102 -3q-76 0 -140.5 18.5t-112.5 55t-74.5 91t-26.5 126.5zM129 1339q45 45 89 68t110 23q31 0 66.5 -10.5t82.5 -30.5q45 -20 69.5 -29.5t51.5 -9.5q29 0 55.5 12t75.5 39l59 -86q-66 -45 -104.5 -62.5t-91.5 -17.5q-37 0 -71 13.5t-65.5 28.5 t-63.5 28.5t-66 13.5q-18 0 -30.5 -2t-27 -10.5t-32 -21.5t-48.5 -34zM182 283q0 -86 64.5 -129t179.5 -43q94 0 175 33.5t134 119.5v180q-63 29 -133 34t-141 5q-51 0 -100.5 -9t-89.5 -31.5t-64.5 -61.5t-24.5 -98z" />
<glyph unicode="&#xe4;" horiz-adv-x="917" d="M41 281q0 86 31.5 149.5t86 105.5t126 62t151.5 20q82 0 158 -6t141 -30v84q0 117 -72.5 179t-201.5 62q-82 0 -138.5 -19.5t-111.5 -88.5l-100 86q66 78 149.5 113.5t206.5 35.5q90 0 166 -22.5t130 -67.5t84 -110.5t30 -151.5v-682h-142v109q-31 -41 -68.5 -65 t-79.5 -36t-90 -15t-102 -3q-76 0 -140.5 18.5t-112.5 55t-74.5 91t-26.5 126.5zM182 283q0 -86 64.5 -129t179.5 -43q94 0 175 33.5t134 119.5v180q-63 29 -133 34t-141 5q-51 0 -100.5 -9t-89.5 -31.5t-64.5 -61.5t-24.5 -98zM207 1346q0 39 23.5 63.5t62.5 24.5t63.5 -25 t24.5 -63q0 -39 -24.5 -62.5t-63.5 -23.5t-62.5 23.5t-23.5 62.5zM537 1346q0 39 23.5 63.5t62.5 24.5t63.5 -25t24.5 -63q0 -39 -24.5 -62.5t-63.5 -23.5t-62.5 23.5t-23.5 62.5z" />
<glyph unicode="&#xe5;" horiz-adv-x="917" d="M41 281q0 86 31.5 149.5t86 105.5t126 62t151.5 20q82 0 158 -6t141 -30v84q0 117 -72.5 179t-201.5 62q-82 0 -138.5 -19.5t-111.5 -88.5l-100 86q66 78 149.5 113.5t206.5 35.5q90 0 166 -22.5t130 -67.5t84 -110.5t30 -151.5v-682h-142v109q-31 -41 -68.5 -65 t-79.5 -36t-90 -15t-102 -3q-76 0 -140.5 18.5t-112.5 55t-74.5 91t-26.5 126.5zM182 283q0 -86 64.5 -129t179.5 -43q94 0 175 33.5t134 119.5v180q-63 29 -133 34t-141 5q-51 0 -100.5 -9t-89.5 -31.5t-64.5 -61.5t-24.5 -98zM234 1208q0 92 57.5 150.5t161.5 58.5 t160.5 -60.5t56.5 -148.5q0 -92 -56 -150.5t-161 -58.5q-104 0 -161.5 60.5t-57.5 148.5zM361 1208q0 -39 21.5 -70.5t70.5 -31.5t71.5 30.5t22.5 71.5q0 43 -22.5 74t-71.5 31t-70.5 -31t-21.5 -74z" />
<glyph unicode="&#xe6;" horiz-adv-x="1691" d="M41 281q0 86 31.5 149.5t86 105.5t126 62t151.5 20q82 0 158 -6t141 -30v84q0 117 -72.5 179t-201.5 62q-82 0 -138.5 -19.5t-111.5 -88.5l-100 86q66 78 149.5 113.5t206.5 35.5q90 0 166 -22.5t129 -67.5q43 -35 69 -84q18 25 39 45q63 66 147.5 97.5t178.5 31.5 q225 0 340 -138t111 -402h-768q6 -174 100 -276.5t256 -102.5q90 0 164 29.5t133 95.5l86 -90q-72 -78 -166 -118t-227 -40q-123 0 -215 41q-78 35 -133 92v-125h-142v109q-31 -41 -68.5 -65t-79.5 -36t-90 -15t-102 -3q-76 0 -140.5 18.5t-112.5 55t-74.5 91t-26.5 126.5z M182 283q0 -86 64.5 -129t179.5 -43q94 0 175 33.5t134 119.5v180q-63 29 -133 34t-141 5q-51 0 -100.5 -9t-89.5 -31.5t-64.5 -61.5t-24.5 -98zM883 614h620q0 63 -19.5 118.5t-55 94.5t-93 62.5t-133.5 23.5q-78 0 -134 -23.5t-89 -60t-60.5 -93t-35.5 -122.5z" />
<glyph unicode="&#xe7;" horiz-adv-x="950" d="M41 516q0 111 30.5 205t90 164.5t149.5 110.5t207 40q127 0 220 -44t161 -120l-94 -94q-53 61 -123 98t-160 37q-92 0 -155.5 -31.5t-103.5 -85t-58.5 -125t-18.5 -151.5q0 -76 19.5 -148.5t60.5 -129t106.5 -91t155.5 -34.5q84 0 161 31.5t136 99.5l84 -90 q-72 -76 -164 -120t-225 -44q-125 0 -216 44t-149.5 116.5t-86 167t-27.5 194.5zM221 -303l35 92q23 -12 50.5 -22.5t61.5 -10.5q57 0 97.5 34t40.5 114q0 53 -17 119h99q8 -27 13 -60t5 -67q0 -113 -63.5 -175.5t-172.5 -62.5q-41 0 -77.5 11.5t-71.5 27.5z" />
<glyph unicode="&#xe8;" horiz-adv-x="999" d="M41 506q0 135 37 234.5t100.5 165t147.5 97t178 31.5q225 0 339.5 -138t110.5 -402h-768q6 -174 100.5 -276.5t256.5 -102.5q90 0 163.5 29.5t133.5 95.5l86 -90q-72 -78 -166 -118t-228 -40q-123 0 -215 42t-153.5 113.5t-92 163.5t-30.5 195zM190 614h621 q0 63 -19.5 118.5t-55.5 94.5t-93 62.5t-133 23.5q-78 0 -134.5 -23.5t-89 -60t-60 -93t-36.5 -122.5zM334 1434h141l191 -232h-140z" />
<glyph unicode="&#xe9;" horiz-adv-x="999" d="M41 506q0 135 37 234.5t100.5 165t147.5 97t178 31.5q225 0 339.5 -138t110.5 -402h-768q6 -174 100.5 -276.5t256.5 -102.5q90 0 163.5 29.5t133.5 95.5l86 -90q-72 -78 -166 -118t-228 -40q-123 0 -215 42t-153.5 113.5t-92 163.5t-30.5 195zM190 614h621 q0 63 -19.5 118.5t-55.5 94.5t-93 62.5t-133 23.5q-78 0 -134.5 -23.5t-89 -60t-60 -93t-36.5 -122.5zM334 1202l190 232h142l-193 -232h-139z" />
<glyph unicode="&#xea;" horiz-adv-x="999" d="M41 506q0 135 37 234.5t100.5 165t147.5 97t178 31.5q225 0 339.5 -138t110.5 -402h-768q6 -174 100.5 -276.5t256.5 -102.5q90 0 163.5 29.5t133.5 95.5l86 -90q-72 -78 -166 -118t-228 -40q-123 0 -215 42t-153.5 113.5t-92 163.5t-30.5 195zM190 614h621 q0 63 -19.5 118.5t-55.5 94.5t-93 62.5t-133 23.5q-78 0 -134.5 -23.5t-89 -60t-60 -93t-36.5 -122.5zM227 1202l190 232h162l191 -232h-160l-113 133l-110 -133h-160z" />
<glyph unicode="&#xeb;" horiz-adv-x="999" d="M41 506q0 135 37 234.5t100.5 165t147.5 97t178 31.5q225 0 339.5 -138t110.5 -402h-768q6 -174 100.5 -276.5t256.5 -102.5q90 0 163.5 29.5t133.5 95.5l86 -90q-72 -78 -166 -118t-228 -40q-123 0 -215 42t-153.5 113.5t-92 163.5t-30.5 195zM190 614h621 q0 63 -19.5 118.5t-55.5 94.5t-93 62.5t-133 23.5q-78 0 -134.5 -23.5t-89 -60t-60 -93t-36.5 -122.5zM248 1346q0 39 23.5 63.5t62.5 24.5t63.5 -25t24.5 -63q0 -39 -24.5 -62.5t-63.5 -23.5t-62.5 23.5t-23.5 62.5zM578 1346q0 39 23.5 63.5t62.5 24.5t63.5 -25t24.5 -63 q0 -39 -24.5 -62.5t-63.5 -23.5t-62.5 23.5t-23.5 62.5z" />
<glyph unicode="&#xec;" horiz-adv-x="256" d="M-37 1434h141l191 -232h-139zM57 0v1024h144v-1024h-144z" />
<glyph unicode="&#xed;" horiz-adv-x="256" d="M-37 1202l191 232h141l-193 -232h-139zM57 0v1024h144v-1024h-144z" />
<glyph unicode="&#xee;" horiz-adv-x="256" d="M-143 1202l190 232h162l190 -232h-159l-113 133l-111 -133h-159zM57 0v1024h144v-1024h-144z" />
<glyph unicode="&#xef;" horiz-adv-x="256" d="M-123 1346q0 39 23.5 63.5t62.5 24.5t63.5 -25t24.5 -63q0 -39 -24.5 -62.5t-63.5 -23.5t-62.5 23.5t-23.5 62.5zM57 0v1024h144v-1024h-144zM207 1346q0 39 23.5 63.5t62.5 24.5t63.5 -25t24.5 -63q0 -39 -24.5 -62.5t-63.5 -23.5t-62.5 23.5t-23.5 62.5z" />
<glyph unicode="&#xf1;" horiz-adv-x="940" d="M41 0v1026h143v-139q49 66 133 111.5t205 45.5q78 0 146.5 -23.5t120 -68.5t81 -112.5t29.5 -155.5v-684h-141v655q0 129 -77 193.5t-189 64.5q-59 0 -107.5 -23.5t-86.5 -59t-65.5 -76.5t-48.5 -76v-678h-143zM139 1339q45 45 89 68t110 23q31 0 66.5 -10.5t82.5 -30.5 q45 -20 69.5 -29.5t51.5 -9.5q29 0 55.5 12t75.5 39l59 -86q-66 -45 -104.5 -62.5t-91.5 -17.5q-37 0 -71 13.5t-65.5 28.5t-63.5 28.5t-66 13.5q-18 0 -30.5 -2t-27 -10.5t-32 -21.5t-48.5 -34z" />
<glyph unicode="&#xf2;" horiz-adv-x="1038" d="M41 512q0 111 29.5 206t89 165.5t148.5 110.5t210 40t211 -41t149.5 -112.5t89 -167.5t29.5 -207t-29.5 -206t-89 -166t-149.5 -110.5t-211 -39.5t-210 42t-148.5 113.5t-89 167.5t-29.5 205zM193 510q0 -86 18 -162t57 -131t100.5 -87t149.5 -32t150.5 31t101.5 86 t57.5 130t18.5 163t-18.5 162.5t-57.5 130t-101.5 87.5t-150.5 32t-149.5 -31t-100.5 -85t-57 -130t-18 -164zM352 1434h141l191 -232h-140z" />
<glyph unicode="&#xf3;" horiz-adv-x="1038" d="M41 512q0 111 29.5 206t89 165.5t148.5 110.5t210 40t211 -41t149.5 -112.5t89 -167.5t29.5 -207t-29.5 -206t-89 -166t-149.5 -110.5t-211 -39.5t-210 42t-148.5 113.5t-89 167.5t-29.5 205zM193 510q0 -86 18 -162t57 -131t100.5 -87t149.5 -32t150.5 31t101.5 86 t57.5 130t18.5 163t-18.5 162.5t-57.5 130t-101.5 87.5t-150.5 32t-149.5 -31t-100.5 -85t-57 -130t-18 -164zM352 1202l190 232h142l-193 -232h-139z" />
<glyph unicode="&#xf4;" horiz-adv-x="1038" d="M41 512q0 111 29.5 206t89 165.5t148.5 110.5t210 40t211 -41t149.5 -112.5t89 -167.5t29.5 -207t-29.5 -206t-89 -166t-149.5 -110.5t-211 -39.5t-210 42t-148.5 113.5t-89 167.5t-29.5 205zM193 510q0 -86 18 -162t57 -131t100.5 -87t149.5 -32t150.5 31t101.5 86 t57.5 130t18.5 163t-18.5 162.5t-57.5 130t-101.5 87.5t-150.5 32t-149.5 -31t-100.5 -85t-57 -130t-18 -164zM248 1202l190 232h162l191 -232h-160l-113 133l-110 -133h-160z" />
<glyph unicode="&#xf5;" horiz-adv-x="1038" d="M41 512q0 111 29.5 206t89 165.5t148.5 110.5t210 40t211 -41t149.5 -112.5t89 -167.5t29.5 -207t-29.5 -206t-89 -166t-149.5 -110.5t-211 -39.5t-210 42t-148.5 113.5t-89 167.5t-29.5 205zM188 1339q45 45 89 68t110 23q31 0 66.5 -10.5t82.5 -30.5q45 -20 69.5 -29.5 t51.5 -9.5q29 0 55.5 12t75.5 39l59 -86q-66 -45 -104.5 -62.5t-91.5 -17.5q-37 0 -71 13.5t-65.5 28.5t-63.5 28.5t-66 13.5q-18 0 -30.5 -2t-27 -10.5t-32 -21.5t-48.5 -34zM193 510q0 -86 18 -162t57 -131t100.5 -87t149.5 -32t150.5 31t101.5 86t57.5 130t18.5 163 t-18.5 162.5t-57.5 130t-101.5 87.5t-150.5 32t-149.5 -31t-100.5 -85t-57 -130t-18 -164z" />
<glyph unicode="&#xf6;" horiz-adv-x="1038" d="M41 512q0 111 29.5 206t89 165.5t148.5 110.5t210 40t211 -41t149.5 -112.5t89 -167.5t29.5 -207t-29.5 -206t-89 -166t-149.5 -110.5t-211 -39.5t-210 42t-148.5 113.5t-89 167.5t-29.5 205zM193 510q0 -86 18 -162t57 -131t100.5 -87t149.5 -32t150.5 31t101.5 86 t57.5 130t18.5 163t-18.5 162.5t-57.5 130t-101.5 87.5t-150.5 32t-149.5 -31t-100.5 -85t-57 -130t-18 -164zM266 1346q0 39 23.5 63.5t62.5 24.5t63.5 -25t24.5 -63q0 -39 -24.5 -62.5t-63.5 -23.5t-62.5 23.5t-23.5 62.5zM596 1346q0 39 23.5 63.5t62.5 24.5t63.5 -25 t24.5 -63q0 -39 -24.5 -62.5t-63.5 -23.5t-62.5 23.5t-23.5 62.5z" />
<glyph unicode="&#xf7;" horiz-adv-x="280" d="M41 98q0 43 27.5 72t70.5 29t72 -29t29 -72t-29 -70.5t-72 -27.5t-70.5 27.5t-27.5 70.5zM41 922q0 43 27.5 71.5t70.5 28.5t72 -28.5t29 -71.5t-29 -71t-72 -28t-70.5 28t-27.5 71z" />
<glyph unicode="&#xf8;" horiz-adv-x="1038" d="M41 512q0 111 29.5 206t89 165.5t148.5 110.5t210 40q70 0 135 -16l82 211h117l-96 -250q123 -66 182 -190.5t59 -282.5q0 -111 -29.5 -206t-89 -166t-149.5 -110.5t-211 -39.5q-39 0 -72.5 4t-66.5 12l-78 -205h-117l95 246q-121 66 -179.5 190.5t-58.5 280.5zM193 510 q0 -115 30.5 -207t100.5 -145l288 749q-43 12 -94 13q-88 0 -149.5 -31t-100.5 -85t-57 -130t-18 -164zM422 109q23 -6 45 -8.5t51 -2.5q88 0 150.5 31t101.5 86t57.5 130t18.5 163q0 117 -32 209t-103 145z" />
<glyph unicode="&#xf9;" horiz-adv-x="966" d="M41 344v680h143v-651q0 -66 22.5 -114t61.5 -81t90.5 -49t108.5 -16q123 0 197.5 49t115.5 119v743h146v-1024h-138v115q-104 -129 -356 -129q-82 0 -152.5 22.5t-124 67.5t-84 112.5t-30.5 155.5zM317 1434h141l191 -232h-140z" />
<glyph unicode="&#xfa;" horiz-adv-x="966" d="M41 344v680h143v-651q0 -66 22.5 -114t61.5 -81t90.5 -49t108.5 -16q123 0 197.5 49t115.5 119v743h146v-1024h-138v115q-104 -129 -356 -129q-82 0 -152.5 22.5t-124 67.5t-84 112.5t-30.5 155.5zM317 1202l190 232h142l-193 -232h-139z" />
<glyph unicode="&#xfb;" horiz-adv-x="966" d="M41 344v680h143v-651q0 -66 22.5 -114t61.5 -81t90.5 -49t108.5 -16q123 0 197.5 49t115.5 119v743h146v-1024h-138v115q-104 -129 -356 -129q-82 0 -152.5 22.5t-124 67.5t-84 112.5t-30.5 155.5zM211 1202l190 232h162l191 -232h-160l-113 133l-110 -133h-160z" />
<glyph unicode="&#xfc;" horiz-adv-x="966" d="M41 344v680h143v-651q0 -66 22.5 -114t61.5 -81t90.5 -49t108.5 -16q123 0 197.5 49t115.5 119v743h146v-1024h-138v115q-104 -129 -356 -129q-82 0 -152.5 22.5t-124 67.5t-84 112.5t-30.5 155.5zM231 1346q0 39 23.5 63.5t62.5 24.5t63.5 -25t24.5 -63 q0 -39 -24.5 -62.5t-63.5 -23.5t-62.5 23.5t-23.5 62.5zM561 1346q0 39 23.5 63.5t62.5 24.5t63.5 -25t24.5 -63q0 -39 -24.5 -62.5t-63.5 -23.5t-62.5 23.5t-23.5 62.5z" />
<glyph unicode="&#xfd;" horiz-adv-x="1079" d="M41 1024h162l342 -860l340 860h153l-426 -1040l-37 -99q-18 -59 -53 -112.5t-86 -94t-115.5 -67.5t-140.5 -35l-30 123q43 8 98 26.5t105 52.5t84 84t34 122zM373 1202l190 232h142l-193 -232h-139z" />
<glyph unicode="&#xfe;" horiz-adv-x="974" d="M41 49v1487h143v-530q53 14 106.5 22t108.5 8q102 0 198.5 -29.5t171.5 -93t120 -162t45 -235.5q0 -115 -37 -210t-107.5 -164.5t-171 -108.5t-225.5 -39q-102 0 -209 18v-444h-141v479zM184 150q53 -18 108.5 -25.5t113.5 -7.5q180 0 279 109.5t99 287.5 q0 193 -107.5 296t-289.5 103q-49 0 -101.5 -11t-101.5 -28v-724z" />
<glyph unicode="&#xff;" horiz-adv-x="1079" d="M41 1024h162l342 -860l340 860h153l-426 -1040l-37 -99q-18 -59 -53 -112.5t-86 -94t-115.5 -67.5t-140.5 -35l-30 123q43 8 98 26.5t105 52.5t84 84t34 122zM287 1346q0 39 23.5 63.5t62.5 24.5t63.5 -25t24.5 -63q0 -39 -24.5 -62.5t-63.5 -23.5t-62.5 23.5t-23.5 62.5 zM617 1346q0 39 23.5 63.5t62.5 24.5t63.5 -25t24.5 -63q0 -39 -24.5 -62.5t-63.5 -23.5t-62.5 23.5t-23.5 62.5z" />
<glyph unicode="&#x152;" horiz-adv-x="1740" d="M41 715q0 147 43 278t129 228.5t215 155t299 57.5h930v-136h-680v-479h616v-133h-616v-551h723v-135h-973q-176 0 -305 57.5t-214 154.5t-126 227t-41 276zM195 717q0 -133 37.5 -241.5t108.5 -185.5t171 -118t225 -41h90v1172h-90q-135 0 -236.5 -44.5t-169 -122 t-102 -185t-34.5 -234.5z" />
<glyph unicode="&#x153;" horiz-adv-x="1679" d="M41 483q0 100 27.5 189.5t83 154t138.5 102.5t193 38q135 0 226.5 -56.5t142.5 -150.5q55 104 149.5 155.5t210.5 51.5q209 0 317.5 -128t108.5 -372h-718q2 -80 25.5 -145.5t66.5 -113.5t103.5 -73.5t133.5 -25.5q164 0 275 122l80 -84q-66 -72 -154 -112.5t-211 -40.5 q-141 0 -235.5 58.5t-147.5 150.5q-49 -96 -141 -152.5t-232 -56.5q-111 0 -193.5 39t-138 104.5t-83 154.5t-27.5 191zM180 481q0 -80 16.5 -149.5t53.5 -120.5t94 -81t139 -30t139.5 28t94.5 78t53 119.5t16 151.5t-16 151.5t-53 121t-94.5 81t-139.5 29.5t-139 -28.5 t-94 -79t-53.5 -120t-16.5 -151.5zM924 573h573q0 59 -18.5 111.5t-54 91.5t-89 61.5t-123.5 22.5q-72 0 -122 -21.5t-84.5 -60.5t-54 -91t-27.5 -114z" />
<glyph unicode="&#x178;" horiz-adv-x="1251" d="M41 1434h180l404 -576l405 576h180l-508 -750l-2 -684h-151v682zM373 1760q0 39 23.5 63.5t62.5 24.5t63.5 -25t24.5 -63q0 -39 -24.5 -62.5t-63.5 -23.5t-62.5 23.5t-23.5 62.5zM703 1760q0 39 23.5 63.5t62.5 24.5t63.5 -25t24.5 -63q0 -39 -24.5 -62.5t-63.5 -23.5 t-62.5 23.5t-23.5 62.5z" />
<glyph unicode="&#x2c6;" horiz-adv-x="624" d="M41 1202l190 232h162l191 -232h-160l-113 133l-110 -133h-160z" />
<glyph unicode="&#x2dc;" horiz-adv-x="741" d="M41 1339q45 45 89 68t110 23q31 0 66.5 -10.5t82.5 -30.5q45 -20 69.5 -29.5t51.5 -9.5q29 0 55.5 12t75.5 39l59 -86q-66 -45 -104.5 -62.5t-91.5 -17.5q-37 0 -71 13.5t-65.5 28.5t-63.5 28.5t-66 13.5q-18 0 -30.5 -2t-27 -10.5t-32 -21.5t-48.5 -34z" />
<glyph unicode="&#x2000;" horiz-adv-x="924" />
<glyph unicode="&#x2001;" horiz-adv-x="1848" />
<glyph unicode="&#x2002;" horiz-adv-x="924" />
<glyph unicode="&#x2003;" horiz-adv-x="1848" />
<glyph unicode="&#x2004;" horiz-adv-x="616" />
<glyph unicode="&#x2005;" horiz-adv-x="462" />
<glyph unicode="&#x2006;" horiz-adv-x="308" />
<glyph unicode="&#x2007;" horiz-adv-x="308" />
<glyph unicode="&#x2008;" horiz-adv-x="231" />
<glyph unicode="&#x2009;" horiz-adv-x="369" />
<glyph unicode="&#x200a;" horiz-adv-x="102" />
<glyph unicode="&#x2010;" horiz-adv-x="491" d="M41 455v120h410v-120h-410z" />
<glyph unicode="&#x2011;" horiz-adv-x="491" d="M41 455v120h410v-120h-410z" />
<glyph unicode="&#x2012;" horiz-adv-x="491" d="M41 455v120h410v-120h-410z" />
<glyph unicode="&#x2013;" horiz-adv-x="1024" d="M41 420v112h942v-112h-942z" />
<glyph unicode="&#x2014;" horiz-adv-x="1474" d="M41 420v112h1393v-112h-1393z" />
<glyph unicode="&#x2018;" horiz-adv-x="325" d="M41 1024l121 410h123l-113 -410h-131z" />
<glyph unicode="&#x2019;" horiz-adv-x="325" d="M41 1024l121 410h123l-113 -410h-131z" />
<glyph unicode="&#x201a;" horiz-adv-x="348" d="M41 -98l139 301h127l-157 -301h-109z" />
<glyph unicode="&#x201c;" horiz-adv-x="585" d="M41 1024l121 410h123l-113 -410h-131zM301 1024l121 410h123l-113 -410h-131z" />
<glyph unicode="&#x201d;" horiz-adv-x="585" d="M41 1024l121 410h123l-113 -410h-131zM301 1024l121 410h123l-113 -410h-131z" />
<glyph unicode="&#x201e;" horiz-adv-x="600" d="M41 -98l139 301h127l-157 -301h-109zM293 -98l139 301h127l-158 -301h-108z" />
<glyph unicode="&#x2022;" horiz-adv-x="462" d="M41 475q0 84 52 138.5t136 54.5t138.5 -54.5t54.5 -138.5t-54.5 -136t-138.5 -52t-136 52t-52 136z" />
<glyph unicode="&#x2026;" horiz-adv-x="1050" d="M41 94q0 41 26.5 68.5t67.5 27.5t68.5 -27.5t27.5 -68.5t-27.5 -67.5t-68.5 -26.5t-67.5 26.5t-26.5 67.5zM430 94q0 41 26.5 68.5t67.5 27.5t69 -27.5t28 -68.5t-28 -67.5t-69 -26.5t-67.5 26.5t-26.5 67.5zM819 94q0 41 26.5 68.5t67.5 27.5t69 -27.5t28 -68.5 t-28 -67.5t-69 -26.5t-67.5 26.5t-26.5 67.5z" />
<glyph unicode="&#x202f;" horiz-adv-x="369" />
<glyph unicode="&#x2039;" horiz-adv-x="489" d="M41 477l281 338h127l-269 -338l269 -338h-127z" />
<glyph unicode="&#x203a;" horiz-adv-x="479" d="M41 139l248 338l-248 338h117l280 -338l-280 -338h-117z" />
<glyph unicode="&#x205f;" horiz-adv-x="462" />
<glyph unicode="&#x20ac;" horiz-adv-x="1075" d="M41 401v121h162q-2 20 -2 49v52q0 27 1 46t5 46h-166v119h186q20 82 57.5 155.5t91.5 130t124.5 89t156.5 32.5q123 0 215.5 -61.5t161.5 -159.5l-100 -105q-59 92 -127 144.5t-145 52.5q-55 0 -100.5 -23.5t-81.5 -61.5t-62.5 -88t-44.5 -105h362v-119h-391 q-4 -27 -5 -46.5t-1 -45.5q0 -23 1 -51.5t3 -49.5h393v-121h-370q16 -57 42.5 -108t63.5 -89t84 -60.5t107 -22.5q78 0 145 46t127 136l100 -102q-70 -98 -162 -154.5t-215 -56.5q-90 0 -161.5 31.5t-126 88t-91 131t-55.5 160.5h-182z" />
<glyph unicode="&#x2122;" horiz-adv-x="1660" d="M41 1298v136h608v-136h-225v-878h-154v878h-229zM723 424v1010h131l317 -586l322 586h127v-1010h-152v696l-297 -559l-297 547v-684h-151z" />
<glyph unicode="&#x25fc;" horiz-adv-x="1024" d="M0 0v1024h1024v-1024h-1024z" />
</font>
</defs>
</svg>
