<?xml version="1.0" standalone="no"?>
<!DOCTYPE svg PUBLIC "-//W3C//DTD SVG 1.1//EN" "http://www.w3.org/Graphics/SVG/1.1/DTD/svg11.dtd" >
<svg xmlns="http://www.w3.org/2000/svg">
<metadata></metadata>
<defs>
<font id="berlin_xboldxbold" horiz-adv-x="1361" >
<font-face units-per-em="2048" ascent="1536" descent="-512" />
<missing-glyph horiz-adv-x="614" />
<glyph horiz-adv-x="2048" />
<glyph horiz-adv-x="2048" />
<glyph unicode="&#xd;" horiz-adv-x="614" />
<glyph unicode=" "  horiz-adv-x="614" />
<glyph unicode="&#x09;" horiz-adv-x="614" />
<glyph unicode="&#xa0;" horiz-adv-x="614" />
<glyph unicode="!" horiz-adv-x="385" d="M41 147q0 70 42 112t110 42q66 0 108.5 -42t42.5 -112q0 -66 -43 -106.5t-108 -40.5q-68 0 -110 40.5t-42 106.5zM49 403v1029h287v-1029h-287z" />
<glyph unicode="&#x22;" horiz-adv-x="634" d="M41 1436h256l-21 -576h-219zM334 1436h260l-19 -576h-219z" />
<glyph unicode="#" horiz-adv-x="956" d="M41 223v244h168l16 84h-184v244h238l43 219h243l-41 -219h29l41 219h250l-47 -219h118v-244h-167l-17 -84h184v-244h-231l-45 -223h-250l47 223h-22l-47 -223h-250l41 223h-117zM451 467h34l21 84h-31l-18 -80q0 -2 -4 -2q-2 0 -2 -2z" />
<glyph unicode="$" horiz-adv-x="1079" d="M41 377l205 196q51 -61 95 -104t87 -59v221q-61 18 -116.5 42.5t-97.5 63.5t-67.5 96.5t-25.5 141.5q0 57 15.5 112.5t51 101.5t95 78.5t145.5 47.5v182h262v-182q186 -39 348 -240l-209 -178q-78 106 -139 139v-194q61 -18 119.5 -45t102.5 -68t72 -99.5t28 -142.5 q0 -141 -88 -231t-234 -119v-190h-262v186q-104 14 -197.5 73.5t-189.5 170.5zM401 989q0 -33 27 -57v106q-27 -18 -27 -49zM690 412q23 10 32 23.5t9 33.5q0 45 -41 76v-133z" />
<glyph unicode="%" horiz-adv-x="1097" d="M41 0l731 1434h285l-729 -1434h-287zM55 1208q0 104 69 174t185 70q125 0 189.5 -70t64.5 -174q0 -102 -64.5 -172.5t-189.5 -70.5q-59 0 -105 19.5t-80 52t-51.5 77.5t-17.5 94zM291 1208q0 -10 4 -17t14 -7q12 0 17.5 7t5.5 17q0 12 -5 21.5t-18 9.5q-10 0 -14 -9 t-4 -22zM532 244q0 104 68 176t186 72q61 0 108.5 -19.5t80.5 -53.5t49 -79t16 -96q0 -49 -16 -94.5t-49 -78t-80 -52t-109 -19.5q-59 0 -106 19.5t-80 53t-50.5 78t-17.5 93.5zM768 244q0 -10 4 -17.5t14 -7.5t15.5 7.5t5.5 17.5q0 31 -21 30q-18 0 -18 -30z" />
<glyph unicode="&#x26;" horiz-adv-x="1230" d="M41 434q0 123 65.5 217t192.5 180q-47 70 -73.5 135.5t-26.5 116.5q0 150 110 254q51 45 119 72t145 27q78 0 139.5 -26t110.5 -73q102 -102 103 -245q0 -104 -54.5 -178t-154.5 -146l61 -82q12 -16 20.5 -25.5t14.5 -17.5t14.5 -17.5t20.5 -27.5q6 29 10 66.5t8 85.5 h281q-16 -137 -36.5 -235.5t-59.5 -176.5l139 -182l-223 -191l-107 137q-154 -111 -362 -110q-195 0 -328 127q-129 129 -129 315zM334 444q0 -74 47 -127q49 -53 121 -53q106 0 192 62l-231 295q-66 -45 -97.5 -85t-31.5 -92zM481 1098q0 -16 16.5 -46t45.5 -69l8 -8 q41 27 66.5 55.5t25.5 59.5q0 39 -23.5 61.5t-56.5 22.5q-35 0 -58.5 -22t-23.5 -54z" />
<glyph unicode="'" horiz-adv-x="335" d="M41 1436h254l-16 -576h-226z" />
<glyph unicode="(" horiz-adv-x="700" d="M41 719q0 147 28.5 270t74.5 227.5t104.5 191.5t116.5 159h294q-76 -96 -142 -196.5t-115.5 -207t-77 -217t-27.5 -227.5t27.5 -227.5t77 -216t116 -207t141.5 -197.5h-294q-57 74 -116 160t-105 190.5t-74.5 227t-28.5 270.5z" />
<glyph unicode=")" horiz-adv-x="700" d="M41 -129q76 96 142.5 197.5t115.5 207t76.5 216t27.5 227.5t-27.5 227.5t-76.5 217t-115.5 206.5t-142.5 197h295q57 -72 115.5 -159t104.5 -191.5t74.5 -227.5t28.5 -270t-28.5 -270t-74.5 -227.5t-104.5 -190.5t-115.5 -160h-295z" />
<glyph unicode="*" horiz-adv-x="849" d="M41 1073l72 213l194 -65v215h234l2 -213l200 61l66 -215l-193 -74q16 -18 28.5 -34.5t25.5 -34.5l73 -99l-182 -137l-135 172l-133 -166l-182 127l120 178q-47 16 -98 37t-92 35z" />
<glyph unicode="+" horiz-adv-x="1001" d="M41 395v242h336v340h244v-340h340v-242h-340v-336h-244v336h-336z" />
<glyph unicode="," horiz-adv-x="495" d="M41 -254l152 576h262l-160 -576h-254z" />
<glyph unicode="-" horiz-adv-x="579" d="M41 391v248h498v-248h-498z" />
<glyph unicode="." horiz-adv-x="397" d="M41 158q0 66 43 112.5t115 46.5q66 0 111.5 -47t45.5 -112q0 -72 -46 -115t-111 -43q-72 0 -115 43t-43 115z" />
<glyph unicode="/" horiz-adv-x="866" d="M41 0l526 1436h258l-528 -1436h-256z" />
<glyph unicode="0" horiz-adv-x="1136" d="M41 698q0 162 39 295t109.5 226.5t167 144.5t212.5 51q117 0 213.5 -51t166 -144.5t108.5 -226.5t39 -295q0 -166 -39 -298t-108.5 -224t-166 -141t-213.5 -49t-213 49t-166.5 141t-109.5 224t-39 298zM305 698q0 -104 19.5 -188t55.5 -143.5t84 -91t105 -31.5 q55 0 101.5 31.5t81 91t54 143.5t19.5 188q0 211 -72.5 330t-183.5 119q-115 0 -189.5 -119t-74.5 -330z" />
<glyph unicode="1" horiz-adv-x="350" d="M41 0v1350l268 98v-1448h-268z" />
<glyph unicode="2" horiz-adv-x="1050" d="M41 1147q74 139 194.5 222t262.5 83q109 0 195.5 -35t148 -96t94.5 -146t33 -188q0 -68 -24.5 -135.5t-62.5 -128.5t-83 -116.5t-86 -100.5l-178 -191l-35 -43h510v-272h-934v244l409 428q31 35 66 75.5t64.5 82.5t49 84t19.5 79t-12.5 72t-36 62.5t-58 44t-79.5 16.5 q-35 0 -73 -11.5t-74 -36t-66.5 -61.5t-46.5 -88z" />
<glyph unicode="3" horiz-adv-x="1046" d="M41 213l217 184q63 -84 127 -118.5t123 -34.5q104 0 163.5 55t59.5 135q0 86 -75.5 139.5t-211.5 53.5h-114v268h119q98 0 161.5 37t63.5 108q0 55 -49.5 91t-122.5 36q-70 0 -125 -33.5t-115 -105.5l-211 174q106 113 210 167t241 54q94 0 176 -23.5t142.5 -71.5 t95 -119.5t34.5 -166.5q0 -82 -29.5 -148.5t-82.5 -113.5q76 -51 122 -142t46 -204q0 -104 -40 -187t-109 -140.5t-159 -88t-190 -30.5q-131 0 -239.5 53t-227.5 172z" />
<glyph unicode="4" horiz-adv-x="1050" d="M41 348v193l639 893h221v-813h109v-273h-109v-346h-270v346h-590zM389 621h242v155v39t-1 27.5t-1 31v48.5q-72 -90 -134.5 -168t-105.5 -133z" />
<glyph unicode="5" horiz-adv-x="1060" d="M41 217l211 189q61 -82 130 -113t130 -31q49 0 93 24.5t76 62.5t51.5 85t19.5 94q0 109 -81 173.5t-212 64.5q-23 0 -60 -4t-81 -12.5t-92 -18.5t-95 -24l72 729h712v-271h-477v-14q-2 -18 -2 -30.5v-23t-2 -25.5t-4 -40h55q106 0 203.5 -29.5t171.5 -91t117 -154.5 t43 -220q0 -94 -38 -191.5t-105.5 -175.5t-160.5 -128t-204 -50q-133 0 -243.5 56t-227.5 169z" />
<glyph unicode="6" horiz-adv-x="1048" d="M41 551q0 135 43 275.5t137 263t244.5 215t365.5 131.5l76 -242q-94 -23 -171 -55.5t-137 -71.5t-106.5 -82t-76.5 -86q33 8 76 12t83 4q82 0 161 -31.5t138.5 -90t96.5 -141.5t37 -187q0 -102 -34 -189.5t-96.5 -152t-150.5 -100t-197 -35.5q-117 0 -208 45 t-153.5 121.5t-95 179t-32.5 217.5zM315 524q0 -55 15.5 -104t43 -88t68.5 -61.5t95 -22.5q94 0 147 58.5t53 150.5q0 90 -52 141t-130 51q-135 0 -236 -94q-4 -21 -4 -31z" />
<glyph unicode="7" horiz-adv-x="950" d="M41 1163v271h868v-189l-213 -395q-47 -90 -95 -189.5t-86 -196.5t-61.5 -186.5t-23.5 -158.5v-119h-266v117q0 96 15.5 184t48 181t81.5 195.5t117 225.5v-2q6 14 15.5 29.5t24.5 43t39.5 73t61.5 116.5h-526z" />
<glyph unicode="8" horiz-adv-x="1081" d="M41 440q0 113 46 211.5t120 149.5q-51 47 -82 113.5t-31 148.5q0 94 35 165.5t96.5 120t143.5 72t176 23.5h8q74 0 133 -19h-2q135 -35 218 -125t83 -237q0 -82 -30.5 -148.5t-82.5 -113.5q74 -51 121 -149.5t47 -211.5q0 -94 -32.5 -172t-89 -136t-133 -94t-162.5 -44 h-166q-86 8 -162 44t-132.5 94t-89 136t-32.5 172zM319 440q0 -41 20.5 -75.5t51.5 -61.5t70 -41t76 -14q39 0 78.5 13t72.5 39t52.5 61.5t19.5 78.5q0 74 -58.5 133.5t-162.5 69.5q-104 -8 -162 -67.5t-58 -135.5zM369 1061q0 -59 51 -96t125 -45q66 10 116 47t50 94 q0 53 -51.5 87t-122.5 34h-2q-70 -4 -118 -36t-48 -85z" />
<glyph unicode="9" horiz-adv-x="1048" d="M41 963q0 102 34 189t96 151.5t150.5 100.5t196.5 36q117 0 208 -45t153.5 -122t95.5 -179.5t33 -219.5q0 -135 -43 -277t-137.5 -266t-245 -219.5t-365.5 -134.5l-74 240q92 20 168 56t136.5 79t106.5 88t79 88q-35 -8 -74 -12t-84 -4q-84 0 -161.5 30.5t-138 89 t-97.5 142.5t-37 189zM311 969q0 -90 52.5 -139.5t130.5 -49.5q135 0 235 90q2 10 3 18.5t1 12.5q0 55 -15.5 106.5t-44 89.5t-69.5 61.5t-92 23.5q-94 0 -147.5 -60.5t-53.5 -152.5z" />
<glyph unicode=":" horiz-adv-x="397" d="M41 158q0 66 43 112.5t115 46.5q66 0 111.5 -47t45.5 -112q0 -72 -46 -115t-111 -43q-72 0 -115 43t-43 115zM41 862q0 68 43 114t115 46q66 0 111.5 -46t45.5 -114q0 -70 -46 -113.5t-111 -43.5q-72 0 -115 43.5t-43 113.5z" />
<glyph unicode=";" horiz-adv-x="503" d="M41 -268l160 575h262l-162 -575h-260zM143 862q0 68 44 114t114 46q68 0 114 -46t46 -114q0 -70 -46 -113.5t-114 -43.5q-70 0 -114 43.5t-44 113.5z" />
<glyph unicode="&#x3c;" horiz-adv-x="698" d="M41 481l307 369h309l-284 -369l26 -32l-2 2q41 -53 102.5 -131t147.5 -205h-299z" />
<glyph unicode="=" horiz-adv-x="952" d="M41 248v258h870v-258h-870zM41 588v264h870v-264h-870z" />
<glyph unicode="&#x3e;" horiz-adv-x="700" d="M41 115l285 362l-11 17l-67 81l-205 275h309l307 -369l-307 -366h-311z" />
<glyph unicode="?" horiz-adv-x="901" d="M41 1229q104 104 201.5 157.5t224.5 53.5q76 0 146.5 -21.5t126 -67.5t88 -117t32.5 -167q0 -63 -25.5 -120.5t-66.5 -110t-91 -96.5t-99 -81v-321h-263l-4 477q72 45 124 79t85 62.5t48.5 54t15.5 56.5q0 55 -37 83t-92 28q-53 0 -103.5 -37t-109.5 -113zM291 158 q0 63 42 108t113 45q63 0 109.5 -45t46.5 -108q0 -72 -46 -115t-110 -43q-72 0 -113.5 43t-41.5 115z" />
<glyph unicode="@" horiz-adv-x="1378" d="M41 700q0 137 41 263.5t123 221.5t202.5 152.5t278.5 57.5q145 0 265 -46t206 -131t133 -206.5t47 -268.5q0 -92 -18.5 -163.5t-49 -124t-71.5 -85t-86 -46.5l82 -123q-106 -104 -233 -152.5t-275 -48.5q-158 0 -277.5 52t-201.5 145.5t-124 222.5t-42 280zM240 698 q0 -111 27.5 -204t84 -161.5t141.5 -107.5t199 -39q102 0 187.5 27t164.5 98h-14q-51 0 -96 18.5t-74 47.5q-102 -80 -225 -80q-131 0 -214 72.5t-83 195.5q0 72 25.5 123t69.5 85t102.5 49.5t121.5 15.5q41 0 85 -5.5t81 -15.5v19q0 55 -37.5 85.5t-107.5 30.5 q-41 0 -88 -26.5t-101 -91.5l-133 147q61 78 144.5 119t181.5 41q154 0 245 -75t91 -216v-350q0 -12 16 -13q18 0 37 11.5t32 40t22.5 76t9.5 120.5q0 117 -33 206t-91.5 149.5t-141.5 92t-183 31.5q-111 0 -194.5 -42t-139 -112.5t-84 -163.5t-28.5 -198zM530 567 q0 -41 33 -63.5t90 -22.5q43 0 90.5 28t79.5 64v56q-35 14 -71.5 20t-73.5 6q-27 0 -53.5 -4t-47 -15t-34 -27.5t-13.5 -41.5z" />
<glyph unicode="A" d="M41 0l514 1434h252l514 -1434h-317l-140 389h-368q-35 -94 -71 -194.5t-69 -194.5h-315zM598 674h164l-39 112q-8 25 -11 33t-6.5 16.5t-8.5 22.5t-17 49z" />
<glyph unicode="B" horiz-adv-x="1150" d="M41 0v1434h577q86 0 162 -34t133.5 -90.5t90 -133t32.5 -162.5q0 -61 -22.5 -127t-57.5 -115q76 -61 115 -146t39 -186q0 -92 -35 -172t-95 -139t-140 -94t-172 -35h-627zM328 287h340q33 0 61.5 14t50 36.5t34.5 53.5t13 64q0 63 -47 102t-112 39h-340v-309zM328 883 h293q55 0 93 39t38 94q0 57 -38 94t-93 37h-293v-264z" />
<glyph unicode="C" horiz-adv-x="1284" d="M41 725q0 139 39 270t117.5 232.5t199.5 163t287 61.5q174 0 309 -77t250 -212l-213 -188q-92 113 -175 151.5t-167 38.5q-92 0 -160.5 -36.5t-112.5 -98t-65.5 -141.5t-21.5 -166t21.5 -167t65.5 -142.5t112.5 -99.5t160.5 -38q86 0 169 41t173 156l213 -188 q-111 -133 -248 -213t-311 -80q-166 0 -287 62.5t-199.5 165t-117.5 234.5t-39 271z" />
<glyph unicode="D" horiz-adv-x="1314" d="M41 0v1434h541q178 0 308 -57.5t216 -155t127 -226.5t41 -274q0 -150 -44 -281t-130 -229t-216 -154.5t-302 -56.5h-541zM328 287h245q205 0 307.5 117.5t102.5 314.5q0 203 -109.5 315.5t-300.5 112.5h-245v-860z" />
<glyph unicode="E" horiz-adv-x="1001" d="M41 0v1434h913v-287h-626v-262h571v-287h-571v-311h633v-287h-920z" />
<glyph unicode="F" horiz-adv-x="995" d="M41 0v1434h913v-287h-626v-262h571v-287h-571v-598h-287z" />
<glyph unicode="G" horiz-adv-x="1316" d="M41 725q0 139 39 270t117.5 232.5t199.5 163t287 61.5q174 0 309 -77t250 -212l-213 -188q-92 113 -176 151.5t-166 38.5q-92 0 -160.5 -36.5t-112.5 -98t-65.5 -141.5t-21.5 -166t21.5 -167t65.5 -142.5t112.5 -99.5t160.5 -38q35 0 76 3.5t82 12.5t79 22.5t64 35.5v248 h-364v287h651v-633l-14 -19q-47 -53 -111 -98t-138.5 -76.5t-158.5 -49t-170 -17.5q-166 0 -287 62.5t-199.5 165t-117.5 234.5t-39 271z" />
<glyph unicode="H" horiz-adv-x="1136" d="M41 0v1434h287v-549h481v549h287v-1434h-287v598h-481v-598h-287z" />
<glyph unicode="I" horiz-adv-x="370" d="M41 0v1434h289v-1434h-289z" />
<glyph unicode="J" horiz-adv-x="987" d="M41 266l217 201q61 -94 122.5 -145.5t139.5 -51.5q76 0 107.5 50.5t31.5 134.5v979h287v-981q0 -231 -115.5 -350t-332.5 -119q-68 0 -125.5 15t-111.5 49t-107.5 87t-112.5 131z" />
<glyph unicode="K" horiz-adv-x="1271" d="M41 0v1434h285v-516l516 516h389l-701 -697l316 -331h-2q43 -45 94 -99.5t103.5 -110t101.5 -106.5t86 -90h-400l-503 537v-537h-285z" />
<glyph unicode="L" horiz-adv-x="999" d="M41 0v1434h287v-1147h630v-287h-917z" />
<glyph unicode="M" horiz-adv-x="1376" d="M41 0v1434h221l426 -680q106 166 215 341t213 339h219v-1434h-286v823q-43 -72 -89.5 -147.5t-93.5 -151t-93 -149.5t-85 -139l-364 575v-811h-283z" />
<glyph unicode="N" horiz-adv-x="1263" d="M41 0v1434h223l676 -887v887h283v-1434h-230l-669 889v-889h-283z" />
<glyph unicode="O" horiz-adv-x="1429" d="M41 725q0 141 43 272t127 232.5t210 162t292 60.5q168 0 294 -60.5t211 -162t128 -232.5t43 -272q0 -143 -43 -276.5t-128 -234.5t-211 -162.5t-294 -61.5q-166 0 -292 61.5t-210 162.5t-127 234.5t-43 276.5zM330 723q0 -90 24.5 -171t72.5 -142.5t119.5 -97.5 t166.5 -36q96 0 168.5 36t121 97.5t73 142.5t24.5 171q0 88 -24.5 168t-73 141.5t-121 97t-168.5 35.5q-94 0 -166 -35.5t-120 -96t-72.5 -141.5t-24.5 -169z" />
<glyph unicode="P" horiz-adv-x="1079" d="M41 0v1434h553q92 0 173 -35t141.5 -95.5t95 -141.5t34.5 -173t-34.5 -172t-95 -139.5t-141.5 -94t-173 -34.5h-266v-549h-287zM328 836h266q66 0 112 44t46 109q0 66 -46.5 111t-111.5 47h-266v-311z" />
<glyph unicode="Q" horiz-adv-x="1429" d="M41 725q0 141 43 272t127 232.5t211 162t293 60.5t293 -60.5t211 -162t127 -232.5t43 -272q0 -106 -21.5 -207.5t-68 -188.5t-116 -157t-163.5 -115l49 -59q12 -16 31.5 -41t41 -51.5t40 -51t30.5 -38.5h-346l-131 174h-20q-166 0 -293 61.5t-211 162.5t-127 234.5 t-43 276.5zM330 723q0 -90 24.5 -171t72.5 -142.5t119.5 -97.5t168.5 -36q96 0 167.5 36t120 97.5t73 142.5t24.5 171q0 88 -24.5 168t-73 141.5t-120 97t-167.5 35.5t-168 -35.5t-120 -96t-72.5 -141.5t-24.5 -169z" />
<glyph unicode="R" horiz-adv-x="1173" d="M41 0v1434h555q90 0 170 -35t140.5 -95.5t95 -141.5t34.5 -173q0 -123 -61.5 -224t-159.5 -159l318 -606h-326l-301 549h-178v-549h-287zM328 836h268q63 0 108.5 44t45.5 109q0 66 -45.5 111t-108.5 47h-268v-311z" />
<glyph unicode="S" horiz-adv-x="1212" d="M41 293l235 192q76 -106 161 -155t181 -49q102 0 168 33.5t66 86.5q0 39 -27.5 69t-69.5 54.5t-94.5 43t-101.5 34.5l-41 16q-70 25 -137.5 53.5t-121.5 75t-88 114t-34 167.5q0 80 28 154.5t87 131t151.5 91.5t223.5 35q147 0 279 -61.5t265 -221.5l-233 -162l-59 56 q-47 59 -108.5 80.5t-139.5 21.5q-94 0 -147.5 -31.5t-53.5 -79.5q0 -27 26.5 -50t66.5 -43.5t88 -40t94 -36.5h-3q59 -20 135 -54t143 -86t113 -127t46 -177q0 -106 -40 -188t-110.5 -137.5t-166 -84t-206.5 -28.5q-154 0 -294 72.5t-281 230.5z" />
<glyph unicode="T" horiz-adv-x="1005" d="M41 1147v287h924v-287h-316v-1147h-287v1147h-321z" />
<glyph unicode="U" horiz-adv-x="1259" d="M41 494v940h287v-916q0 -59 21.5 -103t57 -74t85 -46t104.5 -21q10 -2 12 -2h6h29h6t13 2q55 4 104 20.5t86 46.5t58.5 74t21.5 103v916h287v-940q-4 -109 -42 -195t-103.5 -150.5t-155 -104.5t-193.5 -52l-68 -6h-30q-53 0 -99 6q-102 14 -189 54t-152.5 103.5 t-103.5 150.5t-42 194z" />
<glyph unicode="V" d="M41 1434h315l324 -908l117 326q47 137 104 291.5t105 290.5h315l-514 -1434h-252z" />
<glyph unicode="W" horiz-adv-x="1857" d="M41 1434h307l230 -803q53 199 111.5 404.5t111.5 398.5h264l223 -803l225 803h304l-402 -1434h-256l-223 809q-29 -96 -53.5 -189.5t-53.5 -185.5v2l-124 -436h-263z" />
<glyph unicode="X" horiz-adv-x="1433" d="M41 0l502 723q-57 82 -122 173t-129.5 183t-128 182.5t-120.5 172.5h360l310 -455q16 25 32.5 47.5t32.5 46.5q59 88 125 182.5t125 178.5h356l-495 -709l153 -221h-2l353 -504h-363l-317 463l-316 -463h-356z" />
<glyph unicode="Y" horiz-adv-x="1417" d="M41 1434h342l324 -461l151 215l174 246h344l-524 -772q0 -74 -1 -152t-1 -156v-354h-287v666l-260 381z" />
<glyph unicode="Z" horiz-adv-x="1167" d="M41 0v231l639 916h-600v287h999v-228l-637 -919h684v-287h-1085z" />
<glyph unicode="[" horiz-adv-x="454" d="M41 -115v1694h373v-233h-131v-1227h131v-234h-373z" />
<glyph unicode="\" horiz-adv-x="866" d="M41 1432h256l528 -1432h-258z" />
<glyph unicode="]" horiz-adv-x="454" d="M41 -115v234h131v1227h-131v233h373v-1694h-373z" />
<glyph unicode="^" horiz-adv-x="743" d="M41 1202l188 232h285l188 -232h-258l-73 78l-72 -78h-258z" />
<glyph unicode="_" horiz-adv-x="1105" d="M41 -123h1024v-244h-1024v244z" />
<glyph unicode="`" horiz-adv-x="552" d="M41 1434h283l188 -232h-258z" />
<glyph unicode="a" horiz-adv-x="944" d="M41 313q0 90 34 159t90 115t131 68.5t157 22.5q49 0 92 -1t90 -11q-18 112 -158 112h-2q-53 0 -98 -22.5t-109 -102.5l-196 172q92 106 188 157.5t219 51.5q94 0 172 -24.5t134.5 -71.5t87 -117.5t30.5 -163.5v-657h-266v20q-49 -20 -104.5 -25t-114.5 -5 q-80 0 -148.5 20.5t-120 61.5t-80 101t-28.5 140zM309 315q0 -37 36 -55t99 -18q57 0 107.5 19.5t85.5 62.5v75q-37 10 -78 13.5t-84 3.5q-31 0 -60.5 -5t-53 -16.5t-38 -31t-14.5 -48.5z" />
<glyph unicode="b" horiz-adv-x="995" d="M41 61v1373h270v-408q29 6 54.5 8t56.5 2q100 0 196.5 -29.5t171 -93t119.5 -162t45 -235.5q0 -115 -36.5 -210t-106.5 -164.5t-169 -108.5t-224 -39q-162 0 -377 67zM311 256q27 -6 57.5 -8t59.5 -2q119 0 184.5 73.5t65.5 194.5q0 129 -71.5 198.5t-194.5 69.5 q-23 0 -49.5 -4t-51.5 -10v-512z" />
<glyph unicode="c" horiz-adv-x="995" d="M41 516q0 109 30.5 204t92 165.5t152 110.5t208.5 40q125 0 229.5 -59t196.5 -160l-186 -180q-59 66 -117.5 105.5t-118.5 39.5q-59 0 -100 -21.5t-67.5 -57t-38 -83t-11.5 -100.5t12.5 -102t39 -87t68.5 -61.5t99 -23.5q59 0 124 35.5t132 113.5l168 -182l-45 -61 q-70 -72 -158.5 -115t-224.5 -43q-127 0 -218 44t-150.5 116.5t-88 167t-28.5 194.5z" />
<glyph unicode="d" horiz-adv-x="995" d="M41 516q0 137 45 235.5t120 162t170 93t195 29.5q33 0 58.5 -2t54.5 -8v408h270v-1373q-212 -67 -371 -67h-5q-125 0 -224.5 39t-169 108.5t-106.5 164.5t-37 210zM315 514q0 -121 67 -194.5t187 -73.5q29 0 57.5 2t57.5 8v512q-27 6 -52.5 10t-47.5 4q-123 0 -196 -69.5 t-73 -198.5z" />
<glyph unicode="e" horiz-adv-x="1011" d="M41 506q0 135 37 234.5t101.5 165t149.5 97t181 31.5q229 0 345 -156.5t116 -455.5h-649q20 -86 77.5 -132t143.5 -46q59 0 122.5 32.5t131.5 108.5l174 -182l-41 -47q-72 -80 -167 -122t-228 -42q-125 0 -217.5 42t-154 113.5t-92 163.5t-30.5 195zM334 674h354 q-16 51 -61 82.5t-117 31.5q-74 0 -115 -29.5t-61 -84.5z" />
<glyph unicode="f" horiz-adv-x="638" d="M41 770v256h80q4 74 21.5 147.5t53 133t93 96.5t143.5 37q8 0 19.5 -1t30 -5t47 -10.5t69.5 -18.5l-39 -240q-37 8 -56.5 14.5t-29.5 8.5t-13 3t-7 1q-27 -2 -39.5 -19.5t-17.5 -43t-4 -54t1 -49.5h152v-256h-154v-770h-270v770h-80z" />
<glyph unicode="g" horiz-adv-x="1009" d="M41 -201l182 197q134 -152 273 -152q98 0 149 36t55 122q-29 -4 -56.5 -7t-51.5 -3q-102 0 -198.5 29.5t-170 93t-119 162t-45.5 235.5q0 113 37 209t106.5 165.5t169 108.5t224.5 39q80 0 173 -17.5t200 -49.5v-932q0 -123 -35 -209t-98.5 -140.5t-151.5 -80t-192 -25.5 q-129 0 -242 59.5t-209 159.5zM334 514q0 -129 71.5 -199.5t194.5 -70.5q51 0 100 14v514q-27 6 -56.5 7t-57.5 1q-119 0 -185.5 -72.5t-66.5 -193.5z" />
<glyph unicode="h" horiz-adv-x="964" d="M41 0v1434h270v-443q45 23 99.5 36t117.5 13q82 0 154 -24.5t126 -72.5t85 -118.5t31 -165.5v-659h-269v635q0 76 -44 111.5t-109 35.5q-33 0 -61.5 -14t-52 -35.5t-43 -47.5t-34.5 -50v-635h-270z" />
<glyph unicode="i" horiz-adv-x="376" d="M41 1292q0 66 40 107t107 41q66 0 107 -41t41 -107t-41 -106.5t-107 -40.5q-68 0 -107.5 40.5t-39.5 106.5zM55 0v1024h269v-1024h-269z" />
<glyph unicode="j" horiz-adv-x="593" d="M41 -125q123 16 176 66.5t53 142.5v942h269v-948q0 -82 -25 -158t-78 -136t-136 -101t-200 -54zM258 1292q0 66 41 107t107 41t106.5 -41t40.5 -107t-41 -106.5t-106 -40.5q-66 0 -107 40.5t-41 106.5z" />
<glyph unicode="k" horiz-adv-x="1040" d="M41 0v1434h268v-732l320 322h370l-505 -496l499 -528h-375l-309 342v-342h-268z" />
<glyph unicode="l" horiz-adv-x="348" d="M41 0v1434h266v-1434h-266z" />
<glyph unicode="m" horiz-adv-x="1576" d="M41 0v1026h268v-37q45 23 99.5 37t119.5 14q90 0 168 -29.5t133 -90.5q53 45 130 81.5t182 38.5q82 0 153.5 -23.5t125 -71.5t85 -119.5t31.5 -166.5v-659h-266v635q0 74 -45 109.5t-111 37.5q-41 0 -75.5 -13t-60.5 -33.5t-41 -46t-15 -46.5v-643h-265v635 q0 76 -45 111.5t-110 35.5q-35 0 -69 -13t-61.5 -33.5t-45 -45t-17.5 -45.5v-645h-268z" />
<glyph unicode="n" horiz-adv-x="962" d="M41 0v1026h268v-37q92 51 217 51q82 0 154 -24.5t126 -72.5t85 -118.5t31 -165.5v-659h-267v635q0 76 -44 111.5t-111 35.5q-35 0 -69 -13t-60.5 -33.5t-44 -45t-17.5 -45.5v-645h-268z" />
<glyph unicode="o" horiz-adv-x="1048" d="M41 512q0 111 30.5 206t90 165.5t149.5 110.5t211 40q123 0 214 -41t151.5 -112.5t90.5 -167.5t30 -207q0 -109 -30 -203t-90.5 -164.5t-151.5 -110.5t-214 -40q-121 0 -211 41t-149.5 111.5t-90 166.5t-30.5 205zM317 510q0 -59 11.5 -110.5t36 -89.5t63.5 -59.5 t94 -21.5q113 0 161 79t48 200q0 61 -11 112.5t-36 88t-64.5 58t-97.5 21.5q-111 0 -158 -77.5t-47 -200.5z" />
<glyph unicode="p" horiz-adv-x="1003" d="M41 -436v1403q109 33 202 50t173 17q125 0 225 -39t172 -108.5t111 -165.5t39 -209q0 -137 -47.5 -235.5t-123 -162t-173 -93t-197.5 -29.5q-29 0 -56.5 2t-56.5 8v-438h-268zM309 260q27 -6 52.5 -11t48.5 -5q125 0 196.5 70.5t71.5 199.5q0 121 -66.5 193.5 t-185.5 72.5q-31 0 -59.5 -2t-57.5 -8v-510z" />
<glyph unicode="q" horiz-adv-x="993" d="M41 512q0 113 37 209t106.5 165.5t169 108.5t224.5 39q82 0 174 -17.5t200 -49.5v-1403h-268v438q-29 -6 -56.5 -8t-54.5 -2q-102 0 -197 29.5t-170 93t-120 162t-45 235.5zM317 514q0 -129 72 -199.5t195 -70.5q23 0 49 5t51 11v512q-27 6 -56.5 7t-58.5 1 q-121 0 -186.5 -72.5t-65.5 -193.5z" />
<glyph unicode="r" horiz-adv-x="774" d="M41 0v1024h270v-35q90 51 215 51q31 0 86.5 -8t120.5 -26l-71 -269q-53 20 -96.5 32.5t-65.5 12.5q-35 0 -69 -13t-60.5 -33.5t-43 -45t-16.5 -45.5v-645h-270z" />
<glyph unicode="s" horiz-adv-x="917" d="M41 219l182 187q57 -78 125 -119t125 -41t85 15t28 38q0 39 -48.5 60.5t-111.5 41.5q-53 16 -108.5 39t-100.5 59t-73.5 90t-28.5 136q0 152 101 232.5t261 80.5q55 0 106.5 -8t99.5 -29.5t96 -60.5t98 -100l-191 -185l-37 45q-33 41 -78 72t-96 31q-49 0 -70.5 -22.5 t-21.5 -43.5q0 -29 44 -48t103 -38q55 -18 112.5 -40.5t105 -59.5t77 -92.5t29.5 -141.5q0 -78 -30.5 -138t-84 -102t-123 -64.5t-149.5 -22.5q-117 0 -219.5 55t-206.5 174z" />
<glyph unicode="t" horiz-adv-x="638" d="M41 772v256h80v240h270v-240h154v-256h-154v-371q0 -61 8.5 -111t38.5 -54q4 0 15.5 -2.5t29 0t37 10.5t41.5 24l37 -254q-43 -20 -90 -21t-76 -1q-92 0 -151.5 32.5t-95 89t-50 130t-14.5 153.5v375h-80z" />
<glyph unicode="u" horiz-adv-x="987" d="M41 369v655h270v-631q0 -76 50.5 -112.5t117.5 -36.5q76 0 122 25.5t75 66.5v688h270v-1024h-264v29q-94 -41 -231 -41q-86 0 -161 24.5t-130.5 72.5t-87 118.5t-31.5 165.5z" />
<glyph unicode="v" horiz-adv-x="1153" d="M41 1024h295l246 -618l249 618h281l-418 -1024h-227z" />
<glyph unicode="w" horiz-adv-x="1656" d="M41 1024h283l196 -575l19 51q43 125 93 266t93 258h215l207 -573l194 573h275l-359 -1024h-219l-207 567l-213 -567h-219z" />
<glyph unicode="x" horiz-adv-x="1175" d="M41 0l375 520l-367 504h326l225 -303q53 72 112.5 153.5t108.5 149.5h312l-367 -510l369 -514h-326l-227 313l-123 -172l-103 -141h-315z" />
<glyph unicode="y" horiz-adv-x="1157" d="M41 1024h299l242 -606l241 606h293l-438 -1071q-37 -127 -157 -215t-306 -109l-59 244q37 8 86 21.5t93 34t75.5 50t35.5 68.5z" />
<glyph unicode="z" horiz-adv-x="894" d="M41 0v217l414 545h-414v262h786v-215l-426 -545h453v-264h-813z" />
<glyph unicode="{" horiz-adv-x="514" d="M41 618v267q43 0 51 12t10 39v377q10 139 84 202.5t187 63.5h100v-242l-100 -2q-18 0 -21.5 -30.5t-3.5 -55.5v-358q-4 -37 -8 -73t-27 -66q23 -35 27 -69t8 -71q2 -147 0 -240t-2 -145.5t5 -73t22 -20.5l100 -2v-244h-100q-113 0 -186.5 64.5t-84.5 202.5v411 q-2 27 -9 40t-52 13z" />
<glyph unicode="|" horiz-adv-x="323" d="M41 -203v1833h242v-1833h-242z" />
<glyph unicode="}" horiz-adv-x="514" d="M41 -113v244l100 2q14 0 20.5 20.5t6.5 73t-2 145.5t0 240q4 37 8 71t27 69q-23 31 -27 66.5t-8 72.5v358q0 25 -3 55.5t-22 30.5l-100 2v242h100q113 0 186.5 -63.5t84.5 -202.5v-377q2 -27 10 -39t51 -12v-267q-45 0 -52 -13t-9 -40v-411q-10 -137 -84 -202t-187 -65 h-100z" />
<glyph unicode="&#xa1;" horiz-adv-x="385" d="M41 1080q0 -70 42 -112t110 -42q66 0 108.5 42t42.5 112q0 66 -43 106.5t-108 40.5q-68 0 -110 -40.5t-42 -106.5zM49 -205h287v1029h-287v-1029z" />
<glyph unicode="&#xa2;" horiz-adv-x="980" d="M41 524q0 88 21.5 171t63.5 153t105.5 120t149.5 72v174h244v-172q86 -23 164.5 -79t150.5 -142l-199 -172q-37 41 -65.5 73t-50.5 48v-487q29 20 55.5 49.5t60.5 70.5l191 -165l-31 -50q-55 -68 -127 -114.5t-149 -67.5v-186h-244v192q-86 23 -149.5 73t-105.5 119.5 t-63.5 151.5t-21.5 168zM307 524q0 -61 18.5 -122.5t55.5 -102.5v455q-37 -41 -55.5 -104t-18.5 -126z" />
<glyph unicode="&#xa3;" horiz-adv-x="995" d="M41 459v254h78q-14 33 -22.5 70.5t-8.5 78.5q0 166 106.5 269.5t305.5 103.5q135 0 243.5 -61.5t210.5 -192.5l-202 -193q-117 182 -258 183q-72 0 -104 -25.5t-32 -66.5q0 -43 15.5 -78t42.5 -68l16 -20h391v-254h-270v-10q0 -45 -9 -92.5t-28 -80.5h422v-276h-895v223 q104 43 176 102.5t72 116.5q0 10 -2 17h-248z" />
<glyph unicode="&#xa5;" horiz-adv-x="1122" d="M41 1235h313l209 -373q53 92 107.5 187.5t101.5 185.5h309l-278 -485h149v-256h-262v-48h262v-253h-262v-193h-260v193h-262v253h262v48h-262v256h145q-27 43 -50 89t-52 93z" />
<glyph unicode="&#xa6;" horiz-adv-x="317" d="M41 -2v582h235v-582h-235zM41 860v582h235v-582h-235z" />
<glyph unicode="&#xa7;" horiz-adv-x="854" d="M41 96l104 211q55 -23 95.5 -36t71 -21t55 -11t51.5 -3q53 0 81.5 19t28.5 67q0 20 -15 36.5t-39.5 29.5t-55.5 24.5t-62 21.5q-53 16 -105 43t-93 66t-68 92t-27 123q0 68 20.5 121t57.5 90q-20 31 -34.5 72.5t-14.5 82.5q0 84 32 144.5t84 98.5t119.5 55.5t137.5 17.5 q78 0 160 -29t174 -65l-90 -242q-86 51 -140.5 77.5t-101.5 26.5q-51 0 -86 -17t-35 -63q0 -16 11.5 -24t30 -13.5t43 -10.5t50.5 -13q55 -16 113.5 -47t107 -76t80 -107.5t31.5 -142.5q0 -51 -23.5 -103t-56.5 -91q27 -37 39 -82t12 -94q0 -78 -30.5 -138.5t-80.5 -101.5 t-118 -62.5t-141 -21.5q-86 0 -173 21.5t-200 74.5zM315 764q0 -6 10.5 -19.5t27 -29t37 -28.5t40.5 -19l76 -23q53 22 53 47q0 37 -38 75t-91 54l-55 13q-25 -8 -42.5 -23.5t-17.5 -46.5z" />
<glyph unicode="&#xa8;" horiz-adv-x="702" d="M41 1255q0 66 40 107t105 41q68 0 110 -41t42 -107t-42 -106.5t-110 -40.5q-66 0 -105.5 40.5t-39.5 106.5zM365 1255q0 66 39.5 107t105.5 41q68 0 110 -41t42 -107t-42 -106.5t-110 -40.5q-66 0 -105.5 40.5t-39.5 106.5z" />
<glyph unicode="&#xa9;" horiz-adv-x="1470" d="M41 741q0 141 48 266.5t137 220.5t217 150.5t290 55.5q164 0 293 -55.5t219 -150.5t137.5 -220.5t47.5 -266.5t-47.5 -267t-137.5 -221t-219 -151.5t-293 -56.5q-162 0 -290 56.5t-217 151.5t-137 221t-48 267zM231 739q0 -100 38 -193t104.5 -166t159 -116t200.5 -43 q111 0 204 43t160.5 115t105.5 165t38 195q0 100 -38 193.5t-105.5 166t-160.5 115.5t-204 43q-109 0 -201 -43t-158.5 -114.5t-104.5 -164.5t-38 -196zM281 741q0 98 29.5 183.5t87 148t140.5 98t187 35.5q111 0 201 -46t161 -128l-129 -129q-53 59 -109 93t-120 34 q-66 0 -114 -22.5t-78.5 -61.5t-46 -91t-15.5 -110q0 -55 15.5 -107t48 -93t80 -65.5t112.5 -24.5q59 0 123 30.5t123 96.5l121 -131l-25 -27q-66 -70 -147.5 -109t-198.5 -39q-113 0 -197 40t-139 104.5t-82.5 148.5t-27.5 172z" />
<glyph unicode="&#xaa;" horiz-adv-x="944" d="M41 719q0 90 34 159t90 115t131 68.5t157 22.5q49 0 92 -1t90 -11q-18 113 -160 112q-53 0 -98 -22.5t-109 -102.5l-196 172q92 106 188 157.5t219 51.5q94 0 172 -24.5t134.5 -71.5t87 -117.5t30.5 -163.5v-657h-266v20q-49 -20 -104.5 -25t-114.5 -5q-80 0 -148.5 20.5 t-120 61.5t-80 101t-28.5 140zM309 721q0 -37 36 -55t99 -18q57 0 107.5 19.5t85.5 62.5v75q-37 10 -78 13.5t-84 3.5q-31 0 -60.5 -5t-53 -16.5t-38 -31t-14.5 -48.5z" />
<glyph unicode="&#xab;" horiz-adv-x="1046" d="M41 483l303 363h299l-287 -363q18 -23 38 -47t51.5 -63t78.5 -99.5t119 -152.5h-299zM406 483l301 363h299l-287 -363q18 -23 37.5 -47t51.5 -63t79 -99.5t119 -152.5h-299z" />
<glyph unicode="&#xac;" horiz-adv-x="978" d="M41 514v250h897v-563h-246v313h-651z" />
<glyph unicode="&#xad;" horiz-adv-x="579" d="M41 391v248h498v-248h-498z" />
<glyph unicode="&#xae;" horiz-adv-x="1470" d="M41 709q0 141 48 266t137 220t217 150.5t290 55.5q164 0 293 -55.5t219 -150.5t137.5 -220t47.5 -266t-47.5 -267.5t-137.5 -221.5t-219 -151.5t-293 -56.5q-162 0 -290 56.5t-217 151.5t-137 221t-48 268zM229 707q0 -123 55.5 -235t153.5 -185v839q-98 -72 -153.5 -183 t-55.5 -236zM451 279q59 -43 130.5 -67t151.5 -24q82 0 155 24t132 67h-121l-170 313h-82v-313h-196zM465 1145h287q63 0 121.5 -15.5t102.5 -49t69.5 -85t25.5 -123.5q0 -100 -40 -155t-101 -80q16 -35 35.5 -71t42.5 -74l86 -152q70 72 109.5 167.5t39.5 199.5 q0 100 -38 193t-106.5 166t-161.5 116t-204 43q-76 0 -143.5 -21.5t-124.5 -58.5zM647 795h90q61 0 99 23t36 54q-2 41 -35.5 58.5t-88.5 17.5h-101v-153z" />
<glyph unicode="&#xaf;" horiz-adv-x="669" d="M41 1184v252h588v-252h-588z" />
<glyph unicode="&#xb0;" horiz-adv-x="593" d="M41 1186q0 109 69.5 177.5t186.5 68.5q125 0 190.5 -71t65.5 -175q0 -51 -16.5 -96.5t-49 -79t-81 -53t-109.5 -19.5q-59 0 -106.5 20.5t-80 54.5t-51 79t-18.5 94zM283 1186q0 -23 14 -23q18 0 18 23q0 25 -18 24q-14 0 -14 -24z" />
<glyph unicode="&#xb1;" horiz-adv-x="1001" d="M41 0v244h920v-244h-920zM41 532v261h326v233h262v-233h332v-261h-332v-233h-262v233h-326z" />
<glyph unicode="&#xb2;" horiz-adv-x="638" d="M34 1014q42 80 111.5 128t150.5 48q63 0 113 -20.5t85 -55.5t54 -84t19 -108q0 -39 -14 -78t-36 -74t-47.5 -67t-49.5 -58l-102 -110l-20 -24h293v-157h-537v140l235 247q18 20 38 43t37 47.5t28 48.5t11 45q0 22 -7 42t-20.5 36t-33.5 25.5t-46 9.5q-20 0 -41.5 -7 t-42.5 -21t-38.5 -35t-26.5 -51z" />
<glyph unicode="&#xb3;" horiz-adv-x="626" d="M33 470l123 104q35 -47 71.5 -66.5t69.5 -19.5q59 0 92.5 31t33.5 76q0 49 -42.5 79t-119.5 30h-65v152h68q55 0 91 20.5t36 60.5q0 32 -28 52t-69 20q-40 0 -71 -19t-65 -59l-119 98q60 64 118.5 94.5t136.5 30.5q53 0 99 -13.5t80.5 -40.5t54 -67.5t19.5 -93.5 q0 -47 -17 -84.5t-47 -63.5q43 -29 69 -80.5t26 -115.5q0 -59 -22.5 -105.5t-61.5 -79t-90 -50t-107 -17.5q-74 0 -135.5 30t-128.5 97z" />
<glyph unicode="&#xb4;" horiz-adv-x="552" d="M41 1202l188 232h283l-213 -232h-258z" />
<glyph unicode="&#xb5;" horiz-adv-x="849" d="M41 -295v1315h256v-614q0 -72 37 -119t96 -47q35 0 65.5 39.5t47.5 78.5v662h258l8 -1020h-234v33q-16 -8 -39.5 -15.5t-49 -13.5t-52 -9t-47.5 -3q-23 0 -46.5 4t-43.5 10v-301h-256z" />
<glyph unicode="&#xb6;" horiz-adv-x="1015" d="M41 1098q0 55 14.5 115.5t55.5 109.5t115.5 81t195.5 32h553v-1436h-283v1229h-59v-1229h-283v778q-90 10 -150.5 42t-95 77t-49 97.5t-14.5 103.5z" />
<glyph unicode="&#xb7;" horiz-adv-x="391" d="M41 147q0 70 42 113t112 43q68 0 111.5 -43t43.5 -113q0 -68 -44 -110.5t-111 -42.5q-70 0 -112 42.5t-42 110.5z" />
<glyph unicode="&#xb8;" horiz-adv-x="575" d="M41 -223l80 223q41 -25 80 -44t57 -19t30.5 12t12.5 41q0 23 -8 66.5t-25 109.5h232q16 -47 25.5 -97.5t9.5 -84.5q0 -133 -75 -206t-200 -73q-45 0 -101.5 19.5t-117.5 52.5z" />
<glyph unicode="&#xb9;" horiz-adv-x="235" d="M33 354v777l154 57v-834h-154z" />
<glyph unicode="&#xba;" horiz-adv-x="839" d="M38 891q0 87 24 161.5t70.5 130t117 86.5t165.5 31q97 0 168 -32t118.5 -88t71 -131.5t23.5 -162.5q0 -85 -23.5 -159t-71 -129.5t-118.5 -86.5t-168 -31q-95 0 -165.5 32t-117 87.5t-70.5 130.5t-24 161zM254 889q0 -46 9.5 -86.5t28.5 -70.5t49.5 -46.5t73.5 -16.5 q89 0 126.5 62t37.5 157q0 48 -8.5 88t-28 69t-50.5 45.5t-77 16.5q-87 0 -124 -60.5t-37 -157.5z" />
<glyph unicode="&#xbb;" horiz-adv-x="1046" d="M41 121q72 92 119 152.5t78.5 99.5t51 63.5t38.5 46.5l-287 363h299l301 -363l-301 -362h-299zM403 121q72 92 119 152.5t79 99.5t51.5 63.5t37.5 46.5l-287 363h299l304 -363l-304 -362h-299z" />
<glyph unicode="&#xbc;" horiz-adv-x="1196" d="M33 354v777l154 57v-834h-154zM84 0l526 1436h258l-528 -1436h-256zM355 199v110l365 510h126v-465h63v-155h-63v-198h-154v198h-337zM554 354h138v89v22t-0.5 16t-0.5 18v27q-41 -51 -76.5 -95.5t-60.5 -76.5z" />
<glyph unicode="&#xbd;" horiz-adv-x="1251" d="M33 354v777l154 57v-834h-154zM84 0l526 1436h258l-528 -1436h-256zM385 647q42 78 110 125t148 47q62 0 110.5 -19.5t83.5 -54t53.5 -82.5t18.5 -106q0 -39 -14 -77t-35.5 -72.5t-46.5 -65.5t-49 -57l-100 -107l-20 -25h288v-153h-527v138l231 241q17 20 37 43 t36.5 46.5t27.5 47t11 44.5t-7 41t-20.5 35.5t-33 24.5t-44.5 9q-20 0 -41.5 -6.5t-41.5 -20t-37.5 -34.5t-26.5 -50z" />
<glyph unicode="&#xbe;" horiz-adv-x="1503" d="M33 470l123 104q35 -48 71.5 -67.5t69.5 -19.5q59 0 92.5 31t33.5 77q0 48 -42.5 78t-119.5 30h-65v151h68q55 0 91 21t36 61q0 31 -28 51.5t-69 20.5q-40 0 -71 -19t-65 -60l-119 98q60 64 118.5 94.5t136.5 30.5q53 0 99 -13.5t80.5 -40.5t54 -67t19.5 -94 q0 -46 -17 -83.5t-47 -63.5q43 -29 69 -80.5t26 -114.5q0 -59 -22.5 -106t-61.5 -79t-90 -49.5t-107 -17.5q-74 0 -135.5 30t-128.5 97zM391 0l526 1436h258l-528 -1436h-256zM529 199v110l365 510h126v-465h63v-155h-63v-198h-154v198h-337zM728 354h138v89v22t-0.5 16 t-0.5 18v27q-41 -51 -76.5 -95.5t-60.5 -76.5z" />
<glyph unicode="&#xbf;" horiz-adv-x="905" d="M41 156q0 78 25.5 138t67.5 110.5t96.5 91.5t111.5 77l4 238h236l8 -367q-74 -47 -127 -83.5t-87 -69.5t-49.5 -64.5t-15.5 -66.5q0 -63 40 -94t104 -31q59 0 114.5 35.5t114.5 103.5l180 -180q-96 -102 -194.5 -154.5t-225.5 -52.5q-78 0 -149.5 21.5t-128.5 66.5 t-91 114.5t-34 166.5zM315 991q0 68 42 108t108 40t105.5 -40t39.5 -108q0 -66 -40 -106.5t-105 -40.5q-66 0 -108 41t-42 106z" />
<glyph unicode="&#xc0;" d="M41 0l514 1434h252l514 -1434h-317l-140 389h-368q-35 -94 -71 -194.5t-69 -194.5h-315zM444 1856h283l188 -232h-258zM598 674h164l-39 112q-8 25 -11 33t-6.5 16.5t-8.5 22.5t-17 49z" />
<glyph unicode="&#xc1;" d="M41 0l514 1434h252l514 -1434h-317l-140 389h-368q-35 -94 -71 -194.5t-69 -194.5h-315zM444 1624l188 232h283l-213 -232h-258zM598 674h164l-39 112q-8 25 -11 33t-6.5 16.5t-8.5 22.5t-17 49z" />
<glyph unicode="&#xc2;" d="M41 0l514 1434h252l514 -1434h-317l-140 389h-368q-35 -94 -71 -194.5t-69 -194.5h-315zM291 1440l297 416h186l297 -416h-282l-109 160l-106 -160h-283zM598 674h164l-39 112q-8 25 -11 33t-6.5 16.5t-8.5 22.5t-17 49z" />
<glyph unicode="&#xc3;" d="M41 0l514 1434h252l514 -1434h-317l-140 389h-368q-35 -94 -71 -194.5t-69 -194.5h-315zM301 1710q70 72 128 108t134 36q33 0 72 -11.5t86 -31.5q29 -14 45 -19.5t29 -5.5q10 0 23 5t42 22l66 41l135 -195q-49 -33 -86 -55.5t-68 -37t-58.5 -20.5t-60.5 -6 q-39 0 -68.5 10.5t-64.5 26.5q-23 10 -47 22.5t-47 12.5q-8 0 -22.5 -8t-32.5 -21l-76 -57zM598 674h164l-39 112q-8 25 -11 33t-6.5 16.5t-8.5 22.5t-17 49z" />
<glyph unicode="&#xc4;" d="M41 0l514 1434h252l514 -1434h-317l-140 389h-368q-35 -94 -71 -194.5t-69 -194.5h-315zM371 1677q0 66 40 107t105 41q68 0 110 -41t42 -107t-42 -106.5t-110 -40.5q-66 0 -105.5 40.5t-39.5 106.5zM598 674h164l-39 112q-8 25 -11 33t-6.5 16.5t-8.5 22.5t-17 49z M695 1677q0 66 39.5 107t105.5 41q68 0 110 -41t42 -107t-42 -106.5t-110 -40.5q-66 0 -105.5 40.5t-39.5 106.5z" />
<glyph unicode="&#xc5;" d="M41 0l504 1405q-57 31 -86 87t-29 124q0 100 64.5 169.5t185.5 69.5q123 0 186.5 -70.5t63.5 -168.5q0 -68 -29 -123t-84 -88l504 -1405h-317l-140 389h-368q-35 -94 -71 -194.5t-69 -194.5h-315zM598 674h164l-39 112l-43 121zM653 1616q0 -16 6.5 -26.5t20.5 -10.5 q31 0 31 37q0 14 -7.5 25.5t-23.5 11.5q-14 0 -20.5 -10.5t-6.5 -26.5z" />
<glyph unicode="&#xc6;" horiz-adv-x="1804" d="M41 0l842 1434h825v-269h-496v-368h447v-267h-447v-262h551v-268h-831v530h-250l-315 -530h-326zM834 795h98v184z" />
<glyph unicode="&#xc7;" horiz-adv-x="1284" d="M41 725q0 139 39 270t117.5 232.5t199.5 163t287 61.5q174 0 309 -77t250 -212l-213 -188q-92 113 -175 151.5t-167 38.5q-92 0 -160.5 -36.5t-112.5 -98t-65.5 -141.5t-21.5 -166t21.5 -167t65.5 -142.5t112.5 -99.5t160.5 -38q86 0 169 41t173 156l213 -188 q-84 -100 -182 -171t-215 -102q2 -10 2 -28q0 -133 -75 -206t-200 -73q-45 0 -101 19.5t-118 52.5l80 223q41 -25 80 -44t57 -19t30.5 12t12.5 41v6q-147 12 -255.5 78.5t-179 167t-104.5 226.5t-34 257z" />
<glyph unicode="&#xc8;" horiz-adv-x="1001" d="M41 0v1434h913v-287h-626v-262h571v-287h-571v-311h633v-287h-920zM264 1856h283l188 -232h-258z" />
<glyph unicode="&#xc9;" horiz-adv-x="1001" d="M41 0v1434h913v-287h-626v-262h571v-287h-571v-311h633v-287h-920zM264 1624l188 232h283l-213 -232h-258z" />
<glyph unicode="&#xca;" horiz-adv-x="1001" d="M41 0v1434h913v-287h-626v-262h571v-287h-571v-311h633v-287h-920zM111 1440l297 416h186l297 -416h-282l-109 160l-106 -160h-283z" />
<glyph unicode="&#xcb;" horiz-adv-x="1001" d="M41 0v1434h913v-287h-626v-262h571v-287h-571v-311h633v-287h-920zM191 1677q0 66 40 107t105 41q68 0 110 -41t42 -107t-42 -106.5t-110 -40.5q-66 0 -105.5 40.5t-39.5 106.5zM515 1677q0 66 39.5 107t105.5 41q68 0 110 -41t42 -107t-42 -106.5t-110 -40.5 q-66 0 -105.5 40.5t-39.5 106.5z" />
<glyph unicode="&#xcc;" horiz-adv-x="370" d="M-129 1856h283l188 -232h-258zM41 0v1434h289v-1434h-289z" />
<glyph unicode="&#xcd;" horiz-adv-x="370" d="M35 1624l188 232h283l-213 -232h-258zM41 0v1434h289v-1434h-289z" />
<glyph unicode="&#xce;" horiz-adv-x="370" d="M-203 1440l297 416h186l297 -416h-282l-109 160l-106 -160h-283zM41 0v1434h289v-1434h-289z" />
<glyph unicode="&#xcf;" horiz-adv-x="370" d="M-123 1677q0 66 40 107t105 41q68 0 110 -41t42 -107t-42 -106.5t-110 -40.5q-66 0 -105.5 40.5t-39.5 106.5zM41 0v1434h289v-1434h-289zM201 1677q0 66 39.5 107t105.5 41q68 0 110 -41t42 -107t-42 -106.5t-110 -40.5q-66 0 -105.5 40.5t-39.5 106.5z" />
<glyph unicode="&#xd1;" horiz-adv-x="1263" d="M41 0v1434h223l676 -887v887h283v-1434h-230l-669 889v-889h-283zM252 1710q70 72 128 108t134 36q33 0 72 -11.5t86 -31.5q29 -14 45 -19.5t29 -5.5q10 0 23 5t42 22l66 41l135 -195q-49 -33 -86 -55.5t-68 -37t-58.5 -20.5t-60.5 -6q-39 0 -68.5 10.5t-64.5 26.5 q-23 10 -47 22.5t-47 12.5q-8 0 -22.5 -8t-32.5 -21l-76 -57z" />
<glyph unicode="&#xd2;" horiz-adv-x="1429" d="M41 725q0 141 43 272t127 232.5t210 162t292 60.5q168 0 294 -60.5t211 -162t128 -232.5t43 -272q0 -143 -43 -276.5t-128 -234.5t-211 -162.5t-294 -61.5q-166 0 -292 61.5t-210 162.5t-127 234.5t-43 276.5zM330 723q0 -90 24.5 -171t72.5 -142.5t119.5 -97.5 t166.5 -36q96 0 168.5 36t121 97.5t73 142.5t24.5 171q0 88 -24.5 168t-73 141.5t-121 97t-168.5 35.5q-94 0 -166 -35.5t-120 -96t-72.5 -141.5t-24.5 -169zM479 1856h283l188 -232h-258z" />
<glyph unicode="&#xd3;" horiz-adv-x="1429" d="M41 725q0 141 43 272t127 232.5t210 162t292 60.5q168 0 294 -60.5t211 -162t128 -232.5t43 -272q0 -143 -43 -276.5t-128 -234.5t-211 -162.5t-294 -61.5q-166 0 -292 61.5t-210 162.5t-127 234.5t-43 276.5zM330 723q0 -90 24.5 -171t72.5 -142.5t119.5 -97.5 t166.5 -36q96 0 168.5 36t121 97.5t73 142.5t24.5 171q0 88 -24.5 168t-73 141.5t-121 97t-168.5 35.5q-94 0 -166 -35.5t-120 -96t-72.5 -141.5t-24.5 -169zM479 1624l188 232h283l-213 -232h-258z" />
<glyph unicode="&#xd4;" horiz-adv-x="1429" d="M41 725q0 141 43 272t127 232.5t210 162t292 60.5q168 0 294 -60.5t211 -162t128 -232.5t43 -272q0 -143 -43 -276.5t-128 -234.5t-211 -162.5t-294 -61.5q-166 0 -292 61.5t-210 162.5t-127 234.5t-43 276.5zM324 1440l297 416h186l297 -416h-282l-109 160l-106 -160 h-283zM330 723q0 -90 24.5 -171t72.5 -142.5t119.5 -97.5t166.5 -36q96 0 168.5 36t121 97.5t73 142.5t24.5 171q0 88 -24.5 168t-73 141.5t-121 97t-168.5 35.5q-94 0 -166 -35.5t-120 -96t-72.5 -141.5t-24.5 -169z" />
<glyph unicode="&#xd5;" horiz-adv-x="1429" d="M41 725q0 141 43 272t127 232.5t210 162t292 60.5q168 0 294 -60.5t211 -162t128 -232.5t43 -272q0 -143 -43 -276.5t-128 -234.5t-211 -162.5t-294 -61.5q-166 0 -292 61.5t-210 162.5t-127 234.5t-43 276.5zM330 723q0 -90 24.5 -171t72.5 -142.5t119.5 -97.5 t166.5 -36q96 0 168.5 36t121 97.5t73 142.5t24.5 171q0 88 -24.5 168t-73 141.5t-121 97t-168.5 35.5q-94 0 -166 -35.5t-120 -96t-72.5 -141.5t-24.5 -169zM334 1710q70 72 128 108t134 36q33 0 72 -11.5t86 -31.5q29 -14 45 -19.5t29 -5.5q10 0 23 5t42 22l66 41 l135 -195q-49 -33 -86 -55.5t-68 -37t-58.5 -20.5t-60.5 -6q-39 0 -68.5 10.5t-64.5 26.5q-23 10 -47 22.5t-47 12.5q-8 0 -22.5 -8t-32.5 -21l-76 -57z" />
<glyph unicode="&#xd6;" horiz-adv-x="1429" d="M41 725q0 141 43 272t127 232.5t210 162t292 60.5q168 0 294 -60.5t211 -162t128 -232.5t43 -272q0 -143 -43 -276.5t-128 -234.5t-211 -162.5t-294 -61.5q-166 0 -292 61.5t-210 162.5t-127 234.5t-43 276.5zM330 723q0 -90 24.5 -171t72.5 -142.5t119.5 -97.5 t166.5 -36q96 0 168.5 36t121 97.5t73 142.5t24.5 171q0 88 -24.5 168t-73 141.5t-121 97t-168.5 35.5q-94 0 -166 -35.5t-120 -96t-72.5 -141.5t-24.5 -169zM403 1677q0 66 40 107t105 41q68 0 110 -41t42 -107t-42 -106.5t-110 -40.5q-66 0 -105.5 40.5t-39.5 106.5z M727 1677q0 66 39.5 107t105.5 41q68 0 110 -41t42 -107t-42 -106.5t-110 -40.5q-66 0 -105.5 40.5t-39.5 106.5z" />
<glyph unicode="&#xd7;" horiz-adv-x="905" d="M41 274l240 246q-57 57 -122 121t-118 117l168 174l240 -240l239 242l168 -174l-235 -236l243 -239l-172 -170l-239 235l-240 -239z" />
<glyph unicode="&#xd8;" horiz-adv-x="1429" d="M41 725q0 141 43 272t127 232.5t210 162t292 60.5q70 0 135 -12l72 194h258l-103 -280q78 -49 136.5 -117t98.5 -149.5t59.5 -174t19.5 -188.5q0 -143 -43 -276.5t-128 -234.5t-211 -162.5t-294 -61.5q-72 0 -135 12l-78 -213h-256l108 299q-78 49 -136 117.5t-97 151.5 t-58.5 176.5t-19.5 191.5zM330 723q0 -104 31.5 -195.5t97.5 -152.5l289 788q-10 2 -17.5 2h-17.5q-94 0 -166 -35.5t-120 -96t-72.5 -141.5t-24.5 -169zM678 276h35q96 0 168.5 36t121 97.5t73 142.5t24.5 171q0 102 -33 192.5t-98 151.5z" />
<glyph unicode="&#xd9;" horiz-adv-x="1259" d="M41 494v940h287v-916q0 -59 21.5 -103t57 -74t85 -46t104.5 -21q10 -2 12 -2h6h29h6t13 2q55 4 104 20.5t86 46.5t58.5 74t21.5 103v916h287v-940q-4 -109 -42 -195t-103.5 -150.5t-155 -104.5t-193.5 -52l-68 -6h-30q-53 0 -99 6q-102 14 -189 54t-152.5 103.5 t-103.5 150.5t-42 194zM393 1856h283l188 -232h-258z" />
<glyph unicode="&#xda;" horiz-adv-x="1259" d="M41 494v940h287v-916q0 -59 21.5 -103t57 -74t85 -46t104.5 -21q10 -2 12 -2h6h29h6t13 2q55 4 104 20.5t86 46.5t58.5 74t21.5 103v916h287v-940q-4 -109 -42 -195t-103.5 -150.5t-155 -104.5t-193.5 -52l-68 -6h-30q-53 0 -99 6q-102 14 -189 54t-152.5 103.5 t-103.5 150.5t-42 194zM393 1624l188 232h283l-213 -232h-258z" />
<glyph unicode="&#xdb;" horiz-adv-x="1259" d="M41 494v940h287v-916q0 -59 21.5 -103t57 -74t85 -46t104.5 -21q10 -2 12 -2h6h29h6t13 2q55 4 104 20.5t86 46.5t58.5 74t21.5 103v916h287v-940q-4 -109 -42 -195t-103.5 -150.5t-155 -104.5t-193.5 -52l-68 -6h-30q-53 0 -99 6q-102 14 -189 54t-152.5 103.5 t-103.5 150.5t-42 194zM240 1440l297 416h186l297 -416h-282l-109 160l-106 -160h-283z" />
<glyph unicode="&#xdc;" horiz-adv-x="1259" d="M41 494v940h287v-916q0 -59 21.5 -103t57 -74t85 -46t104.5 -21q10 -2 12 -2h6h29h6t13 2q55 4 104 20.5t86 46.5t58.5 74t21.5 103v916h287v-940q-4 -109 -42 -195t-103.5 -150.5t-155 -104.5t-193.5 -52l-68 -6h-30q-53 0 -99 6q-102 14 -189 54t-152.5 103.5 t-103.5 150.5t-42 194zM320 1677q0 66 40 107t105 41q68 0 110 -41t42 -107t-42 -106.5t-110 -40.5q-66 0 -105.5 40.5t-39.5 106.5zM644 1677q0 66 39.5 107t105.5 41q68 0 110 -41t42 -107t-42 -106.5t-110 -40.5q-66 0 -105.5 40.5t-39.5 106.5z" />
<glyph unicode="&#xdd;" horiz-adv-x="1417" d="M41 1434h342l324 -461l151 215l174 246h344l-524 -772q0 -74 -1 -152t-1 -156v-354h-287v666l-260 381zM473 1624l188 232h283l-213 -232h-258z" />
<glyph unicode="&#xde;" horiz-adv-x="927" d="M41 0v1446h276v-240h60q111 0 205 -25.5t161.5 -79.5t105.5 -138t38 -201q0 -125 -42 -213t-115 -143.5t-169 -81t-205 -25.5h-39v-299h-276zM317 575h25q45 0 93 6.5t88 27t64.5 56.5t24.5 97q0 53 -21.5 87t-55 53.5t-72.5 26.5t-76 7h-70v-361z" />
<glyph unicode="&#xdf;" horiz-adv-x="907" d="M41 0v930q0 106 15.5 188t54.5 137.5t105.5 84t168.5 28.5q80 0 145.5 -25.5t111.5 -70.5t71.5 -109.5t25.5 -140.5q0 -113 -25.5 -172t-70.5 -94q43 -16 83 -43t70.5 -69t50 -103.5t19.5 -149.5q0 -135 -54 -223t-141 -139.5t-195.5 -71.5t-215.5 -20v63h-219zM301 190 q55 2 110.5 15.5t98.5 39t70.5 62.5t27.5 90q0 45 -22.5 81t-63.5 61.5t-97 39t-124 15.5v-404zM301 842q27 4 57.5 18t57 38t44 56.5t17.5 71.5q0 47 -31.5 67.5t-60.5 20.5q-47 0 -65.5 -37t-18.5 -127v-108z" />
<glyph unicode="&#xe0;" horiz-adv-x="944" d="M41 313q0 90 34 159t90 115t131 68.5t157 22.5q49 0 92 -1t90 -11q-18 113 -160 112q-53 0 -98 -22.5t-109 -102.5l-196 172q92 106 188 157.5t219 51.5q94 0 172 -24.5t134.5 -71.5t87 -117.5t30.5 -163.5v-657h-266v20q-49 -20 -104.5 -25t-114.5 -5q-80 0 -148.5 20.5 t-120 61.5t-80 101t-28.5 140zM236 1434h283l188 -232h-258zM309 315q0 -37 36 -55t99 -18q57 0 107.5 19.5t85.5 62.5v75q-37 10 -78 13.5t-84 3.5q-31 0 -60.5 -5t-53 -16.5t-38 -31t-14.5 -48.5z" />
<glyph unicode="&#xe1;" horiz-adv-x="944" d="M41 313q0 90 34 159t90 115t131 68.5t157 22.5q49 0 92 -1t90 -11q-18 113 -160 112q-53 0 -98 -22.5t-109 -102.5l-196 172q92 106 188 157.5t219 51.5q94 0 172 -24.5t134.5 -71.5t87 -117.5t30.5 -163.5v-657h-266v20q-49 -20 -104.5 -25t-114.5 -5q-80 0 -148.5 20.5 t-120 61.5t-80 101t-28.5 140zM236 1202l188 232h283l-213 -232h-258zM309 315q0 -37 36 -55t99 -18q57 0 107.5 19.5t85.5 62.5v75q-37 10 -78 13.5t-84 3.5q-31 0 -60.5 -5t-53 -16.5t-38 -31t-14.5 -48.5z" />
<glyph unicode="&#xe2;" horiz-adv-x="944" d="M41 313q0 90 34 159t90 115t131 68.5t157 22.5q49 0 92 -1t90 -11q-18 113 -160 112q-53 0 -98 -22.5t-109 -102.5l-196 172q92 106 188 157.5t219 51.5q94 0 172 -24.5t134.5 -71.5t87 -117.5t30.5 -163.5v-657h-266v20q-49 -20 -104.5 -25t-114.5 -5q-80 0 -148.5 20.5 t-120 61.5t-80 101t-28.5 140zM82 1038l297 416h186l297 -416h-282l-109 160l-106 -160h-283zM309 315q0 -37 36 -55t99 -18q57 0 107.5 19.5t85.5 62.5v75q-37 10 -78 13.5t-84 3.5q-31 0 -60.5 -5t-53 -16.5t-38 -31t-14.5 -48.5z" />
<glyph unicode="&#xe3;" horiz-adv-x="944" d="M41 313q0 90 34 159t90 115t131 68.5t157 22.5q49 0 92 -1t90 -11q-18 113 -160 112q-53 0 -98 -22.5t-109 -102.5l-196 172q92 106 188 157.5t219 51.5q94 0 172 -24.5t134.5 -71.5t87 -117.5t30.5 -163.5v-657h-266v20q-49 -20 -104.5 -25t-114.5 -5q-80 0 -148.5 20.5 t-120 61.5t-80 101t-28.5 140zM92 1288q70 72 128 108t134 36q33 0 72 -11.5t86 -31.5q29 -14 45 -19.5t29 -5.5q10 0 23 5t42 22l66 41l135 -195q-49 -33 -86 -55.5t-68 -37t-58.5 -20.5t-60.5 -6q-39 0 -68.5 10.5t-64.5 26.5q-23 10 -47 22.5t-47 12.5q-8 0 -22.5 -8 t-32.5 -21l-76 -57zM309 315q0 -37 36 -55t99 -18q57 0 107.5 19.5t85.5 62.5v75q-37 10 -78 13.5t-84 3.5q-31 0 -60.5 -5t-53 -16.5t-38 -31t-14.5 -48.5z" />
<glyph unicode="&#xe4;" horiz-adv-x="944" d="M41 313q0 90 34 159t90 115t131 68.5t157 22.5q49 0 92 -1t90 -11q-18 113 -160 112q-53 0 -98 -22.5t-109 -102.5l-196 172q92 106 188 157.5t219 51.5q94 0 172 -24.5t134.5 -71.5t87 -117.5t30.5 -163.5v-657h-266v20q-49 -20 -104.5 -25t-114.5 -5q-80 0 -148.5 20.5 t-120 61.5t-80 101t-28.5 140zM162 1255q0 66 40 107t105 41q68 0 110 -41t42 -107t-42 -106.5t-110 -40.5q-66 0 -105.5 40.5t-39.5 106.5zM309 315q0 -37 36 -55t99 -18q57 0 107.5 19.5t85.5 62.5v75q-37 10 -78 13.5t-84 3.5q-31 0 -60.5 -5t-53 -16.5t-38 -31 t-14.5 -48.5zM486 1255q0 66 39.5 107t105.5 41q68 0 110 -41t42 -107t-42 -106.5t-110 -40.5q-66 0 -105.5 40.5t-39.5 106.5z" />
<glyph unicode="&#xe5;" horiz-adv-x="944" d="M41 313q0 90 34 159t90 115t131 68.5t157 22.5q49 0 92 -1t90 -11q-18 113 -160 112q-53 0 -98 -22.5t-109 -102.5l-196 172q92 106 188 157.5t219 51.5q94 0 172 -24.5t134.5 -71.5t87 -117.5t30.5 -163.5v-657h-266v20q-49 -20 -104.5 -25t-114.5 -5q-80 0 -148.5 20.5 t-120 61.5t-80 101t-28.5 140zM221 1194q0 100 64.5 170t185.5 70q123 0 186.5 -71t63.5 -169q0 -51 -16.5 -95t-48.5 -77t-78 -52.5t-107 -19.5q-121 0 -185.5 71t-64.5 173zM309 315q0 -37 36 -55t99 -18q57 0 107.5 19.5t85.5 62.5v75q-37 10 -78 13.5t-84 3.5 q-31 0 -60.5 -5t-53 -16.5t-38 -31t-14.5 -48.5zM444 1194q0 -16 6 -26.5t21 -10.5q31 0 31 37q0 14 -7.5 25.5t-23.5 11.5q-14 0 -20.5 -10.5t-6.5 -26.5z" />
<glyph unicode="&#xe6;" horiz-adv-x="1607" d="M41 313q0 90 34 159t90 115t131 68.5t157 22.5q49 0 92 -1t90 -11q-18 113 -160 112q-53 0 -98 -22.5t-109 -102.5l-196 172q92 106 188 157.5t219 51.5q205 0 318 -108q63 55 142 81.5t167 26.5q229 0 345 -156.5t116 -455.5h-649q20 -86 77.5 -132t143.5 -46 q59 0 122.5 32.5t131.5 108.5l174 -182l-41 -47q-72 -80 -167 -122t-229 -42q-129 0 -227 47v-39h-266v20q-49 -20 -104.5 -25t-114.5 -5q-80 0 -148.5 20.5t-120 61.5t-80 101t-28.5 140zM309 315q0 -37 36 -55t99 -18q57 0 107.5 19.5t85.5 62.5v75q-37 10 -78 13.5 t-84 3.5q-31 0 -60.5 -5t-53 -16.5t-38 -31t-14.5 -48.5zM930 674h354q-16 51 -61 82.5t-117 31.5q-74 0 -115 -29.5t-61 -84.5z" />
<glyph unicode="&#xe7;" horiz-adv-x="995" d="M41 516q0 109 30.5 204t92 165.5t152 110.5t208.5 40q125 0 229.5 -59t196.5 -160l-186 -180q-59 66 -117.5 105.5t-118.5 39.5q-59 0 -100 -21.5t-67.5 -57t-38 -83t-11.5 -100.5t12.5 -102t39 -87t68.5 -61.5t99 -23.5q59 0 124 35.5t132 113.5l168 -182l-45 -61 q-88 -94 -209 -134q0 -10 1 -18t1 -16q0 -133 -74.5 -206t-199.5 -73q-45 0 -101.5 19.5t-117.5 52.5l80 223q41 -25 80 -44t57 -19t30.5 12t12.5 41v8q-111 10 -191.5 56t-133 117t-78 160t-25.5 185z" />
<glyph unicode="&#xe8;" horiz-adv-x="1011" d="M41 506q0 135 37 234.5t101.5 165t149.5 97t181 31.5q229 0 345 -156.5t116 -455.5h-649q20 -86 77.5 -132t143.5 -46q59 0 122.5 32.5t131.5 108.5l174 -182l-41 -47q-72 -80 -167 -122t-228 -42q-125 0 -217.5 42t-154 113.5t-92 163.5t-30.5 195zM270 1434h283 l188 -232h-258zM334 674h354q-16 51 -61 82.5t-117 31.5q-74 0 -115 -29.5t-61 -84.5z" />
<glyph unicode="&#xe9;" horiz-adv-x="1011" d="M41 506q0 135 37 234.5t101.5 165t149.5 97t181 31.5q229 0 345 -156.5t116 -455.5h-649q20 -86 77.5 -132t143.5 -46q59 0 122.5 32.5t131.5 108.5l174 -182l-41 -47q-72 -80 -167 -122t-228 -42q-125 0 -217.5 42t-154 113.5t-92 163.5t-30.5 195zM270 1202l188 232 h283l-213 -232h-258zM334 674h354q-16 51 -61 82.5t-117 31.5q-74 0 -115 -29.5t-61 -84.5z" />
<glyph unicode="&#xea;" horiz-adv-x="1011" d="M41 506q0 135 37 234.5t101.5 165t149.5 97t181 31.5q229 0 345 -156.5t116 -455.5h-649q20 -86 77.5 -132t143.5 -46q59 0 122.5 32.5t131.5 108.5l174 -182l-41 -47q-72 -80 -167 -122t-228 -42q-125 0 -217.5 42t-154 113.5t-92 163.5t-30.5 195zM115 1038l297 416 h186l297 -416h-282l-109 160l-106 -160h-283zM334 674h354q-16 51 -61 82.5t-117 31.5q-74 0 -115 -29.5t-61 -84.5z" />
<glyph unicode="&#xeb;" horiz-adv-x="1011" d="M41 506q0 135 37 234.5t101.5 165t149.5 97t181 31.5q229 0 345 -156.5t116 -455.5h-649q20 -86 77.5 -132t143.5 -46q59 0 122.5 32.5t131.5 108.5l174 -182l-41 -47q-72 -80 -167 -122t-228 -42q-125 0 -217.5 42t-154 113.5t-92 163.5t-30.5 195zM195 1255 q0 66 40 107t105 41q68 0 110 -41t42 -107t-42 -106.5t-110 -40.5q-66 0 -105.5 40.5t-39.5 106.5zM334 674h354q-16 51 -61 82.5t-117 31.5q-74 0 -115 -29.5t-61 -84.5zM519 1255q0 66 39.5 107t105.5 41q68 0 110 -41t42 -107t-42 -106.5t-110 -40.5q-66 0 -105.5 40.5 t-39.5 106.5z" />
<glyph unicode="&#xec;" horiz-adv-x="376" d="M-129 1434h283l188 -232h-258zM55 0v1024h269v-1024h-269z" />
<glyph unicode="&#xed;" horiz-adv-x="376" d="M35 1202l188 232h283l-213 -232h-258zM55 0v1024h269v-1024h-269z" />
<glyph unicode="&#xee;" horiz-adv-x="376" d="M-201 1038l297 416h187l297 -416h-283l-109 160l-106 -160h-283zM55 0v1024h269v-1024h-269z" />
<glyph unicode="&#xef;" horiz-adv-x="376" d="M-121 1255q0 66 40 107t106 41q68 0 109.5 -41t41.5 -107t-42 -106.5t-109 -40.5q-66 0 -106 40.5t-40 106.5zM55 0v1024h269v-1024h-269zM203 1255q0 66 40 107t105 41q68 0 110 -41t42 -107t-42 -106.5t-110 -40.5q-66 0 -105.5 40.5t-39.5 106.5z" />
<glyph unicode="&#xf1;" horiz-adv-x="962" d="M41 0v1026h268v-37q92 51 217 51q82 0 154 -24.5t126 -72.5t85 -118.5t31 -165.5v-659h-267v635q0 76 -44 111.5t-111 35.5q-35 0 -69 -13t-60.5 -33.5t-44 -45t-17.5 -45.5v-645h-268zM100 1288q70 72 128 108t134 36q33 0 72 -11.5t86 -31.5q29 -14 45 -19.5t29 -5.5 q10 0 23 5t42 22l66 41l135 -195q-49 -33 -86 -55.5t-68 -37t-58.5 -20.5t-60.5 -6q-39 0 -68.5 10.5t-64.5 26.5q-23 10 -47 22.5t-47 12.5q-8 0 -22.5 -8t-32.5 -21l-76 -57z" />
<glyph unicode="&#xf2;" horiz-adv-x="1048" d="M41 512q0 111 30.5 206t90 165.5t149.5 110.5t211 40q123 0 214 -41t151.5 -112.5t90.5 -167.5t30 -207q0 -109 -30 -203t-90.5 -164.5t-151.5 -110.5t-214 -40q-121 0 -211 41t-149.5 111.5t-90 166.5t-30.5 205zM289 1434h283l188 -232h-258zM317 510 q0 -59 11.5 -110.5t36 -89.5t63.5 -59.5t94 -21.5q113 0 161 79t48 200q0 61 -11 112.5t-36 88t-64.5 58t-97.5 21.5q-111 0 -158 -77.5t-47 -200.5z" />
<glyph unicode="&#xf3;" horiz-adv-x="1048" d="M41 512q0 111 30.5 206t90 165.5t149.5 110.5t211 40q123 0 214 -41t151.5 -112.5t90.5 -167.5t30 -207q0 -109 -30 -203t-90.5 -164.5t-151.5 -110.5t-214 -40q-121 0 -211 41t-149.5 111.5t-90 166.5t-30.5 205zM289 1202l188 232h283l-213 -232h-258zM317 510 q0 -59 11.5 -110.5t36 -89.5t63.5 -59.5t94 -21.5q113 0 161 79t48 200q0 61 -11 112.5t-36 88t-64.5 58t-97.5 21.5q-111 0 -158 -77.5t-47 -200.5z" />
<glyph unicode="&#xf4;" horiz-adv-x="1048" d="M41 512q0 111 30.5 206t90 165.5t149.5 110.5t211 40q123 0 214 -41t151.5 -112.5t90.5 -167.5t30 -207q0 -109 -30 -203t-90.5 -164.5t-151.5 -110.5t-214 -40q-121 0 -211 41t-149.5 111.5t-90 166.5t-30.5 205zM133 1038l297 416h186l297 -416h-282l-109 160 l-106 -160h-283zM317 510q0 -59 11.5 -110.5t36 -89.5t63.5 -59.5t94 -21.5q113 0 161 79t48 200q0 61 -11 112.5t-36 88t-64.5 58t-97.5 21.5q-111 0 -158 -77.5t-47 -200.5z" />
<glyph unicode="&#xf5;" horiz-adv-x="1048" d="M41 512q0 111 30.5 206t90 165.5t149.5 110.5t211 40q123 0 214 -41t151.5 -112.5t90.5 -167.5t30 -207q0 -109 -30 -203t-90.5 -164.5t-151.5 -110.5t-214 -40q-121 0 -211 41t-149.5 111.5t-90 166.5t-30.5 205zM143 1288q70 72 128 108t134 36q33 0 72 -11.5t86 -31.5 q29 -14 45 -19.5t29 -5.5q10 0 23 5t42 22l66 41l135 -195q-49 -33 -86 -55.5t-68 -37t-58.5 -20.5t-60.5 -6q-39 0 -68.5 10.5t-64.5 26.5q-23 10 -47 22.5t-47 12.5q-8 0 -22.5 -8t-32.5 -21l-76 -57zM317 510q0 -59 11.5 -110.5t36 -89.5t63.5 -59.5t94 -21.5 q113 0 161 79t48 200q0 61 -11 112.5t-36 88t-64.5 58t-97.5 21.5q-111 0 -158 -77.5t-47 -200.5z" />
<glyph unicode="&#xf6;" horiz-adv-x="1048" d="M41 512q0 111 30.5 206t90 165.5t149.5 110.5t211 40q123 0 214 -41t151.5 -112.5t90.5 -167.5t30 -207q0 -109 -30 -203t-90.5 -164.5t-151.5 -110.5t-214 -40q-121 0 -211 41t-149.5 111.5t-90 166.5t-30.5 205zM213 1255q0 66 40 107t105 41q68 0 110 -41t42 -107 t-42 -106.5t-110 -40.5q-66 0 -105.5 40.5t-39.5 106.5zM317 510q0 -59 11.5 -110.5t36 -89.5t63.5 -59.5t94 -21.5q113 0 161 79t48 200q0 61 -11 112.5t-36 88t-64.5 58t-97.5 21.5q-111 0 -158 -77.5t-47 -200.5zM537 1255q0 66 39.5 107t105.5 41q68 0 110 -41t42 -107 t-42 -106.5t-110 -40.5q-66 0 -105.5 40.5t-39.5 106.5z" />
<glyph unicode="&#xf7;" horiz-adv-x="397" d="M41 158q0 66 43 112.5t115 46.5q66 0 111.5 -47t45.5 -112q0 -72 -46 -115t-111 -43q-72 0 -115 43t-43 115zM41 862q0 68 43 114t115 46q66 0 111.5 -46t45.5 -114q0 -70 -46 -113.5t-111 -43.5q-72 0 -115 43.5t-43 113.5z" />
<glyph unicode="&#xf8;" horiz-adv-x="1050" d="M41 520q0 111 30.5 206t91 166t152 110.5t211.5 39.5h37t33 -4q16 41 33.5 88.5t29.5 81.5h259l-99 -260q98 -72 144.5 -184.5t46.5 -249.5q0 -109 -31 -203t-91.5 -164.5t-150.5 -110.5t-211 -40h-73l-15 -37l2 2q-12 -29 -27.5 -67.5t-21.5 -61.5h-258l96 254 q-96 72 -142 185.5t-46 248.5zM319 518q0 -43 3.5 -76.5t15.5 -66.5l164 420q-100 -8 -141.5 -85t-41.5 -192zM547 238q100 10 142 86.5t42 191.5q0 41 -6 80t-16 68l-70 -185z" />
<glyph unicode="&#xf9;" horiz-adv-x="987" d="M41 369v655h270v-631q0 -76 50.5 -112.5t117.5 -36.5q76 0 122 25.5t75 66.5v688h270v-1024h-264v29q-94 -41 -231 -41q-86 0 -161 24.5t-130.5 72.5t-87 118.5t-31.5 165.5zM258 1434h283l188 -232h-258z" />
<glyph unicode="&#xfa;" horiz-adv-x="987" d="M41 369v655h270v-631q0 -76 50.5 -112.5t117.5 -36.5q76 0 122 25.5t75 66.5v688h270v-1024h-264v29q-94 -41 -231 -41q-86 0 -161 24.5t-130.5 72.5t-87 118.5t-31.5 165.5zM258 1202l188 232h283l-213 -232h-258z" />
<glyph unicode="&#xfb;" horiz-adv-x="987" d="M41 369v655h270v-631q0 -76 50.5 -112.5t117.5 -36.5q76 0 122 25.5t75 66.5v688h270v-1024h-264v29q-94 -41 -231 -41q-86 0 -161 24.5t-130.5 72.5t-87 118.5t-31.5 165.5zM102 1038l297 416h186l297 -416h-282l-109 160l-106 -160h-283z" />
<glyph unicode="&#xfc;" horiz-adv-x="987" d="M41 369v655h270v-631q0 -76 50.5 -112.5t117.5 -36.5q76 0 122 25.5t75 66.5v688h270v-1024h-264v29q-94 -41 -231 -41q-86 0 -161 24.5t-130.5 72.5t-87 118.5t-31.5 165.5zM182 1255q0 66 40 107t105 41q68 0 110 -41t42 -107t-42 -106.5t-110 -40.5q-66 0 -105.5 40.5 t-39.5 106.5zM506 1255q0 66 39.5 107t105.5 41q68 0 110 -41t42 -107t-42 -106.5t-110 -40.5q-66 0 -105.5 40.5t-39.5 106.5z" />
<glyph unicode="&#xfd;" horiz-adv-x="1157" d="M41 1024h299l242 -606l241 606h293l-438 -1071q-37 -127 -157 -215t-306 -109l-59 244q37 8 86 21.5t93 34t75.5 50t35.5 68.5zM342 1202l188 232h283l-213 -232h-258z" />
<glyph unicode="&#xfe;" horiz-adv-x="995" d="M41 115v1347h270v-436q29 6 54.5 8t56.5 2q100 0 196.5 -29.5t171 -93t119.5 -162t45 -235.5q0 -115 -36.5 -210t-106.5 -164.5t-170 -108.5t-225 -39h-54.5t-50.5 4v-369h-268zM311 256q27 -6 57.5 -8t59.5 -2q119 0 184.5 73.5t65.5 194.5q0 129 -71.5 198.5 t-194.5 69.5q-23 0 -49.5 -4t-51.5 -10v-512z" />
<glyph unicode="&#xff;" horiz-adv-x="1157" d="M41 1024h299l242 -606l241 606h293l-438 -1071q-37 -127 -157 -215t-306 -109l-59 244q37 8 86 21.5t93 34t75.5 50t35.5 68.5zM268 1255q0 66 40 107t105 41q68 0 110 -41t42 -107t-42 -106.5t-110 -40.5q-66 0 -105.5 40.5t-39.5 106.5zM592 1255q0 66 39.5 107 t105.5 41q68 0 110 -41t42 -107t-42 -106.5t-110 -40.5q-66 0 -105.5 40.5t-39.5 106.5z" />
<glyph unicode="&#x152;" horiz-adv-x="1720" d="M41 715q0 147 44 278t131 228.5t216 155t299 57.5h909v-271h-608v-280h549v-269h-549v-344h647v-270h-948q-178 0 -308 57.5t-215 154.5t-126 227t-41 276zM330 717q0 -102 28.5 -185t83 -141.5t130 -90.5t169.5 -32h7v899h-7q-102 0 -179 -33.5t-129 -94t-77.5 -142.5 t-25.5 -180z" />
<glyph unicode="&#x153;" horiz-adv-x="1705" d="M41 512q0 111 30.5 206t90 165.5t149.5 110.5t211 40q115 0 201 -35.5t145 -99.5q66 68 152 101.5t184 33.5q229 0 345 -156.5t116 -455.5h-649q20 -86 77.5 -132t143.5 -46q59 0 122.5 32.5t131.5 108.5l174 -182l-41 -47q-72 -80 -167 -122t-228 -42q-117 0 -204 35.5 t-148 99.5q-61 -66 -149.5 -102.5t-205.5 -36.5q-121 0 -211 41t-149.5 111.5t-90 166.5t-30.5 205zM317 510q0 -59 11.5 -110.5t36 -89.5t63.5 -59.5t94 -21.5q113 0 161 79t48 200q0 61 -11 112.5t-36 88t-64.5 58t-97.5 21.5q-111 0 -158 -77.5t-47 -200.5zM1028 674h354 q-16 51 -61 82.5t-117 31.5q-74 0 -114.5 -29.5t-61.5 -84.5z" />
<glyph unicode="&#x178;" horiz-adv-x="1417" d="M41 1434h342l324 -461l151 215l174 246h344l-524 -772q0 -74 -1 -152t-1 -156v-354h-287v666l-260 381zM397 1677q0 66 40 107t105 41q68 0 110 -41t42 -107t-42 -106.5t-110 -40.5q-66 0 -105.5 40.5t-39.5 106.5zM721 1677q0 66 39.5 107t105.5 41q68 0 110 -41 t42 -107t-42 -106.5t-110 -40.5q-66 0 -105.5 40.5t-39.5 106.5z" />
<glyph unicode="&#x2c6;" horiz-adv-x="862" d="M41 1018l297 416h186l297 -416h-282l-109 160l-106 -160h-283z" />
<glyph unicode="&#x2dc;" horiz-adv-x="841" d="M41 1288q70 72 128 108t134 36q33 0 72 -11.5t86 -31.5q29 -14 45 -19.5t29 -5.5q10 0 23 5t42 22l66 41l135 -195q-49 -33 -86 -55.5t-68 -37t-58.5 -20.5t-60.5 -6q-39 0 -68.5 10.5t-64.5 26.5q-23 10 -47 22.5t-47 12.5q-8 0 -22.5 -8t-32.5 -21l-76 -57z" />
<glyph unicode="&#x2000;" horiz-adv-x="928" />
<glyph unicode="&#x2001;" horiz-adv-x="1856" />
<glyph unicode="&#x2002;" horiz-adv-x="928" />
<glyph unicode="&#x2003;" horiz-adv-x="1856" />
<glyph unicode="&#x2004;" horiz-adv-x="618" />
<glyph unicode="&#x2005;" horiz-adv-x="464" />
<glyph unicode="&#x2006;" horiz-adv-x="309" />
<glyph unicode="&#x2007;" horiz-adv-x="309" />
<glyph unicode="&#x2008;" horiz-adv-x="232" />
<glyph unicode="&#x2009;" horiz-adv-x="371" />
<glyph unicode="&#x200a;" horiz-adv-x="103" />
<glyph unicode="&#x2010;" horiz-adv-x="579" d="M41 391v248h498v-248h-498z" />
<glyph unicode="&#x2011;" horiz-adv-x="579" d="M41 391v248h498v-248h-498z" />
<glyph unicode="&#x2012;" horiz-adv-x="579" d="M41 391v248h498v-248h-498z" />
<glyph unicode="&#x2013;" horiz-adv-x="1034" d="M41 360v242h952v-242h-952z" />
<glyph unicode="&#x2014;" horiz-adv-x="1421" d="M41 360v242h1339v-242h-1339z" />
<glyph unicode="&#x2018;" horiz-adv-x="481" d="M41 1126l143 312h256l-137 -312h-262z" />
<glyph unicode="&#x2019;" horiz-adv-x="481" d="M41 1126l143 312h256l-137 -312h-262z" />
<glyph unicode="&#x201a;" horiz-adv-x="550" d="M41 -154l209 476h260l-246 -476h-223z" />
<glyph unicode="&#x201c;" horiz-adv-x="765" d="M41 1124l143 310h256l-137 -310h-262zM324 1124l145 310h256l-139 -310h-262z" />
<glyph unicode="&#x201d;" horiz-adv-x="765" d="M41 1124l143 310h256l-137 -310h-262zM324 1124l145 310h256l-139 -310h-262z" />
<glyph unicode="&#x201e;" horiz-adv-x="749" d="M41 -268l131 575h264l-160 -575h-235zM315 -268l127 575h267l-160 -575h-234z" />
<glyph unicode="&#x2022;" horiz-adv-x="555" d="M41 479q0 51 17.5 95t49 77t74.5 50.5t94 17.5t94.5 -17.5t75 -50.5t50 -77t18.5 -95q0 -104 -67.5 -168.5t-170.5 -64.5q-104 0 -169.5 64.5t-65.5 168.5z" />
<glyph unicode="&#x2026;" horiz-adv-x="1200" d="M41 154q0 66 43 110.5t111 44.5q66 0 110.5 -45t44.5 -110q0 -68 -45 -111t-110 -43q-68 0 -111 43t-43 111zM444 154q0 66 42 110.5t114 44.5q66 0 110 -45t44 -110q0 -68 -44 -111t-110 -43q-72 0 -114 43t-42 111zM848 154q0 66 42 110.5t114 44.5q66 0 110.5 -45 t44.5 -110q0 -68 -45 -111t-110 -43q-72 0 -114 43t-42 111z" />
<glyph unicode="&#x202f;" horiz-adv-x="371" />
<glyph unicode="&#x2039;" horiz-adv-x="675" d="M41 481l303 365h291l-289 -365q37 -45 72 -87t69 -87l148 -188h-291z" />
<glyph unicode="&#x203a;" horiz-adv-x="661" d="M41 119l268 362l-92 125l-176 240h278l302 -365l-302 -362h-278z" />
<glyph unicode="&#x205f;" horiz-adv-x="464" />
<glyph unicode="&#x20ac;" horiz-adv-x="1101" d="M41 344v250h137v12v27h-137v248h178q25 74 62.5 137t90 111.5t120 75t151.5 26.5q127 0 230.5 -76t187.5 -194l-191 -201q-45 66 -88 119v-246h-342v-39h342v-250h-280q25 -37 62.5 -65.5t80.5 -28.5q49 0 104.5 50t120.5 146l185 -188l-25 -45q-72 -104 -167 -163.5 t-220 -59.5q-86 0 -154.5 26.5t-122 74.5t-91 112.5t-62.5 140.5h-172zM512 881h266q-37 45 -70.5 69.5t-62.5 24.5q-39 0 -74.5 -28.5t-58.5 -65.5z" />
<glyph unicode="&#x2122;" horiz-adv-x="1640" d="M41 1169v263h629v-263h-174v-751h-279v751h-176zM684 422v1010h229l228 -416l229 416h229v-1010h-276v377l-90 -168l-92 -178l-180 333v-364h-277z" />
<glyph unicode="&#x25fc;" horiz-adv-x="1024" d="M0 0v1024h1024v-1024h-1024z" />
</font>
</defs>
</svg>
