<?xml version="1.0" standalone="no"?>
<!DOCTYPE svg PUBLIC "-//W3C//DTD SVG 1.1//EN" "http://www.w3.org/Graphics/SVG/1.1/DTD/svg11.dtd" >
<svg xmlns="http://www.w3.org/2000/svg">
<metadata></metadata>
<defs>
<font id="berlinitalic" horiz-adv-x="1265" >
<font-face units-per-em="2048" ascent="1536" descent="-512" />
<missing-glyph horiz-adv-x="516" />
<glyph horiz-adv-x="2048" />
<glyph horiz-adv-x="2048" />
<glyph unicode="&#xd;" horiz-adv-x="681" />
<glyph unicode=" "  horiz-adv-x="516" />
<glyph unicode="&#x09;" horiz-adv-x="516" />
<glyph unicode="&#xa0;" horiz-adv-x="516" />
<glyph unicode="!" horiz-adv-x="501" d="M49 88q8 41 38 66.5t69 25.5q41 0 61.5 -25.5t11.5 -66.5q-8 -39 -38.5 -63.5t-71.5 -24.5q-39 0 -58.5 24.5t-11.5 63.5zM109 397l192 1033h160l-193 -1033h-159z" />
<glyph unicode="&#x22;" horiz-adv-x="499" d="M41 932l90 502h123l-123 -502h-90zM246 932l88 502h125l-123 -502h-90z" />
<glyph unicode="#" horiz-adv-x="1038" d="M41 260l25 113h180q12 31 27.5 65.5t29.5 67.5l59 135h-239l24 115h263l49 118l59 140h107l-105 -258h213l74 178l31 80h110l-108 -258h157l-24 -115h-180q-12 -33 -27.5 -66.5t-30.5 -68.5q-14 -35 -27.5 -66.5t-27.5 -66.5h235l-24 -113h-256q-12 -33 -26.5 -67.5 t-28.5 -65.5l-52 -127h-112l106 260h-215q-10 -29 -22.5 -58.5t-24.5 -58.5q-12 -35 -28.5 -71.5t-28.5 -71.5h-107l103 260h-158zM356 373h213l117 268h-213l-59 -135q-16 -35 -29.5 -66.5z" />
<glyph unicode="$" horiz-adv-x="1185" d="M41 205l135 108q45 -72 108.5 -116.5t161.5 -55.5l93 430q-63 18 -122 42t-103 61t-62.5 93t0.5 140q12 57 42 112.5t81 100.5t127 75t176 36l43 203h133l-43 -203q227 -18 334 -195l-131 -96q-63 129 -232 154l-86 -406q66 -20 128.5 -45t107.5 -62.5t65 -96t2 -144.5 q-33 -147 -151.5 -232t-296.5 -102l-45 -211h-133l45 209q-127 6 -219.5 54t-157.5 147zM411 854q9 -31 31.5 -54.5t55 -41t73.5 -31.5l78 369q-113 -10 -168 -56t-69 -114q-10 -41 -1 -72zM580 141q113 12 177.5 59t80.5 119q10 47 -0.5 81t-34 59.5t-60 44t-79.5 33.5z " />
<glyph unicode="%" horiz-adv-x="1288" d="M41 0l1065 1430h141l-1065 -1430h-141zM309 1229q18 86 87 143.5t167 57.5q104 0 145 -57.5t23 -143.5q-18 -84 -83.5 -142.5t-170.5 -58.5q-98 0 -141 59.5t-27 141.5zM412 1229q-10 -47 7 -81t77 -34q59 0 92 32t43 83q10 49 -7.5 85t-76.5 36t-92 -35t-43 -86z M573 201q18 86 87 143t167 57q104 0 145 -57t23 -143q-16 -84 -81.5 -142.5t-170.5 -58.5q-98 0 -142 59.5t-28 141.5zM680 201q-10 -47 5 -81t75 -34q59 0 92 33t43 82t-7.5 85t-76.5 36t-89 -35t-42 -86z" />
<glyph unicode="&#x26;" horiz-adv-x="1294" d="M78 397q27 129 132 228.5t300 195.5q-57 100 -82 173t-12 132q29 135 145 222q121 90 275 90q143 0 219 -88q74 -86 45 -213q-10 -53 -38 -97.5t-72 -84.5t-107.5 -78.5t-143.5 -81.5l230 -381q37 39 73.5 99t59.5 153h151q-33 -111 -83 -206t-119 -181l108 -181 q-39 -29 -77 -55.5t-74 -52.5l-93 155q-211 -160 -473 -159q-195 0 -301 118q-100 119 -63 293zM254 410q-25 -119 37 -201q63 -88 184 -88q203 0 373 143l-275 451q-74 -39 -130 -74t-94 -70.5t-61.5 -74.5t-33.5 -86zM582 1143q-8 -39 8 -83t45 -99l41 -62 q121 57 183.5 105.5t78.5 130.5q18 80 -24 130t-115 50q-76 0 -138.5 -48t-78.5 -124z" />
<glyph unicode="'" horiz-adv-x="294" d="M41 932l90 502h123l-123 -502h-90z" />
<glyph unicode="(" horiz-adv-x="770" d="M42 399q-1 133 32 293q35 160 93 293t130 243.5t150.5 202t154.5 164.5h127q-88 -88 -170 -186t-150.5 -208.5t-122 -237.5t-83.5 -271q-31 -145 -32 -271t20.5 -236.5t62.5 -209t92 -186.5h-127q-45 76 -86 166t-65.5 200.5t-25.5 243.5z" />
<glyph unicode=")" horiz-adv-x="768" d="M41 -211q86 88 168 186.5t150.5 209t120.5 236.5t83 271q31 143 33 270.5t-19.5 238t-62.5 208.5t-92 186h127q43 -74 85 -165t66.5 -201.5t25.5 -243.5t-34 -293q-33 -160 -91 -293t-130 -243.5t-151.5 -200.5t-153.5 -166h-125z" />
<glyph unicode="*" horiz-adv-x="765" d="M41 1147l49 90l240 -86l59 283h103l-58 -283l283 84l8 -90l-287 -96l127 -224l-88 -57l-129 219l-219 -217l-70 55l209 230z" />
<glyph unicode="+" horiz-adv-x="1007" d="M41 461l25 112h393l84 396h112l-84 -396h396l-25 -112h-395l-82 -393h-113l82 393h-393z" />
<glyph unicode="," horiz-adv-x="450" d="M41 -297l238 502h131l-248 -502h-121z" />
<glyph unicode="-" horiz-adv-x="516" d="M41 455l25 120h409l-24 -120h-410z" />
<glyph unicode="." horiz-adv-x="299" d="M51 98q8 43 42 72t77 29t65.5 -29t14.5 -72q-10 -43 -44 -70.5t-77 -27.5t-65.5 27.5t-12.5 70.5z" />
<glyph unicode="/" horiz-adv-x="1052" d="M41 0l854 1434h117l-854 -1434h-117z" />
<glyph unicode="0" horiz-adv-x="1153" d="M44 399q-9 133 26 299q35 164 100.5 297t153.5 226.5t192.5 144.5t214.5 51q111 0 192 -51t129 -144.5t57 -226.5t-26 -297q-35 -166 -100 -299t-152.5 -225t-190.5 -142t-214 -50t-193.5 50t-131 142t-57.5 225zM173 451.5q5 -109.5 41 -186.5t96.5 -118t142.5 -41 q78 0 154.5 41t142 118t118 186.5t80.5 246.5q29 135 24 245t-39 185.5t-93.5 116.5t-137.5 41q-82 0 -159.5 -41t-145 -116.5t-120 -185t-80.5 -245.5q-29 -137 -24 -246.5z" />
<glyph unicode="1" horiz-adv-x="526" d="M41 0l293 1380l151 54l-303 -1434h-141z" />
<glyph unicode="2" horiz-adv-x="1097" d="M41 0l31 147l514 453q45 43 97 92t98 102.5t80 106.5t44 107q12 57 4 108t-36.5 89t-75.5 59.5t-113 21.5q-102 0 -181 -49t-126 -135l-96 98q76 104 191.5 167t242.5 63q98 0 168.5 -32t113.5 -89.5t55.5 -135t-8.5 -172.5q-12 -66 -50 -130t-89 -125.5t-107.5 -117 t-107.5 -100.5l-235 -211l-203 -182h653l-28 -135h-836z" />
<glyph unicode="3" horiz-adv-x="1146" d="M41 158l135 96q41 -74 112.5 -106.5t162.5 -32.5q160 0 268 74.5t137 207.5q31 143 -65.5 215t-294.5 72h-47l30 141h51q76 0 143.5 16.5t121 48.5t90.5 80t51 111q10 49 -3 92.5t-45 75t-80 49t-108 17.5q-104 0 -177.5 -32t-141.5 -97l-88 90q98 86 197.5 126t234.5 40 q92 0 167 -22.5t125 -66.5t69.5 -111.5t0.5 -158.5q-25 -119 -104.5 -200.5t-191.5 -116.5q121 -35 184.5 -125t30.5 -244q-23 -102 -79.5 -178t-134 -128t-174 -77.5t-194.5 -25.5q-135 0 -223 40t-160 130z" />
<glyph unicode="4" horiz-adv-x="1136" d="M41 383l25 109l901 940h129l-193 -904h129l-31 -145h-129l-79 -381h-144l80 381h-688zM270 528h490l135 643z" />
<glyph unicode="5" horiz-adv-x="1161" d="M41 164l131 100q39 -72 118 -100.5t171 -28.5q76 0 145.5 27.5t127 75t98 111t57.5 134.5q35 168 -59.5 254t-284.5 86q-31 0 -70 -3t-78 -7t-76.5 -11t-68.5 -16l199 648h669l-30 -146h-547l-101 -334q35 4 81 6.5t81 2.5q106 0 196.5 -26t151 -82t84 -146t-3.5 -217 q-20 -94 -76.5 -183.5t-136.5 -160t-180 -113.5t-209 -43q-139 0 -228 43t-161 129z" />
<glyph unicode="6" horiz-adv-x="1083" d="M52 335.5q-11 104.5 16 223.5q29 141 101.5 283.5t190 263.5t283.5 210t385 128l14 -125q-301 -68 -481 -199t-274 -348l-2 -2q92 72 181 99.5t208 27.5q82 0 150.5 -30.5t115.5 -87t64.5 -138.5t-5.5 -184t-74 -188.5t-125.5 -149t-168.5 -98t-201 -35.5 q-117 0 -197.5 45t-125 122.5t-55.5 182zM198 371.5q7 -74.5 39.5 -131t89 -90t138.5 -33.5q74 0 138.5 24.5t114.5 68.5t86 105.5t50 133.5t3 129t-42 97t-81 60.5t-111 20.5q-104 0 -205 -42t-187 -110q-6 -16 -13 -36t-11 -40q-16 -82 -9 -156.5z" />
<glyph unicode="7" horiz-adv-x="1085" d="M41 4l8 43q20 90 50 168t74 157t105.5 166t143.5 194.5t184.5 243.5t231.5 312h-668l31 146h843l-22 -111l-336 -438q-86 -115 -166 -222.5t-145.5 -211t-113.5 -202.5t-68 -198l-11 -47h-141z" />
<glyph unicode="8" horiz-adv-x="1208" d="M58.5 235.5q-17.5 71.5 2.5 161.5q33 154 133.5 244t237.5 125q-96 35 -141 117t-21 200q18 90 66.5 158t117 112t153.5 66.5t177 22.5h9q76 0 131 -19q121 -31 182 -114.5t31 -225.5q-25 -119 -105 -200.5t-192 -116.5q121 -35 184 -125t31 -244q-20 -90 -66.5 -161.5 t-113 -122t-147.5 -81t-169 -38.5l-27 -4q-10 0 -18 -1t-18 -1h-2h-21h-6h-18l-64 6q-84 8 -152.5 38.5t-112.5 81t-61.5 122zM215 397q-18 -80 2 -141q41 -68 117 -102.5t162 -34.5t178 33.5t164 103.5q45 57 63 141q27 129 -48 200t-235 83q-166 -12 -271 -83t-132 -200z M418 1081q-12 -55 1 -99t44 -76t79 -51t109 -26q59 6 115.5 25.5t101.5 51.5t77 76t44 99q10 49 -3 91t-46 72t-83 46.5t-109 16.5h-7q-57 -2 -111.5 -19.5t-98.5 -47.5t-73.5 -70t-39.5 -89z" />
<glyph unicode="9" horiz-adv-x="1083" d="M41 111q150 33 269.5 82t211.5 115.5t160 153.5t117 195v2q-90 -72 -179.5 -99.5t-207.5 -27.5q-82 0 -152 31t-116 87.5t-63.5 138t3.5 184.5q23 100 74 187t125.5 149.5t168 98.5t201.5 36q117 0 198 -45t126 -123t55.5 -182.5t-14.5 -223.5q-31 -141 -102.5 -283.5 t-189.5 -263t-285 -209.5t-386 -128zM226.5 852q11.5 -57 43 -97t80.5 -60.5t111 -20.5q104 0 204.5 42t186.5 109q8 16 14.5 36t10.5 40q18 82 10 157t-40 131t-88.5 90t-137.5 34q-74 0 -138.5 -24.5t-115 -68.5t-86 -105.5t-52.5 -133.5q-14 -72 -2.5 -129z" />
<glyph unicode=":" horiz-adv-x="475" d="M51 98q8 43 42 72t77 29t65.5 -29t14.5 -72q-10 -43 -44 -70.5t-77 -27.5t-65.5 27.5t-12.5 70.5zM225 922q10 43 44 71.5t77 28.5t65.5 -28.5t12.5 -71.5q-8 -43 -43 -71t-78 -28t-64.5 28t-13.5 71z" />
<glyph unicode=";" horiz-adv-x="645" d="M41 -313l244 501h131l-248 -501h-127zM395 922q10 43 44 71.5t77 28.5t65.5 -28.5t12.5 -71.5q-8 -43 -43 -71t-78 -28t-64.5 28t-13.5 71z" />
<glyph unicode="&#x3c;" horiz-adv-x="593" d="M41 477l360 344h152l-342 -344l18 -37l33 -55q37 -57 76 -124.5t68 -127.5h-152z" />
<glyph unicode="=" horiz-adv-x="1042" d="M41 289l29 131h845l-28 -131h-846zM127 686l29 137h845l-28 -137h-846z" />
<glyph unicode="&#x3e;" horiz-adv-x="593" d="M41 133l342 344q-25 41 -49.5 82t-46.5 80l-99 182h152l213 -344l-360 -344h-152z" />
<glyph unicode="?" horiz-adv-x="815" d="M43 1270q96 82 191.5 123t220.5 41q74 0 137 -21.5t106 -64.5t59.5 -108.5t-1.5 -156.5q-14 -66 -58.5 -127t-105 -116.5t-129 -103.5t-131.5 -85l-70 -332h-133l82 422q98 53 166.5 93t115 78t73 78t38.5 93q23 106 -33.5 159.5t-156.5 53.5q-86 0 -152.5 -32.5 t-134.5 -98.5zM51 98q8 39 41 67t76 28q39 0 61.5 -28t14.5 -67q-10 -43 -43 -70.5t-72 -27.5q-43 0 -65.5 27.5t-12.5 70.5z" />
<glyph unicode="@" horiz-adv-x="1472" d="M54.5 428q-13.5 131 19.5 287q29 141 98.5 269t173 226.5t237.5 156.5t296 58q147 0 259.5 -47t181.5 -133t90.5 -209t-9.5 -274q-25 -113 -68 -193t-95 -132t-109.5 -76.5t-110.5 -24.5q-66 0 -105 24.5t-45 69.5q-61 -53 -135 -80.5t-143 -27.5q-123 0 -187.5 66.5 t-40.5 180.5q12 66 47 114t84.5 79t107.5 46t120 15q57 0 113.5 -10t97.5 -25l16 74q16 80 -25.5 123t-138.5 43q-53 0 -109.5 -22.5t-117.5 -81.5l-65 96q66 63 146.5 97t178.5 34q145 0 219 -69.5t43 -204.5l-80 -377q-4 -27 5.5 -41.5t42.5 -14.5q27 0 57.5 14.5t58 49.5 t53 94.5t46.5 151.5q29 135 12 238.5t-70 174t-142 107.5t-206 37q-129 0 -237.5 -48.5t-192.5 -130t-140.5 -190t-82.5 -229.5q-27 -127 -16.5 -235.5t58.5 -188.5t138 -125t225 -45t244 34.5t213 122.5l45 -96q-115 -92 -248 -136t-284 -44q-160 0 -271.5 53t-175 148.5 t-77 226.5zM489 571q-14 -61 25 -97t119 -36q59 0 128.5 36t123.5 89l22 103q-43 20 -91 31.5t-99 11.5q-35 0 -72 -7.5t-69.5 -23.5t-55 -42t-31.5 -65z" />
<glyph unicode="A" d="M41 0l813 1434h164l207 -1434h-172l-62 434h-532l-246 -434h-172zM543 586h424l-82 600z" />
<glyph unicode="B" d="M41 0l303 1434h561q80 0 143.5 -31t104.5 -83t57 -122q7 -31 6 -65q0 -41 -10 -84q-18 -86 -68.5 -159t-119.5 -126q82 -54 121 -148q24 -58 24 -122q0 -42 -10 -86q-18 -86 -66.5 -160t-116 -129.5t-148.5 -87t-167 -31.5h-614zM223 152h465q53 0 106.5 22.5t97.5 60 t74.5 87t41.5 102.5q6 27 6 52q0 24 -6 46q-12 45 -40 77t-72 50.5t-97 18.5h-465zM367 819h411q49 0 94.5 18.5t83 49.5t64.5 72.5t39 91.5q5 24 5 47t-5 44q-10 42 -34 72.5t-61.5 49t-86.5 18.5h-412z" />
<glyph unicode="C" horiz-adv-x="1357" d="M51 454q-2 32 -2 65q0 101 23 206q29 141 95 272t166.5 232.5t231.5 162t295 60.5q172 0 280.5 -61.5t176.5 -167.5l-129 -97q-61 104 -150.5 139t-206.5 35q-127 0 -228 -48t-178 -128t-128 -184t-74 -217q-20 -88 -19 -173v-44q6 -106 49.5 -186t124.5 -129.5 t208 -49.5q117 0 221 38t211 143l88 -97q-113 -106 -248 -169.5t-307 -63.5q-164 0 -269.5 62.5t-163 165t-67.5 234.5z" />
<glyph unicode="D" horiz-adv-x="1472" d="M41 0l303 1434h520q176 0 294 -57.5t182 -154.5q64 -98 78 -227q4 -39 5 -80q0 -93 -22 -194q-31 -150 -101.5 -281t-178 -229t-248 -154.5t-312.5 -56.5h-520zM223 152h359q135 0 245.5 40.5t194.5 114.5t140 178.5t83 233.5q19 87 19 161q0 40 -6 76q-16 104 -70.5 177 t-147 111t-217.5 38h-358z" />
<glyph unicode="E" horiz-adv-x="1239" d="M41 0l303 1434h854l-31 -152h-702l-98 -461h639l-33 -151h-639l-111 -518h709l-31 -152h-860z" />
<glyph unicode="F" horiz-adv-x="1239" d="M41 0l303 1434h854l-31 -152h-702l-98 -461h639l-33 -151h-639l-141 -670h-152z" />
<glyph unicode="G" horiz-adv-x="1357" d="M54 454q-4 40 -4 81q0 93 22 190q29 141 95 272t166.5 232.5t231.5 162t295 60.5q172 0 280.5 -61.5t176.5 -167.5l-129 -97q-61 104 -150.5 139t-206.5 35q-127 0 -228 -48t-178 -128t-128 -184t-74 -217q-18 -80 -18 -158q0 -29 3 -59q9 -105 56 -185.5t131 -130 t211 -49.5q100 0 193.5 28t185.5 103l84 398h-407l32 151h559l-127 -596q-113 -106 -248 -169.5t-307 -63.5q-164 0 -272.5 62.5t-169.5 165t-75 234.5z" />
<glyph unicode="H" horiz-adv-x="1396" d="M41 0l303 1434h152l-129 -613h708l129 613h152l-303 -1434h-152l141 670h-708l-141 -670h-152z" />
<glyph unicode="I" horiz-adv-x="536" d="M41 0l303 1434h152l-303 -1434h-152z" />
<glyph unicode="J" horiz-adv-x="1157" d="M41 201l137 106q37 -82 98.5 -127t174.5 -45q131 0 201.5 79t97.5 210l215 1010h151l-215 -1012q-45 -217 -175 -327.5t-333 -110.5q-66 0 -116 11t-92 36.5t-76.5 67.5t-67.5 102z" />
<glyph unicode="K" horiz-adv-x="1427" d="M41 0l303 1434h152l-148 -697l840 697h198l-843 -697l544 -737h-210l-529 733l-155 -733h-152z" />
<glyph unicode="L" horiz-adv-x="970" d="M41 0l303 1434h152l-273 -1282h707l-31 -152h-858z" />
<glyph unicode="M" horiz-adv-x="1660" d="M41 0l303 1434h117l346 -834l698 834h115l-303 -1434h-150l240 1135l-655 -795l-328 778l-238 -1118h-145z" />
<glyph unicode="N" horiz-adv-x="1536" d="M41 0l303 1434h123l635 -1162l246 1162h147l-303 -1434h-127l-631 1161l-246 -1161h-147z" />
<glyph unicode="O" horiz-adv-x="1478" d="M54 448q-4 40 -4 82q0 95 22 195q31 143 100.5 274t175 231.5t241.5 161t302 60.5t279.5 -60.5t175.5 -161.5q64 -100 78 -231q5 -42 4 -85q0 -92 -21 -189q-31 -143 -101.5 -276.5t-176 -234.5t-245 -162.5t-304.5 -61.5q-166 0 -276.5 61.5t-173 162t-76.5 234.5z M210 500q12 -106 58.5 -185t131.5 -126.5t212 -47.5q129 0 235.5 46t187.5 126t136 185.5t82 224.5q17 80 17 154q0 33 -4 67q-12 104 -58.5 183t-133.5 126t-216 47q-127 0 -231.5 -46t-185.5 -124.5t-136 -184t-80 -222.5q-19 -82 -19 -158q1 -33 4 -65z" />
<glyph unicode="P" horiz-adv-x="1259" d="M41 0l303 1434h535q84 0 151.5 -33t111.5 -89t60 -130q8 -37 9 -76q0 -41 -9 -84q-18 -86 -67.5 -161t-116 -130t-148.5 -87t-165 -32h-383l-129 -612h-152zM354 764h383q53 0 104.5 20.5t93.5 55t72.5 82t43.5 100.5q5 26 5 50q0 26 -6 50q-10 47 -37.5 82t-69.5 56.5 t-95 21.5h-383z" />
<glyph unicode="Q" horiz-adv-x="1478" d="M54 448q-4 41 -4 82q0 95 22 195q31 143 100.5 274t175 231.5t241.5 161t302 60.5t279.5 -60.5t176 -161t77.5 -231.5q4 -42 4 -85q0 -92 -21 -189q-27 -121 -79 -233.5t-131 -205.5t-180.5 -164t-225.5 -104l129 -223h-168l-109 199q-16 -2 -31.5 -3t-31.5 -1 q-166 0 -276.5 61.5t-173 162.5t-76.5 234zM210 500q11 -105 58 -184.5t132 -127t212 -47.5q129 0 235.5 46t187.5 126t136 185.5t82 224.5q17 80 17 154q0 35 -4 67q-11 105 -58 183.5t-134 125.5t-216 47q-127 0 -231.5 -46t-185.5 -124.5t-136 -184t-80 -222.5 q-19 -82 -19 -158q0 -33 4 -65z" />
<glyph unicode="R" horiz-adv-x="1259" d="M41 0l303 1434h535q84 0 151.5 -33t111.5 -89t60 -130q8 -37 9 -76q0 -41 -9 -84q-14 -68 -49 -130.5t-83 -113.5t-108.5 -89t-125.5 -58l200 -631h-170l-207 612h-337l-129 -612h-152zM354 764h383q53 0 104.5 20.5t93.5 55t72.5 82t43.5 100.5q5 26 5 50q0 26 -6 50 q-10 47 -37.5 82t-69.5 56.5t-95 21.5h-383z" />
<glyph unicode="S" horiz-adv-x="1308" d="M41 231l143 103q51 -98 142.5 -143.5t220.5 -45.5q76 0 141.5 16.5t116.5 46.5t85 69.5t44 87.5q5 23 5 44q1 37 -15 67q-24 48 -70.5 84t-108 61.5t-120.5 46.5q-70 27 -139.5 54.5t-121.5 69.5q-50 42 -74 106q-12 33 -12 75q0 41 11 92q16 74 56 141.5t106.5 119.5 t161 83t216.5 31q147 0 254 -47t185 -172l-156 -105l-4 12q-47 86 -122 123t-185 37q-145 0 -238.5 -60.5t-111.5 -148.5q-4 -18 -4 -34q0 -33 16 -60q24 -41 71.5 -72.5t106.5 -56.5t113 -47q55 -18 122.5 -51t123.5 -82t86 -119q18 -42 18 -92q0 -34 -8 -72 q-20 -98 -74.5 -174t-132.5 -126t-176.5 -76.5t-204.5 -26.5q-154 0 -268.5 57t-198.5 184z" />
<glyph unicode="T" horiz-adv-x="976" d="M41 1282l31 152h864l-31 -152h-352l-272 -1282h-152l272 1282h-360z" />
<glyph unicode="U" horiz-adv-x="1449" d="M57 471l6 25l199 938h152l-199 -940q-10 -50 -10 -92q0 -33 6 -61q14 -65 55 -108t104.5 -65.5t137.5 -28.5q10 -2 18.5 -2h18.5h14h4h15h17t17 2q78 6 150 28.5t132 65.5t103 108t62 153l198 940h152l-199 -938l-6 -25q-25 -102 -79 -185t-130.5 -144.5t-170 -99.5 t-195.5 -50l-78 -6h-21h-4q-49 0 -96 6q-98 12 -175 50t-126 99.5t-69 144.5q-11 46 -10 97q0 42 7 88z" />
<glyph unicode="V" d="M41 1434h172l168 -1186l672 1186h172l-813 -1434h-164z" />
<glyph unicode="W" horiz-adv-x="1845" d="M41 1434h168l82 -1125l551 1125h168l75 -1125l551 1125h168l-704 -1434h-160l-76 1122l-559 -1122h-166z" />
<glyph unicode="X" horiz-adv-x="1570" d="M41 0l655 723l-344 711h197l270 -572l514 572h197l-645 -711l350 -723h-199l-276 584l-522 -584h-197z" />
<glyph unicode="Y" horiz-adv-x="1251" d="M41 1434h180l283 -576l526 576h180l-667 -750l-146 -684h-151l143 682z" />
<glyph unicode="Z" horiz-adv-x="1376" d="M41 0l31 152l1028 1130h-744l31 152h948l-30 -150l-1029 -1132h838l-31 -152h-1042z" />
<glyph unicode="[" horiz-adv-x="733" d="M41 -203l385 1807h266l-22 -103h-154l-340 -1601h154l-23 -103h-266z" />
<glyph unicode="\" horiz-adv-x="446" d="M41 1434h117l248 -1430h-117z" />
<glyph unicode="]" horiz-adv-x="733" d="M41 -203l22 103h154l340 1601h-154l23 103h266l-385 -1807h-266z" />
<glyph unicode="^" horiz-adv-x="624" d="M41 1202l240 232h161l142 -232h-160l-84 133l-139 -133h-160z" />
<glyph unicode="_" horiz-adv-x="1128" d="M41 -426l22 113h1024l-24 -113h-1022z" />
<glyph unicode="`" horiz-adv-x="364" d="M41 1434h141l142 -232h-140z" />
<glyph unicode="a" horiz-adv-x="1118" d="M48 322q-2 24 -2 49q0 71 15 145q25 111 75 205t125 164.5t173 110.5t215 40q129 0 211 -45q31 -16 58 -35l14 68h145l-217 -1024h-137l14 84q-37 -31 -73 -47q-98 -43 -234 -43q-127 0 -208 44t-124 117t-50 167zM195 372q6 -72 34.5 -129t87 -91.5t148.5 -34.5 q86 0 168 30q72 29 149 144l99 487q-40 62 -103 99q-57 36 -146 36h-5q-92 0 -162 -31.5t-121 -85t-87 -125t-54 -151.5q-10 -53 -10 -105q0 -21 2 -43z" />
<glyph unicode="b" horiz-adv-x="1101" d="M41 49l293 1385h143l-90 -428q55 14 110.5 22t110.5 8q102 0 192.5 -29.5t152 -93t85.5 -161.5q11 -44 10 -96q0 -64 -16 -140q-25 -115 -82 -210t-142 -164.5t-193.5 -108.5t-233.5 -39q-174 0 -340 55zM205 150q49 -18 103 -25.5t112 -7.5q180 0 302 109.5t161 287.5 q13 62 13 115q0 111 -58 181q-86 103 -269 103q-49 0 -103 -11t-108 -28z" />
<glyph unicode="c" horiz-adv-x="1036" d="M48 322q-2 24 -2 49q0 71 15 145q25 111 75 205t125 164.5t173 110.5t215 40q129 0 212 -44t134 -120l-114 -94q-39 61 -100.5 98t-153.5 37t-162 -31.5t-121 -85t-85 -125t-52 -151.5q-11 -59 -11 -116q0 -16 1 -32q4 -72 32.5 -129t87 -91.5t148.5 -34.5q86 0 168 31.5 t155 99.5l66 -90q-88 -76 -188.5 -120t-235.5 -44q-127 0 -208 44t-124 117t-50 167z" />
<glyph unicode="d" horiz-adv-x="1193" d="M58 306q-7 38 -7 79q0 62 15 131q29 137 95 235.5t154 162t190.5 93t205.5 29.5q55 0 106 -8t103 -22l90 428h143l-293 -1385q-190 -55 -364 -55q-127 0 -218.5 39t-147.5 108.5t-72 164.5zM215 514q-13 -60 -13 -112q0 -104 51 -176q77 -110 257 -109q57 0 113.5 7 t113.5 26l154 724q-45 16 -95.5 27.5t-99.5 11.5q-182 0 -311 -103t-170 -296z" />
<glyph unicode="e" horiz-adv-x="1075" d="M52 311q-4 31 -4 63q0 64 15 132q29 135 87.5 234.5t135 165t168 97t185.5 31.5q225 0 310 -138q50 -81 50 -207q0 -87 -24 -195h-768q-9 -53 -10 -99q1 -105 51 -177q72 -102 233 -103q90 0 171 29.5t153 95.5l67 -90q-88 -78 -190 -118t-236 -40q-123 0 -206.5 42 t-130 113.5t-57.5 163.5zM236 614h620q9 40 9 77q0 21 -3 41q-8 56 -35.5 95t-80 62.5t-128.5 23.5q-78 0 -139 -23.5t-101 -60t-80 -93t-62 -122.5z" />
<glyph unicode="f" horiz-adv-x="757" d="M41 0l190 899h-92l27 127h92l6 27q18 86 51 163.5t87.5 132t131.5 77.5q41 13 91 13q43 0 92 -9l-43 -117q-16 4 -33.5 7t-40.5 1q-45 -4 -76.5 -26.5t-53 -60.5t-37 -86t-27.5 -99l-5 -23h181l-27 -127h-180l-191 -899h-143z" />
<glyph unicode="g" horiz-adv-x="1234" d="M41 -319l115 102q90 -135 288 -135q162 0 257.5 66.5t127.5 219.5l19 89q-57 -14 -110.5 -22.5t-108.5 -8.5q-102 0 -192.5 29.5t-152 93t-86.5 161.5q-10 44 -10 95q0 64 17 141q23 113 80 209t143 165.5t193.5 108.5t234.5 39q172 0 338 -55l-217 -1024 q-27 -121 -79 -205t-126 -137t-165 -77.5t-195 -24.5q-133 0 -224.5 46t-146.5 124zM354 514q-13 -63 -13 -116q0 -111 57 -180q85 -103 268 -103q49 0 103 11t105 28l156 725q-49 18 -102.5 25t-110.5 7q-180 0 -303 -109.5t-160 -287.5z" />
<glyph unicode="h" horiz-adv-x="1105" d="M41 0l303 1434h145l-114 -547q61 66 155.5 111.5t214.5 45.5q78 0 141.5 -23.5t105.5 -68.5q42 -44 58 -112q7 -29 6 -62q0 -44 -12 -94l-143 -684h-143l139 655q8 39 8 72q1 75 -43 121q-62 64 -176 65q-59 0 -112.5 -23.5t-98.5 -59t-82 -76.5t-63 -76l-144 -678h-145z " />
<glyph unicode="i" horiz-adv-x="532" d="M41 0l217 1024h143l-217 -1024h-143zM309 1346q8 39 37 63.5t68 24.5q38 0 58 -25q13 -17 14 -40q0 -11 -3 -23q-8 -39 -37.5 -62.5t-68.5 -23.5t-57 24q-13 16 -13 40q0 10 2 22z" />
<glyph unicode="j" horiz-adv-x="847" d="M41 -303q137 16 211 93t104 222l215 1014h144l-217 -1020q-16 -80 -52 -153.5t-93.5 -132t-133.5 -97.5t-174 -49zM625 1346q8 39 36.5 63.5t67.5 24.5t59 -25q13 -18 13 -42q0 -10 -2 -21q-8 -39 -38 -62.5t-69 -23.5t-57 24q-12 16 -12 39q0 11 2 23z" />
<glyph unicode="k" horiz-adv-x="1126" d="M41 0l303 1432h143l-303 -1432h-143zM295 528l598 496h192l-608 -492l389 -532h-198z" />
<glyph unicode="l" horiz-adv-x="528" d="M41 0l303 1434h143l-303 -1434h-143z" />
<glyph unicode="m" horiz-adv-x="1818" d="M41 0l217 1026h143l-28 -139q61 66 155.5 111.5t214.5 45.5q115 0 195 -48t104 -144q33 31 75 64.5t94.5 62.5t113.5 47t133 18q78 0 141.5 -22.5t105.5 -68.5q41 -45 57 -113q7 -29 7 -62q0 -44 -12 -94l-143 -684h-141l139 655q8 38 8 71q0 78 -45 122q-64 64 -176 65 q-66 0 -120 -23.5t-97 -59t-78 -76.5t-62 -76l-143 -678h-141l139 655q8 38 8 71q-1 76 -45 122q-64 64 -176 65q-59 0 -112.5 -23.5t-98.5 -59t-82 -76.5t-63 -76l-144 -678h-143z" />
<glyph unicode="n" horiz-adv-x="1103" d="M41 0l217 1026h143l-28 -139q61 66 155.5 111.5t214.5 45.5q78 0 141.5 -23.5t105.5 -68.5q42 -44 58 -112q7 -29 6 -62q0 -44 -12 -94l-143 -684h-141l139 655q8 38 8 71q-1 76 -45 122q-64 64 -176 65q-59 0 -112.5 -23.5t-98.5 -59t-82 -76.5t-63 -76l-144 -678h-143z " />
<glyph unicode="o" horiz-adv-x="1083" d="M50 307q-2 25 -2 52q0 73 18 153q23 111 72.5 206t124.5 165.5t172 110.5t218 40t202 -41t125 -112.5t54 -167.5q3 -28 3 -57q0 -71 -17 -150q-23 -111 -73 -206t-124.5 -166t-173 -110.5t-219.5 -39.5t-200.5 42t-125 113.5t-54.5 167.5zM200 348q3 -76 29.5 -131 t82 -87t143.5 -32t156.5 31t119.5 86t85 130t52 163q17 81 17 151q-1 5 -1 11q-2 74 -29.5 130t-82.5 88t-143 32t-155.5 -31t-119 -85t-85 -130t-54.5 -164q-15 -74 -15 -140v-22z" />
<glyph unicode="p" horiz-adv-x="1222" d="M41 -508l313 1487q190 55 363 55q125 0 219 -39t151.5 -108.5t76.5 -165.5q8 -43 8 -89q0 -57 -13 -120q-31 -137 -98.5 -235.5t-157.5 -162t-194.5 -93t-206.5 -29.5q-55 0 -107.5 8t-101.5 23l-113 -531h-139zM319 154q47 -16 96.5 -27.5t98.5 -11.5q182 0 312 103 t171 296q12 59 12 110q0 104 -51 178q-75 109 -256 109q-57 0 -113.5 -7t-113.5 -25z" />
<glyph unicode="q" horiz-adv-x="1101" d="M66 276q-11 44 -11 95q0 64 17 141q23 113 80 209t143 165.5t193.5 108.5t234.5 39q172 0 338 -55l-316 -1487h-141l113 531q-57 -14 -111.5 -22.5t-109.5 -8.5q-102 0 -192.5 29.5t-152 93t-85.5 161.5zM221 514q-13 -63 -13 -116q0 -111 57 -180q85 -103 267 -103 q49 0 104.5 11t106.5 28l156 725q-49 18 -103.5 25t-111.5 7q-180 0 -303 -109.5t-160 -287.5z" />
<glyph unicode="r" horiz-adv-x="919" d="M41 0l217 1024h143l-28 -137q61 66 155.5 111.5t214.5 45.5q35 0 71 -4t65 -12l-66 -137q-25 10 -60.5 16t-68.5 6q-59 0 -112.5 -23.5t-98.5 -59t-82 -76.5t-63 -76l-144 -678h-143z" />
<glyph unicode="s" horiz-adv-x="970" d="M41 162l127 98q78 -143 248 -143q111 0 173 43t75 104q4 20 4 37q0 23 -8 42q-14 32 -42 54.5t-69 38t-86 29.5q-53 16 -102.5 36.5t-86 52.5t-54.5 81q-9 26 -9 59q0 30 8 66q29 135 139.5 208.5t259.5 73.5q106 0 181 -36.5t131 -128.5l-121 -97v2q-37 68 -90 99.5 t-135 31.5q-104 0 -154.5 -38.5t-62.5 -98.5q-3 -16 -3 -29q0 -23 8 -41q13 -28 40.5 -48.5t65.5 -36t81 -29.5q51 -18 102.5 -40t88.5 -56q38 -36 56 -86q10 -27 10 -61q0 -30 -7 -64q-14 -70 -55 -125.5t-98.5 -93t-128 -57t-146.5 -19.5q-117 0 -198 40t-142 132z" />
<glyph unicode="t" horiz-adv-x="561" d="M41 215q0 78 18 164l111 522h-92l26 127h93l51 242h143l-51 -242h180l-26 -127h-181l-110 -518q-9 -53 -15 -100q-3 -22 -3 -41q-1 -23 3 -44q6 -38 28 -61.5t65 -25.5q23 -2 41 1t36 7l-6 -117q-56 -11 -101 -11q-49 0 -83 13q-66 25 -96.5 79t-30.5 132z" />
<glyph unicode="u" horiz-adv-x="1130" d="M58 188q-8 32 -8 70q0 40 9 86l146 680h143l-139 -651q-8 -36 -7 -66q0 -26 5 -48q12 -48 45 -81t80 -49t104 -16q123 0 208 49t142 119l158 743h146l-218 -1024h-137l23 115q-131 -129 -383 -129q-82 0 -147.5 22.5t-109.5 67t-60 112.5z" />
<glyph unicode="v" horiz-adv-x="1077" d="M41 1022h156l163 -864l535 864h141l-639 -1022h-147z" />
<glyph unicode="w" horiz-adv-x="1681" d="M41 1022h154l104 -844l481 844h133l123 -842l463 842h141l-575 -1022h-137l-127 827l-482 -827h-137z" />
<glyph unicode="x" horiz-adv-x="1239" d="M41 0l485 520l-260 504h172l217 -416l387 416h156l-477 -506l264 -518h-172l-219 426l-395 -426h-158z" />
<glyph unicode="y" horiz-adv-x="1253" d="M41 -301q45 8 104.5 26.5t116.5 52.5t101.5 84t60.5 122l-209 1040h162l160 -860l522 860h153l-647 -1040l-57 -99q-33 -59 -79 -112.5t-105.5 -94t-130 -67.5t-146.5 -35z" />
<glyph unicode="z" horiz-adv-x="1044" d="M41 0l29 137l727 752h-568l29 135h746l-29 -135l-742 -752h613l-29 -137h-776z" />
<glyph unicode="{" horiz-adv-x="692" d="M57 20l99 480q12 72 9 107.5t-50 35.5l30 143q47 0 65.5 36t37.5 108l94 438q35 117 107.5 172t168.5 55h33l-24 -112l-33 -2q-49 0 -77 -23.5t-44 -57.5t-23.5 -71t-13.5 -63l-78 -369q-8 -29 -16 -57.5t-22.5 -53t-39 -43t-65.5 -28.5q37 -10 53.5 -29.5t19.5 -44.5 t0 -52.5t-7 -56.5l-88 -409q-4 -35 -12.5 -73t-6.5 -69.5t20.5 -52t65.5 -20.5l33 -2l-25 -113h-32q-96 0 -145.5 55.5t-33.5 171.5z" />
<glyph unicode="|" horiz-adv-x="610" d="M41 -393l416 1966h112l-417 -1966h-111z" />
<glyph unicode="}" horiz-adv-x="692" d="M41 -207l22 113l33 2q47 0 74 20.5t43 52t24.5 69.5t16.5 73l88 409q8 29 15.5 56.5t22.5 52.5t39.5 44.5t65.5 29.5q-37 10 -53 28.5t-20 43t0 53t8 57.5l78 369q6 27 13 63.5t5 70.5t-19.5 57.5t-66.5 23.5l-33 2l25 112h33q96 0 146 -55t32 -172l-90 -438 q-10 -72 -8 -108t49 -36l-31 -143q-47 0 -64.5 -36t-37.5 -107l-103 -480q-33 -117 -106.5 -172t-169.5 -55h-31z" />
<glyph unicode="&#xa1;" horiz-adv-x="485" d="M41 -213l192 1032h160l-192 -1032h-6v-2h-152v2h-2zM262 1079q8 39 38 62.5t69 23.5t57 -23.5t10 -62.5t-36.5 -63.5t-67.5 -24.5t-58.5 24.5t-11.5 63.5z" />
<glyph unicode="&#xa2;" horiz-adv-x="1019" d="M46 344q-5 90 13 184q20 94 64.5 184.5t109 162t149.5 120.5t187 62l45 209h115l-45 -207q104 -10 175 -56.5t120 -121.5l-119 -88q-78 129 -201 143l-174 -817q68 10 131.5 45t131.5 100l81 -88q-82 -78 -172 -124t-198 -56l-43 -207h-115l43 209q-96 12 -160.5 61.5 t-98.5 122t-39 162.5zM186.5 395q1.5 -65 21 -121.5t59.5 -96.5t104 -54l172 809q-70 -14 -126.5 -53t-100.5 -94.5t-73.5 -122t-43.5 -134.5t-12.5 -133z" />
<glyph unicode="&#xa3;" horiz-adv-x="1159" d="M41 0l25 119q63 25 121.5 53.5t105.5 64t77.5 77.5t43.5 92q10 55 -13 106h-256l27 125h160q-31 49 -50.5 107.5t-2.5 136.5q33 156 154.5 252t311.5 96q135 0 226.5 -48t146.5 -153l-125 -98q-70 162 -282 162q-127 0 -196 -53.5t-87 -139.5q-8 -41 -3 -74.5t16.5 -65.5 t28.5 -61.5t34 -60.5h409l-26 -125h-334q4 -23 4 -46.5t-6 -51.5q-18 -92 -76.5 -152.5t-134.5 -109.5h604l-31 -152h-872z" />
<glyph unicode="&#xa5;" horiz-adv-x="1128" d="M41 223l27 127h305l43 201h-305l26 127h234l-203 551h170l186 -504l398 504h165l-442 -551h238l-27 -127h-305l-43 -201h305l-27 -127h-305l-47 -223h-135l47 223h-305z" />
<glyph unicode="&#xa6;" horiz-adv-x="495" d="M41 -2l109 508h106l-109 -508h-106zM240 930l108 508h107l-109 -508h-106z" />
<glyph unicode="&#xa7;" horiz-adv-x="1019" d="M41 53l70 99q41 -18 73.5 -29.5t61 -19t58.5 -10.5t67 -3q100 0 167.5 43t88.5 146q12 49 -4.5 81.5t-48 56t-74.5 40t-90 32.5q-49 16 -95.5 34t-81 45.5t-50 67.5t-3.5 101q20 92 67.5 147.5t121.5 90.5q-41 29 -58.5 79t-5.5 111q16 76 58.5 130.5t98.5 88t121.5 49 t131.5 15.5q78 0 138 -22.5t126 -51.5l-64 -106q-57 41 -101 61.5t-118 20.5q-47 0 -90 -9.5t-78.5 -30t-60.5 -55t-35 -84.5q-6 -31 7.5 -53t40 -39.5t63.5 -32t75 -28.5q49 -16 102.5 -40t93.5 -58.5t60.5 -85.5t4.5 -123q-14 -70 -69.5 -130.5t-121.5 -91.5 q51 -37 64.5 -90t1.5 -118q-16 -72 -56.5 -127.5t-95.5 -92t-121.5 -56t-136.5 -19.5q-88 0 -161.5 15t-141.5 52zM307 743q-8 -33 5.5 -56t41 -39.5t62.5 -30t71 -25.5q23 -8 46.5 -15.5t44.5 -17.5q63 23 114.5 60t61.5 90q10 45 -1.5 74.5t-37 49t-62.5 33t-78 25.5 l-79 22q-70 -10 -121 -48t-68 -122z" />
<glyph unicode="&#xa8;" horiz-adv-x="602" d="M49 1346q8 39 37 63.5t68 24.5t58 -25t11 -63q-8 -39 -37.5 -62.5t-68.5 -23.5t-57.5 23.5t-10.5 62.5zM379 1346q8 39 36.5 63.5t67.5 24.5t58.5 -25t11.5 -63q-8 -39 -38 -62.5t-69 -23.5t-57 23.5t-10 62.5z" />
<glyph unicode="&#xa9;" horiz-adv-x="1560" d="M61.5 453q-20.5 129 10.5 272t105.5 271t186 224.5t255 154t309.5 57.5t285.5 -57.5t191.5 -154t93.5 -224.5t-9.5 -271t-106.5 -272t-188.5 -227.5t-257 -156t-310 -57.5t-285 57.5t-189.5 156t-91 227.5zM189.5 497.5q21.5 -108.5 81 -192.5t155.5 -134t223 -50 q129 0 247 50t215 133t163.5 191.5t93.5 227.5q25 117 3.5 224.5t-83 191.5t-158 134t-225.5 50q-127 0 -244.5 -50t-213 -133t-162 -191.5t-90.5 -225.5q-27 -117 -5.5 -225.5zM320.5 554q-9.5 83 9.5 171q20 98 67 182t117 145.5t159 97.5t193 36q111 0 184.5 -39 t118.5 -107l-98 -82q-35 53 -91 86t-134 33q-80 0 -144.5 -27.5t-113.5 -75.5t-82 -111.5t-47 -133.5q-14 -68 -8 -131t35.5 -113.5t82 -81t131.5 -30.5q74 0 149 28.5t140 87.5l58 -79q-78 -68 -168.5 -107t-206.5 -39q-111 0 -185.5 39t-115.5 103.5t-50.5 147.5z" />
<glyph unicode="&#xaa;" horiz-adv-x="1118" d="M48 727.5q-7 94.5 13 194.5q25 111 75 205t125 164.5t173 110.5t215 40q129 0 211 -45q31 -16 58 -35l14 68h145l-217 -1024h-137l14 84q-37 -31 -73 -47q-98 -43 -234 -43q-127 0 -208 44t-124 116.5t-50 167zM195 777.5q6 -72.5 34.5 -129t87 -91t148.5 -34.5 q86 0 168 30q72 29 149 144l99 487q-40 62 -103 99q-59 37 -151 36q-92 0 -162 -31.5t-121 -85t-87 -125t-54 -151.5q-14 -76 -8 -148.5z" />
<glyph unicode="&#xab;" horiz-adv-x="899" d="M41 479l352 338h137l-340 -338l197 -338h-137zM369 479l352 338h137l-340 -338l197 -338h-137z" />
<glyph unicode="&#xac;" horiz-adv-x="980" d="M41 600l25 121h874l-102 -485h-117l78 364h-758z" />
<glyph unicode="&#xad;" horiz-adv-x="516" d="M41 455l25 120h409l-24 -120h-410z" />
<glyph unicode="&#xae;" horiz-adv-x="1560" d="M61.5 453q-20.5 129 10.5 272t105.5 271t186 224.5t255 154t309.5 57.5t285.5 -57.5t191.5 -154t93.5 -224.5t-9.5 -271t-106.5 -272t-188.5 -227.5t-257 -156t-310 -57.5t-285 57.5t-189.5 156t-91 227.5zM187.5 497.5q21.5 -108.5 81 -192.5t156.5 -134t224 -50 q129 0 248 50t216 133t163.5 191.5t93.5 227.5q25 117 3.5 224.5t-83 191.5t-159 134t-226.5 50q-127 0 -245.5 -50t-214 -133t-162 -191.5t-90.5 -225.5q-27 -117 -5.5 -225.5zM410 301l180 854h297q61 0 113.5 -15.5t88 -46t50 -78.5t0.5 -114q-12 -55 -34 -94 t-51.5 -66.5t-64.5 -44t-71 -22.5q14 -51 30.5 -100.5t34.5 -104.5l61 -168h-153l-111 338h-155l-72 -338h-143zM653 776h140q84 0 144.5 40t68.5 87q10 66 -31 93.5t-119 27.5h-149z" />
<glyph unicode="&#xaf;" horiz-adv-x="624" d="M41 1309l27 125h516l-27 -125h-516z" />
<glyph unicode="&#xb0;" horiz-adv-x="542" d="M57 1231q18 88 88 145.5t168 57.5q104 0 146 -58.5t24 -144.5q-16 -84 -83.5 -143.5t-172.5 -59.5q-98 0 -142 60.5t-28 142.5zM170 1231q-10 -47 5 -78t73 -31q59 0 89 30t40 79q10 47 -6.5 82t-75.5 35q-57 0 -86 -34t-39 -83z" />
<glyph unicode="&#xb1;" horiz-adv-x="1112" d="M41 0l22 113h902l-23 -113h-901zM141 481l29 133h381l59 273h133l-59 -273h387l-29 -133h-387l-57 -270h-133l57 270h-381z" />
<glyph unicode="&#xb2;" horiz-adv-x="667" d="M34 350l17 84l295 260q26 24 56 52.5t56 59t45.5 61t25.5 61.5q7 32 2.5 61.5t-21 51t-43.5 34t-65 12.5q-58 0 -103.5 -28t-72.5 -77l-55 56q44 59 110 95t139 36q56 0 96.5 -18t65.5 -51t32 -77.5t-5 -98.5q-7 -38 -29 -75t-51 -72t-61.5 -67t-61.5 -57l-135 -121 l-116 -105h374l-16 -77h-479z" />
<glyph unicode="&#xb3;" horiz-adv-x="688" d="M33 442l77 55q24 -43 64.5 -61.5t92.5 -18.5q91 0 152.5 42.5t77.5 118.5q18 81 -37 122t-168 41h-26l17 80h29q43 0 81.5 9.5t69 28t51.5 45.5t29 63q5 28 -2 53t-25.5 42.5t-45.5 27.5t-62 10q-59 0 -100.5 -18t-80.5 -55l-50 51q56 49 112.5 72t133.5 23 q52 0 94.5 -13t71 -38t40 -63.5t0.5 -90.5q-14 -67 -59.5 -113.5t-109.5 -66.5q69 -20 105 -71t18 -139q-13 -58 -45.5 -101.5t-76.5 -73t-99 -44t-111 -14.5q-76 0 -126.5 23t-91.5 74z" />
<glyph unicode="&#xb4;" horiz-adv-x="462" d="M41 1202l240 232h141l-242 -232h-139z" />
<glyph unicode="&#xb5;" horiz-adv-x="1026" d="M41 -344l274 1292h127l-118 -561q-12 -59 -16.5 -110.5t9 -88t47 -58t95.5 -21.5q37 0 74.5 20.5t72.5 51t63.5 66.5t47.5 66l135 635h133l-154 -725q-10 -47 -16 -99t-10 -124h-123l8 115q-20 -18 -46 -40t-59.5 -40.5t-71.5 -30.5t-81 -12q-53 0 -99 16.5t-81 42.5 l-84 -395h-127z" />
<glyph unicode="&#xb6;" horiz-adv-x="911" d="M45 1003.5q-4 53.5 6 104.5q12 53 38 110.5t76 104.5t129 78t198 31h378l-305 -1440h-135l275 1298h-146l-274 -1298h-135l169 807q-96 4 -154.5 33.5t-87 73.5t-32.5 97.5z" />
<glyph unicode="&#xb7;" horiz-adv-x="290" d="M51 88q8 41 41 68.5t74 27.5t62.5 -27.5t13.5 -68.5q-10 -41 -43 -67.5t-74 -26.5t-62.5 26.5t-11.5 67.5z" />
<glyph unicode="&#xb8;" horiz-adv-x="518" d="M41 -303l53 92q18 -12 44 -22.5t61 -10.5q57 0 104 34t66 114q10 53 8 119h98q2 -27 0 -60t-8 -67q-25 -113 -101.5 -175.5t-185.5 -62.5q-41 0 -74.5 11.5t-64.5 27.5z" />
<glyph unicode="&#xb9;" horiz-adv-x="335" d="M33 350l168 789l86 30l-173 -819h-81z" />
<glyph unicode="&#xba;" horiz-adv-x="868" d="M45 726.5q-7 75.5 13 160.5q18 87 57 162t97.5 130t135 86.5t171.5 31.5t158.5 -32t98 -88t42 -131.5t-10.5 -162.5q-18 -88 -57.5 -162.5t-98 -130.5t-135.5 -87t-172 -31t-157.5 33t-98.5 89.5t-43 132zM163 758.5q2 -59.5 23 -103t64.5 -68.5t112.5 -25t123 24.5 t94 67.5t66.5 102t41.5 128q14 69 12.5 127.5t-23.5 102t-65 69t-112 25.5t-122 -24.5t-93.5 -67t-67 -102t-42.5 -128.5q-14 -68 -12 -127.5z" />
<glyph unicode="&#xbb;" horiz-adv-x="913" d="M41 131l321 346l-120 242l-41 82h2l-15 22h150l215 -346l-363 -346h-149zM360 131l322 346l-78 154l-96 192h149l215 -346l-362 -346h-150z" />
<glyph unicode="&#xbc;" horiz-adv-x="1185" d="M41 0l854 1434h117l-854 -1434h-117zM60 350l168 789l86 30l-173 -819h-81zM320 219l15 62l516 538h74l-111 -517h74l-18 -83h-74l-45 -218h-82l46 218h-395zM452 302h280l78 367z" />
<glyph unicode="&#xbd;" horiz-adv-x="2676" d="M41 0l854 1434h117l-854 -1434h-117zM60 350l168 789l86 30l-173 -819h-81zM341 0l17 84l295 260q26 24 56 52.5t56 59t45.5 61t25.5 61.5q7 32 2.5 61.5t-21 51t-43.5 34t-65 12.5q-58 0 -103.5 -28t-72.5 -77l-55 56q44 59 110 95t139 36q56 0 96.5 -18t65.5 -51 t32 -77.5t-5 -98.5q-7 -38 -29 -75t-51 -72t-61.5 -67t-61.5 -57l-135 -121l-116 -105h374l-16 -77h-479z" />
<glyph unicode="&#xbe;" horiz-adv-x="1411" d="M33 440l78 55q23 -42 64 -60.5t93 -18.5q92 0 154 42.5t79 118.5q17 82 -38 123t-169 41h-27l17 81h30q43 0 82 9.5t69.5 27.5t51.5 45.5t29 63.5q6 28 -1.5 53t-25.5 43t-45.5 28t-62.5 10q-59 0 -101.5 -18.5t-81.5 -55.5l-50 52q56 49 113 72t134 23q53 0 96 -13 t71.5 -38t40 -64t0.5 -91q-14 -68 -60 -114.5t-110 -66.5q70 -20 106 -71.5t17 -139.5q-13 -58 -45 -101.5t-76.5 -73.5t-100 -44.5t-111.5 -14.5q-77 0 -127.5 23t-92.5 74zM266 0l854 1434h117l-854 -1434h-117zM449 219l15 62l516 538h74l-111 -517h74l-18 -83h-74 l-45 -218h-82l46 218h-395zM581 302h280l78 367z" />
<glyph unicode="&#xbf;" horiz-adv-x="815" d="M59.5 -297.5q-18.5 64.5 1.5 154.5q14 78 58.5 141t105 115.5t132 96.5t143.5 85l59 242h105l-56 -297q-98 -53 -169.5 -98.5t-119 -88.5t-76 -89t-40.5 -101q-25 -117 34.5 -174.5t170.5 -57.5q92 0 161.5 32t135.5 93l69 -86q-90 -78 -184 -117.5t-219 -39.5 q-74 0 -138.5 20.5t-109.5 62.5t-63.5 106.5zM586 834q8 39 37.5 62.5t68.5 23.5t57.5 -23.5t10.5 -62.5t-37 -64t-68 -25t-58 25t-11 64z" />
<glyph unicode="&#xc0;" d="M41 0l813 1434h164l207 -1434h-172l-62 434h-532l-246 -434h-172zM543 586h424l-82 600zM655 1819h141l142 -232h-140z" />
<glyph unicode="&#xc1;" d="M41 0l813 1434h164l207 -1434h-172l-62 434h-532l-246 -434h-172zM543 586h424l-82 600zM647 1587l240 232h141l-242 -232h-139z" />
<glyph unicode="&#xc2;" d="M41 0l813 1434h164l207 -1434h-172l-62 434h-532l-246 -434h-172zM543 586h424l-82 600zM549 1503l289 316h131l157 -316h-120l-123 215l-211 -215h-123z" />
<glyph unicode="&#xc3;" d="M41 0l813 1434h164l207 -1434h-172l-62 434h-532l-246 -434h-172zM510 1726q53 45 102.5 68t114.5 23q25 0 58.5 -12.5t69.5 -28t69.5 -27.5t56.5 -12q29 0 58.5 12t82.5 39l41 -86q-37 -23 -65.5 -38t-52 -24.5t-46 -13.5t-49.5 -4q-31 0 -62.5 13.5t-63 28.5 t-62.5 28.5t-60 13.5q-18 0 -31.5 -2t-28.5 -10.5t-35.5 -21.5t-55.5 -34q-10 23 -19.5 43.5t-21.5 44.5zM543 586h424l-82 600z" />
<glyph unicode="&#xc4;" d="M41 0l813 1434h164l207 -1434h-172l-62 434h-532l-246 -434h-172zM543 586h424l-82 600zM586 1731q8 39 37 63.5t68 24.5t58 -25t11 -63q-8 -39 -37.5 -62.5t-68.5 -23.5t-57.5 23.5t-10.5 62.5zM916 1731q8 39 36.5 63.5t67.5 24.5t58.5 -25t11.5 -63q-8 -39 -38 -62.5 t-69 -23.5t-57 23.5t-10 62.5z" />
<glyph unicode="&#xc5;" d="M41 0l778 1374q-41 14 -65 47q-41 57 -23 140q18 84 84 140t164 56q100 0 141 -57t25 -139q-18 -84 -84 -142q-18 -14 -37 -24l201 -1395h-172l-62 434h-532l-246 -434h-172zM543 586h424l-82 600zM821 1561q-10 -51 8 -91q16 -33 70 -36h25q53 4 86 36q35 38 47 91 q10 53 -9.5 91t-82.5 38t-98.5 -38t-45.5 -91z" />
<glyph unicode="&#xc6;" horiz-adv-x="2017" d="M41 0l1145 1432h790l-28 -132h-553l-103 -487h498l-31 -143h-497l-115 -539h614l-26 -131h-760l141 670h-368l-535 -670h-172zM862 811h285l104 489z" />
<glyph unicode="&#xc7;" horiz-adv-x="1357" d="M51 454q-10 132 21 271q29 141 95 272t166.5 232.5t231.5 162t295 60.5q172 0 280.5 -61.5t176.5 -167.5l-129 -97q-61 104 -150.5 139t-206.5 35q-127 0 -228 -48t-178 -128t-128 -184t-74 -217q-25 -111 -18.5 -216.5t49.5 -186t124 -130t208 -49.5q117 0 221 38 t211 143l88 -97q-113 -106 -248 -170q-78 -37 -168 -53v-39q-2 -33 -8 -67q-25 -113 -101.5 -175.5t-185.5 -62.5q-41 0 -74.5 11.5t-64.5 27.5l53 92q18 -12 44 -22.5t61 -10.5q57 0 104 34t66 114q8 41 8 90q-20 -2 -41 -2q-164 0 -269.5 62.5t-163 165t-67.5 234.5z" />
<glyph unicode="&#xc8;" horiz-adv-x="1239" d="M41 0l303 1434h854l-31 -152h-702l-98 -461h639l-33 -151h-639l-111 -518h709l-31 -152h-860zM682 1819h141l142 -232h-140z" />
<glyph unicode="&#xc9;" horiz-adv-x="1239" d="M41 0l303 1434h854l-31 -152h-702l-98 -461h639l-33 -151h-639l-111 -518h709l-31 -152h-860zM633 1587l240 232h141l-242 -232h-139z" />
<glyph unicode="&#xca;" horiz-adv-x="1239" d="M41 0l303 1434h854l-31 -152h-702l-98 -461h639l-33 -151h-639l-111 -518h709l-31 -152h-860zM535 1503l289 316h131l157 -316h-120l-123 215l-211 -215h-123z" />
<glyph unicode="&#xcb;" horiz-adv-x="1239" d="M41 0l303 1434h854l-31 -152h-702l-98 -461h639l-33 -151h-639l-111 -518h709l-31 -152h-860zM571 1731q8 39 37 63.5t68 24.5t58 -25t11 -63q-8 -39 -37.5 -62.5t-68.5 -23.5t-57.5 23.5t-10.5 62.5zM901 1731q8 39 36.5 63.5t67.5 24.5t58.5 -25t11.5 -63 q-8 -39 -38 -62.5t-69 -23.5t-57 23.5t-10 62.5z" />
<glyph unicode="&#xcc;" horiz-adv-x="536" d="M41 0l303 1434h152l-303 -1434h-152zM229 1819h141l142 -232h-140z" />
<glyph unicode="&#xcd;" horiz-adv-x="536" d="M41 0l303 1434h152l-303 -1434h-152zM385 1587l240 232h141l-242 -232h-139z" />
<glyph unicode="&#xce;" horiz-adv-x="536" d="M41 0l303 1434h152l-303 -1434h-152zM184 1503l289 316h131l157 -316h-120l-123 215l-211 -215h-123z" />
<glyph unicode="&#xcf;" horiz-adv-x="536" d="M41 0l303 1434h152l-303 -1434h-152zM221 1731q8 39 37 63.5t68 24.5t58 -25t11 -63q-8 -39 -37.5 -62.5t-68.5 -23.5t-57.5 23.5t-10.5 62.5zM551 1731q8 39 36.5 63.5t67.5 24.5t58.5 -25t11.5 -63q-8 -39 -38 -62.5t-69 -23.5t-57 23.5t-10 62.5z" />
<glyph unicode="&#xd1;" horiz-adv-x="1536" d="M41 0l303 1434h123l635 -1162l246 1162h147l-303 -1434h-127l-631 1161l-246 -1161h-147zM645 1726q53 45 102.5 68t114.5 23q25 0 58.5 -12.5t69.5 -28t69.5 -27.5t56.5 -12q29 0 58.5 12t82.5 39l41 -86q-37 -23 -65.5 -38t-52 -24.5t-46 -13.5t-49.5 -4 q-31 0 -62.5 13.5t-63 28.5t-62.5 28.5t-60 13.5q-18 0 -31.5 -2t-28.5 -10.5t-35.5 -21.5t-55.5 -34q-10 23 -19.5 43.5t-21.5 44.5z" />
<glyph unicode="&#xd2;" horiz-adv-x="1478" d="M54.5 448.5q-13.5 133.5 17.5 276.5t100.5 274t175 231.5t241.5 161t302 60.5t279.5 -60.5t176 -161t77 -231.5t-16.5 -274t-101.5 -276.5t-176 -234.5t-245 -162.5t-304.5 -61.5q-166 0 -276.5 61.5t-173 162.5t-76 234.5zM209.5 500.5q11.5 -105.5 58.5 -185t132 -127 t212 -47.5q129 0 235.5 46t187.5 126t136 185.5t82 224.5q25 117 13.5 221.5t-58.5 183t-134 125.5t-216 47q-127 0 -231.5 -46t-185.5 -124.5t-136 -184t-80 -222.5q-27 -117 -15.5 -222.5zM803 1819h141l142 -232h-140z" />
<glyph unicode="&#xd3;" horiz-adv-x="1478" d="M54.5 448.5q-13.5 133.5 17.5 276.5t100.5 274t175 231.5t241.5 161t302 60.5t279.5 -60.5t176 -161t77 -231.5t-16.5 -274t-101.5 -276.5t-176 -234.5t-245 -162.5t-304.5 -61.5q-166 0 -276.5 61.5t-173 162.5t-76 234.5zM209.5 500.5q11.5 -105.5 58.5 -185t132 -127 t212 -47.5q129 0 235.5 46t187.5 126t136 185.5t82 224.5q25 117 13.5 221.5t-58.5 183t-134 125.5t-216 47q-127 0 -231.5 -46t-185.5 -124.5t-136 -184t-80 -222.5q-27 -117 -15.5 -222.5zM754 1587l240 232h141l-242 -232h-139z" />
<glyph unicode="&#xd4;" horiz-adv-x="1478" d="M54.5 448.5q-13.5 133.5 17.5 276.5t100.5 274t175 231.5t241.5 161t302 60.5t279.5 -60.5t176 -161t77 -231.5t-16.5 -274t-101.5 -276.5t-176 -234.5t-245 -162.5t-304.5 -61.5q-166 0 -276.5 61.5t-173 162.5t-76 234.5zM209.5 500.5q11.5 -105.5 58.5 -185t132 -127 t212 -47.5q129 0 235.5 46t187.5 126t136 185.5t82 224.5q25 117 13.5 221.5t-58.5 183t-134 125.5t-216 47q-127 0 -231.5 -46t-185.5 -124.5t-136 -184t-80 -222.5q-27 -117 -15.5 -222.5zM655 1503l289 316h131l157 -316h-120l-123 215l-211 -215h-123z" />
<glyph unicode="&#xd5;" horiz-adv-x="1478" d="M54.5 448.5q-13.5 133.5 17.5 276.5t100.5 274t175 231.5t241.5 161t302 60.5t279.5 -60.5t176 -161t77 -231.5t-16.5 -274t-101.5 -276.5t-176 -234.5t-245 -162.5t-304.5 -61.5q-166 0 -276.5 61.5t-173 162.5t-76 234.5zM209.5 500.5q11.5 -105.5 58.5 -185t132 -127 t212 -47.5q129 0 235.5 46t187.5 126t136 185.5t82 224.5q25 117 13.5 221.5t-58.5 183t-134 125.5t-216 47q-127 0 -231.5 -46t-185.5 -124.5t-136 -184t-80 -222.5q-27 -117 -15.5 -222.5zM616 1726q53 45 102.5 68t114.5 23q25 0 58.5 -12.5t69.5 -28t69.5 -27.5 t56.5 -12q29 0 58.5 12t82.5 39l41 -86q-37 -23 -65.5 -38t-52 -24.5t-46 -13.5t-49.5 -4q-31 0 -62.5 13.5t-63 28.5t-62.5 28.5t-60 13.5q-18 0 -31.5 -2t-28.5 -10.5t-35.5 -21.5t-55.5 -34q-10 23 -19.5 43.5t-21.5 44.5z" />
<glyph unicode="&#xd6;" horiz-adv-x="1478" d="M54.5 448.5q-13.5 133.5 17.5 276.5t100.5 274t175 231.5t241.5 161t302 60.5t279.5 -60.5t176 -161t77 -231.5t-16.5 -274t-101.5 -276.5t-176 -234.5t-245 -162.5t-304.5 -61.5q-166 0 -276.5 61.5t-173 162.5t-76 234.5zM209.5 500.5q11.5 -105.5 58.5 -185t132 -127 t212 -47.5q129 0 235.5 46t187.5 126t136 185.5t82 224.5q25 117 13.5 221.5t-58.5 183t-134 125.5t-216 47q-127 0 -231.5 -46t-185.5 -124.5t-136 -184t-80 -222.5q-27 -117 -15.5 -222.5zM692 1731q8 39 37 63.5t68 24.5t58 -25t11 -63q-8 -39 -37.5 -62.5t-68.5 -23.5 t-57.5 23.5t-10.5 62.5zM1022 1731q8 39 36.5 63.5t67.5 24.5t58.5 -25t11.5 -63q-8 -39 -38 -62.5t-69 -23.5t-57 23.5t-10 62.5z" />
<glyph unicode="&#xd7;" horiz-adv-x="915" d="M41 240l338 282l-221 277l96 80l221 -277l336 281l63 -80l-335 -281l223 -276l-96 -80l-224 276l-338 -280z" />
<glyph unicode="&#xd8;" horiz-adv-x="1478" d="M54.5 448.5q-13.5 133.5 17.5 276.5t100.5 274t175 231.5t241.5 161t302 60.5q94 0 172 -20l108 206h115l-127 -241q4 -2 10 -6q115 -59 177.5 -160t77 -232t-16.5 -274t-101.5 -276.5t-176 -234.5t-245 -162.5t-304.5 -61.5q-78 0 -144 12l-108 -207h-115l125 238 q-18 8 -35 18q-111 61 -173 162.5t-75.5 235zM209.5 500.5q11.5 -105.5 58.5 -185t131 -127.5q8 -4 15 -8l573 1106q-59 14 -129 14q-127 0 -231.5 -46t-185.5 -124.5t-136 -184t-80 -222.5q-27 -117 -15.5 -222.5zM512 150q45 -8 100 -9q129 0 235.5 46t187.5 126 t136 185.5t82 224.5q25 117 13.5 221.5t-60.5 181.5q-45 76 -125 123z" />
<glyph unicode="&#xd9;" horiz-adv-x="1449" d="M57 471l6 25l199 938h152l-199 -940q-18 -88 -4 -153t55 -108t104.5 -65.5t137.5 -28.5q10 -2 18.5 -2h18.5h14h4h15h17t17 2q78 6 150 28.5t132 65.5t103 108t62 153l198 940h152l-199 -938l-6 -25q-25 -102 -79 -185t-130.5 -144.5t-170 -99.5t-195.5 -50l-78 -6h-21 h-4q-49 0 -96 6q-98 12 -175 50t-126 99.5t-68.5 144.5t-3.5 185zM584 1819h141l142 -232h-140z" />
<glyph unicode="&#xda;" horiz-adv-x="1449" d="M57 471l6 25l199 938h152l-199 -940q-18 -88 -4 -153t55 -108t104.5 -65.5t137.5 -28.5q10 -2 18.5 -2h18.5h14h4h15h17t17 2q78 6 150 28.5t132 65.5t103 108t62 153l198 940h152l-199 -938l-6 -25q-25 -102 -79 -185t-130.5 -144.5t-170 -99.5t-195.5 -50l-78 -6h-21 h-4q-49 0 -96 6q-98 12 -175 50t-126 99.5t-68.5 144.5t-3.5 185zM739 1587l240 232h141l-242 -232h-139z" />
<glyph unicode="&#xdb;" horiz-adv-x="1449" d="M57 471l6 25l199 938h152l-199 -940q-18 -88 -4 -153t55 -108t104.5 -65.5t137.5 -28.5q10 -2 18.5 -2h18.5h14h4h15h17t17 2q78 6 150 28.5t132 65.5t103 108t62 153l198 940h152l-199 -938l-6 -25q-25 -102 -79 -185t-130.5 -144.5t-170 -99.5t-195.5 -50l-78 -6h-21 h-4q-49 0 -96 6q-98 12 -175 50t-126 99.5t-68.5 144.5t-3.5 185zM539 1503l289 316h131l157 -316h-120l-123 215l-211 -215h-123z" />
<glyph unicode="&#xdc;" horiz-adv-x="1449" d="M57 471l6 25l199 938h152l-199 -940q-18 -88 -4 -153t55 -108t104.5 -65.5t137.5 -28.5q10 -2 18.5 -2h18.5h14h4h15h17t17 2q78 6 150 28.5t132 65.5t103 108t62 153l198 940h152l-199 -938l-6 -25q-25 -102 -79 -185t-130.5 -144.5t-170 -99.5t-195.5 -50l-78 -6h-21 h-4q-49 0 -96 6q-98 12 -175 50t-126 99.5t-68.5 144.5t-3.5 185zM637 1731q8 39 37 63.5t68 24.5t58 -25t11 -63q-8 -39 -37.5 -62.5t-68.5 -23.5t-57.5 23.5t-10.5 62.5zM967 1731q8 39 36.5 63.5t67.5 24.5t58.5 -25t11.5 -63q-8 -39 -38 -62.5t-69 -23.5t-57 23.5 t-10 62.5z" />
<glyph unicode="&#xdd;" horiz-adv-x="1251" d="M41 1434h180l283 -576l526 576h180l-667 -750l-146 -684h-151l143 682zM434 1587l240 232h141l-242 -232h-139z" />
<glyph unicode="&#xde;" horiz-adv-x="1040" d="M41 0l307 1446h139l-57 -266h150q104 0 188 -23.5t138.5 -74t74 -129t-3.5 -187.5q-25 -117 -83 -199t-138 -134t-177.5 -75.5t-201.5 -23.5h-127l-70 -334h-139zM281 475h112q66 0 135.5 10.5t131 41t110 88t68.5 151.5q18 86 -2.5 140.5t-62.5 85t-98.5 41.5t-111.5 11 h-162z" />
<glyph unicode="&#xdf;" horiz-adv-x="978" d="M41 0l211 999q23 102 53.5 181.5t76.5 133.5t113.5 81.5t161.5 27.5q74 0 129.5 -23.5t90 -64.5t46 -100t-4.5 -129q-18 -90 -47 -141.5t-66 -83t-83 -54t-99 -55.5q29 -14 88 -29.5t112.5 -53.5t84 -111.5t1.5 -206.5t-95 -219t-153.5 -137.5t-187.5 -71t-194 -19.5 l26 127q70 0 144.5 17.5t142 55.5t119 100.5t71.5 152.5q18 94 -20.5 151.5t-100 91t-126 48t-95.5 22.5l29 131q57 35 108.5 56.5t91.5 48t69.5 68.5t45.5 118q10 51 0 87t-33.5 58.5t-56 32.5t-63.5 10q-102 0 -155.5 -62t-86.5 -214l-217 -1024h-131z" />
<glyph unicode="&#xe0;" horiz-adv-x="1118" d="M48 321.5q-7 94.5 13 194.5q25 111 75 205t125 164.5t173 110.5t215 40q129 0 211 -45q31 -16 58 -35l14 68h145l-217 -1024h-137l14 84q-37 -31 -73 -47q-98 -43 -234 -43q-127 0 -208 44t-124 116.5t-50 167zM195 371.5q6 -72.5 34.5 -129t87 -91t148.5 -34.5 q86 0 168 30q72 29 149 144l99 487q-40 62 -103 99q-59 37 -151 36q-92 0 -162 -31.5t-121 -85t-87 -125t-54 -151.5q-14 -76 -8 -148.5zM459 1434h141l142 -232h-140z" />
<glyph unicode="&#xe1;" horiz-adv-x="1118" d="M48 321.5q-7 94.5 13 194.5q25 111 75 205t125 164.5t173 110.5t215 40q129 0 211 -45q31 -16 58 -35l14 68h145l-217 -1024h-137l14 84q-37 -31 -73 -47q-98 -43 -234 -43q-127 0 -208 44t-124 116.5t-50 167zM195 371.5q6 -72.5 34.5 -129t87 -91t148.5 -34.5 q86 0 168 30q72 29 149 144l99 487q-40 62 -103 99q-59 37 -151 36q-92 0 -162 -31.5t-121 -85t-87 -125t-54 -151.5q-14 -76 -8 -148.5zM573 1202l240 232h141l-242 -232h-139z" />
<glyph unicode="&#xe2;" horiz-adv-x="1118" d="M48 321.5q-7 94.5 13 194.5q25 111 75 205t125 164.5t173 110.5t215 40q129 0 211 -45q31 -16 58 -35l14 68h145l-217 -1024h-137l14 84q-37 -31 -73 -47q-98 -43 -234 -43q-127 0 -208 44t-124 116.5t-50 167zM195 371.5q6 -72.5 34.5 -129t87 -91t148.5 -34.5 q86 0 168 30q72 29 149 144l99 487q-40 62 -103 99q-59 37 -151 36q-92 0 -162 -31.5t-121 -85t-87 -125t-54 -151.5q-14 -76 -8 -148.5zM475 1118l289 316h131l157 -316h-120l-123 215l-211 -215h-123z" />
<glyph unicode="&#xe3;" horiz-adv-x="1118" d="M48 321.5q-7 94.5 13 194.5q25 111 75 205t125 164.5t173 110.5t215 40q129 0 211 -45q31 -16 58 -35l14 68h145l-217 -1024h-137l14 84q-37 -31 -73 -47q-98 -43 -234 -43q-127 0 -208 44t-124 116.5t-50 167zM195 371.5q6 -72.5 34.5 -129t87 -91t148.5 -34.5 q86 0 168 30q72 29 149 144l99 487q-40 62 -103 99q-59 37 -151 36q-92 0 -162 -31.5t-121 -85t-87 -125t-54 -151.5q-14 -76 -8 -148.5zM436 1341q53 45 102.5 68t114.5 23q25 0 58.5 -12.5t69.5 -28t69.5 -27.5t56.5 -12q29 0 58.5 12t82.5 39l41 -86q-37 -23 -65.5 -38 t-52 -24.5t-46 -13.5t-49.5 -4q-31 0 -62.5 13.5t-63 28.5t-62.5 28.5t-60 13.5q-18 0 -31.5 -2t-28.5 -10.5t-35.5 -21.5t-55.5 -34q-10 23 -19.5 43.5t-21.5 44.5z" />
<glyph unicode="&#xe4;" horiz-adv-x="1118" d="M48 321.5q-7 94.5 13 194.5q25 111 75 205t125 164.5t173 110.5t215 40q129 0 211 -45q31 -16 58 -35l14 68h145l-217 -1024h-137l14 84q-37 -31 -73 -47q-98 -43 -234 -43q-127 0 -208 44t-124 116.5t-50 167zM195 371.5q6 -72.5 34.5 -129t87 -91t148.5 -34.5 q86 0 168 30q72 29 149 144l99 487q-40 62 -103 99q-59 37 -151 36q-92 0 -162 -31.5t-121 -85t-87 -125t-54 -151.5q-14 -76 -8 -148.5zM512 1346q8 39 37 63.5t68 24.5t58 -25t11 -63q-8 -39 -37.5 -62.5t-68.5 -23.5t-57.5 23.5t-10.5 62.5zM842 1346q8 39 36.5 63.5 t67.5 24.5t58.5 -25t11.5 -63q-8 -39 -38 -62.5t-69 -23.5t-57 23.5t-10 62.5z" />
<glyph unicode="&#xe5;" horiz-adv-x="1118" d="M48 321.5q-7 94.5 13 194.5q25 111 75 205t125 164.5t173 110.5t215 40q129 0 211 -45q31 -16 58 -35l14 68h145l-217 -1024h-137l14 84q-37 -31 -73 -47q-98 -43 -234 -43q-127 0 -208 44t-124 116.5t-50 167zM195 371.5q6 -72.5 34.5 -129t87 -91t148.5 -34.5 q86 0 168 30q72 29 149 144l99 487q-40 62 -103 99q-59 37 -151 36q-92 0 -162 -31.5t-121 -85t-87 -125t-54 -151.5q-14 -76 -8 -148.5zM557 1237q18 84 84 140.5t164 56.5q100 0 141 -57.5t25 -139.5q-18 -84 -83.5 -140.5t-166.5 -56.5q-98 0 -140 57.5t-24 139.5z M648 1237q-10 -51 8 -89t82 -38q63 0 98 37t47 90q10 53 -9.5 91t-82.5 38t-98 -38t-45 -91z" />
<glyph unicode="&#xe6;" horiz-adv-x="2193" d="M48 321.5q-7 94.5 13 194.5q25 111 75 205t125 164.5t173 110.5t215 40q129 0 211 -45q31 -16 58 -35l14 68h145l-217 -1024h-137l14 84q-37 -31 -73 -47q-98 -43 -234 -43q-127 0 -208 44t-124 116.5t-50 167zM195 371.5q6 -72.5 34.5 -129t87 -91t148.5 -34.5 q86 0 168 30q72 29 149 144l99 487q-40 62 -103 99q-59 37 -151 36q-92 0 -162 -31.5t-121 -85t-87 -125t-54 -151.5q-14 -76 -8 -148.5zM1170 311q-11 92 11 195q29 135 87.5 234.5t135 165t168 97t185.5 31.5q225 0 310 -138t26 -402h-768q-31 -174 40.5 -276.5 t233.5 -102.5q90 0 171 29.5t153 95.5l67 -90q-88 -78 -190 -118t-236 -40q-123 0 -206.5 42t-130 113.5t-57.5 163.5zM1354 614h620q14 63 6 118.5t-35.5 94.5t-80 62.5t-128.5 23.5q-78 0 -139 -23.5t-101 -60t-80 -93t-62 -122.5z" />
<glyph unicode="&#xe7;" horiz-adv-x="1036" d="M33 -303l53 92q18 -12 44 -22.5t60 -10.5q57 0 104.5 34t65.5 114q8 43 9 94q-86 6 -148 39q-80 45 -123 117.5t-50 167t13 194.5q25 111 75 205t125 164.5t173 110.5t215 40q129 0 212 -44t134 -120l-114 -94q-39 61 -100.5 98t-153.5 37t-162 -31.5t-121 -85t-85 -125 t-52 -151.5q-14 -76 -10 -148.5t32.5 -129t87 -91t148.5 -34.5q86 0 168 31.5t155 99.5l66 -90q-88 -76 -188 -121q-86 -37 -199 -41v-33q-2 -33 -8 -67q-25 -113 -101.5 -175.5t-185.5 -62.5q-41 0 -75 11.5t-64 27.5z" />
<glyph unicode="&#xe8;" horiz-adv-x="1075" d="M52 311q-11 92 11 195q29 135 87.5 234.5t135 165t168 97t185.5 31.5q225 0 310 -138t26 -402h-768q-31 -174 40.5 -276.5t233.5 -102.5q90 0 171 29.5t153 95.5l67 -90q-88 -78 -190 -118t-236 -40q-123 0 -206.5 42t-130 113.5t-57.5 163.5zM236 614h620q14 63 6 118.5 t-35.5 94.5t-80 62.5t-128.5 23.5q-78 0 -139 -23.5t-101 -60t-80 -93t-62 -122.5zM395 1434h141l142 -232h-140z" />
<glyph unicode="&#xe9;" horiz-adv-x="1075" d="M52 311q-11 92 11 195q29 135 87.5 234.5t135 165t168 97t185.5 31.5q225 0 310 -138t26 -402h-768q-31 -174 40.5 -276.5t233.5 -102.5q90 0 171 29.5t153 95.5l67 -90q-88 -78 -190 -118t-236 -40q-123 0 -206.5 42t-130 113.5t-57.5 163.5zM236 614h620q14 63 6 118.5 t-35.5 94.5t-80 62.5t-128.5 23.5q-78 0 -139 -23.5t-101 -60t-80 -93t-62 -122.5zM551 1202l240 232h141l-242 -232h-139z" />
<glyph unicode="&#xea;" horiz-adv-x="1075" d="M52 311q-11 92 11 195q29 135 87.5 234.5t135 165t168 97t185.5 31.5q225 0 310 -138t26 -402h-768q-31 -174 40.5 -276.5t233.5 -102.5q90 0 171 29.5t153 95.5l67 -90q-88 -78 -190 -118t-236 -40q-123 0 -206.5 42t-130 113.5t-57.5 163.5zM236 614h620q14 63 6 118.5 t-35.5 94.5t-80 62.5t-128.5 23.5q-78 0 -139 -23.5t-101 -60t-80 -93t-62 -122.5zM453 1118l289 316h131l157 -316h-120l-123 215l-211 -215h-123z" />
<glyph unicode="&#xeb;" horiz-adv-x="1075" d="M52 311q-11 92 11 195q29 135 87.5 234.5t135 165t168 97t185.5 31.5q225 0 310 -138t26 -402h-768q-31 -174 40.5 -276.5t233.5 -102.5q90 0 171 29.5t153 95.5l67 -90q-88 -78 -190 -118t-236 -40q-123 0 -206.5 42t-130 113.5t-57.5 163.5zM236 614h620q14 63 6 118.5 t-35.5 94.5t-80 62.5t-128.5 23.5q-78 0 -139 -23.5t-101 -60t-80 -93t-62 -122.5zM489 1346q8 39 37 63.5t68 24.5t58 -25t11 -63q-8 -39 -37.5 -62.5t-68.5 -23.5t-57.5 23.5t-10.5 62.5zM819 1346q8 39 36.5 63.5t67.5 24.5t58.5 -25t11.5 -63q-8 -39 -38 -62.5 t-69 -23.5t-57 23.5t-10 62.5z" />
<glyph unicode="&#xec;" horiz-adv-x="532" d="M41 0l217 1024h143l-217 -1024h-143zM150 1434h141l141 -232h-139z" />
<glyph unicode="&#xed;" horiz-adv-x="532" d="M41 0l217 1024h143l-217 -1024h-143zM281 1202l239 232h142l-242 -232h-139z" />
<glyph unicode="&#xee;" horiz-adv-x="532" d="M41 0l217 1024h143l-217 -1024h-143zM47 1118l289 316h131l158 -316h-121l-123 215l-211 -215h-123z" />
<glyph unicode="&#xef;" horiz-adv-x="532" d="M41 0l217 1024h143l-217 -1024h-143zM137 1346q8 39 37 63.5t68 24.5t58 -25t11 -63q-8 -39 -37.5 -62.5t-68.5 -23.5t-57.5 23.5t-10.5 62.5zM467 1346q8 39 36.5 63.5t67.5 24.5t58.5 -25t11.5 -63q-8 -39 -38 -62.5t-68 -23.5q-39 0 -57.5 23.5t-10.5 62.5z" />
<glyph unicode="&#xf1;" horiz-adv-x="1103" d="M41 0l217 1026h143l-28 -139q61 66 155.5 111.5t214.5 45.5q78 0 141.5 -23.5t105.5 -68.5t57.5 -112.5t-5.5 -155.5l-143 -684h-141l139 655q27 129 -36.5 193.5t-176.5 64.5q-59 0 -112.5 -23.5t-98.5 -59t-82 -76.5t-63 -76l-144 -678h-143zM430 1341q53 45 102.5 68 t114.5 23q25 0 58.5 -12.5t69.5 -28t69.5 -27.5t56.5 -12q29 0 58.5 12t82.5 39l41 -86q-37 -23 -65.5 -38t-52 -24.5t-46 -13.5t-49.5 -4q-31 0 -62.5 13.5t-63 28.5t-62.5 28.5t-60 13.5q-18 0 -31.5 -2t-28.5 -10.5t-35.5 -21.5t-55.5 -34q-10 23 -19.5 43.5t-21.5 44.5z " />
<glyph unicode="&#xf2;" horiz-adv-x="1083" d="M50 307q-9 96 16 205q23 111 72.5 206t124.5 165.5t172 110.5t218 40t202 -41t125 -112.5t53.5 -167.5t-13.5 -207t-73 -206t-124.5 -166t-173 -110.5t-219.5 -39.5t-200.5 42t-125 113.5t-54.5 167.5zM200 348q3 -76 29.5 -131t82 -87t143.5 -32t156.5 31t119.5 86 t85 130t52 163t16.5 162.5t-29.5 130t-83 87.5t-143 32t-155.5 -31t-119 -85t-85 -130t-54.5 -164q-18 -86 -15 -162zM604 1434h141l142 -232h-140z" />
<glyph unicode="&#xf3;" horiz-adv-x="1083" d="M50 307q-9 96 16 205q23 111 72.5 206t124.5 165.5t172 110.5t218 40t202 -41t125 -112.5t53.5 -167.5t-13.5 -207t-73 -206t-124.5 -166t-173 -110.5t-219.5 -39.5t-200.5 42t-125 113.5t-54.5 167.5zM200 348q3 -76 29.5 -131t82 -87t143.5 -32t156.5 31t119.5 86 t85 130t52 163t16.5 162.5t-29.5 130t-83 87.5t-143 32t-155.5 -31t-119 -85t-85 -130t-54.5 -164q-18 -86 -15 -162zM555 1202l240 232h141l-242 -232h-139z" />
<glyph unicode="&#xf4;" horiz-adv-x="1083" d="M50 307q-9 96 16 205q23 111 72.5 206t124.5 165.5t172 110.5t218 40t202 -41t125 -112.5t53.5 -167.5t-13.5 -207t-73 -206t-124.5 -166t-173 -110.5t-219.5 -39.5t-200.5 42t-125 113.5t-54.5 167.5zM200 348q3 -76 29.5 -131t82 -87t143.5 -32t156.5 31t119.5 86 t85 130t52 163t16.5 162.5t-29.5 130t-83 87.5t-143 32t-155.5 -31t-119 -85t-85 -130t-54.5 -164q-18 -86 -15 -162zM457 1118l289 316h131l157 -316h-120l-123 215l-211 -215h-123z" />
<glyph unicode="&#xf5;" horiz-adv-x="1083" d="M50 307q-9 96 16 205q23 111 72.5 206t124.5 165.5t172 110.5t218 40t202 -41t125 -112.5t53.5 -167.5t-13.5 -207t-73 -206t-124.5 -166t-173 -110.5t-219.5 -39.5t-200.5 42t-125 113.5t-54.5 167.5zM200 348q3 -76 29.5 -131t82 -87t143.5 -32t156.5 31t119.5 86 t85 130t52 163t16.5 162.5t-29.5 130t-83 87.5t-143 32t-155.5 -31t-119 -85t-85 -130t-54.5 -164q-18 -86 -15 -162zM420 1341q53 45 102.5 68t114.5 23q25 0 58.5 -12.5t69.5 -28t69.5 -27.5t56.5 -12q29 0 58.5 12t82.5 39l41 -86q-37 -23 -65.5 -38t-52 -24.5t-46 -13.5 t-49.5 -4q-31 0 -62.5 13.5t-63 28.5t-62.5 28.5t-60 13.5q-18 0 -31.5 -2t-28.5 -10.5t-35.5 -21.5t-55.5 -34q-10 23 -19.5 43.5t-21.5 44.5z" />
<glyph unicode="&#xf6;" horiz-adv-x="1083" d="M50 307q-9 96 16 205q23 111 72.5 206t124.5 165.5t172 110.5t218 40t202 -41t125 -112.5t53.5 -167.5t-13.5 -207t-73 -206t-124.5 -166t-173 -110.5t-219.5 -39.5t-200.5 42t-125 113.5t-54.5 167.5zM200 348q3 -76 29.5 -131t82 -87t143.5 -32t156.5 31t119.5 86 t85 130t52 163t16.5 162.5t-29.5 130t-83 87.5t-143 32t-155.5 -31t-119 -85t-85 -130t-54.5 -164q-18 -86 -15 -162zM493 1346q8 39 37 63.5t68 24.5t58 -25t11 -63q-8 -39 -37.5 -62.5t-68.5 -23.5t-57.5 23.5t-10.5 62.5zM823 1346q8 39 36.5 63.5t67.5 24.5t58.5 -25 t11.5 -63q-8 -39 -38 -62.5t-69 -23.5t-57 23.5t-10 62.5z" />
<glyph unicode="&#xf7;" horiz-adv-x="475" d="M51 98q8 43 42 72t77 29t65.5 -29t14.5 -72q-10 -43 -44 -70.5t-77 -27.5t-65.5 27.5t-12.5 70.5zM225 922q10 43 44 71.5t77 28.5t65.5 -28.5t12.5 -71.5q-8 -43 -43 -71t-78 -28t-64.5 28t-13.5 71z" />
<glyph unicode="&#xf8;" horiz-adv-x="1103" d="M66 -205l147 246q-106 66 -139 190.5t2 280.5q23 111 73 206t124.5 165.5t172 110.5t218.5 40q70 0 131 -16l127 211h116l-149 -250q109 -66 141.5 -190.5t-0.5 -282.5q-23 -111 -73 -206t-124.5 -166t-173 -110.5t-219.5 -39.5q-39 0 -71.5 4t-63.5 12l-123 -205h-116z M212.5 303q10.5 -92 70.5 -145l448 749q-41 12 -92 13q-88 0 -155.5 -31t-119 -85t-85.5 -130t-54 -164q-23 -115 -12.5 -207zM371 109q20 -6 42.5 -8.5t51.5 -2.5q88 0 156.5 31t120 86t85.5 130t52 163q25 117 12.5 209t-72.5 145z" />
<glyph unicode="&#xf9;" horiz-adv-x="1130" d="M57.5 188.5q-16.5 67.5 1.5 155.5l146 680h143l-139 -651q-14 -66 -2 -114t45 -81t80 -49t104 -16q123 0 208 49t142 119l158 743h146l-218 -1024h-137l23 115q-131 -129 -383 -129q-82 0 -147.5 22.5t-109.5 67.5t-60.5 112.5zM629 1434h141l142 -232h-140z" />
<glyph unicode="&#xfa;" horiz-adv-x="1130" d="M57.5 188.5q-16.5 67.5 1.5 155.5l146 680h143l-139 -651q-14 -66 -2 -114t45 -81t80 -49t104 -16q123 0 208 49t142 119l158 743h146l-218 -1024h-137l23 115q-131 -129 -383 -129q-82 0 -147.5 22.5t-109.5 67.5t-60.5 112.5zM580 1202l240 232h141l-242 -232h-139z " />
<glyph unicode="&#xfb;" horiz-adv-x="1130" d="M57.5 188.5q-16.5 67.5 1.5 155.5l146 680h143l-139 -651q-14 -66 -2 -114t45 -81t80 -49t104 -16q123 0 208 49t142 119l158 743h146l-218 -1024h-137l23 115q-131 -129 -383 -129q-82 0 -147.5 22.5t-109.5 67.5t-60.5 112.5zM338 1118l289 316h131l157 -316h-120 l-123 215l-211 -215h-123z" />
<glyph unicode="&#xfc;" horiz-adv-x="1130" d="M57.5 188.5q-16.5 67.5 1.5 155.5l146 680h143l-139 -651q-14 -66 -2 -114t45 -81t80 -49t104 -16q123 0 208 49t142 119l158 743h146l-218 -1024h-137l23 115q-131 -129 -383 -129q-82 0 -147.5 22.5t-109.5 67.5t-60.5 112.5zM352 1346q8 39 37 63.5t68 24.5t58 -25 t11 -63q-8 -39 -37.5 -62.5t-68.5 -23.5t-57.5 23.5t-10.5 62.5zM682 1346q8 39 36.5 63.5t67.5 24.5t58.5 -25t11.5 -63q-8 -39 -38 -62.5t-69 -23.5t-57 23.5t-10 62.5z" />
<glyph unicode="&#xfd;" horiz-adv-x="1253" d="M41 -301q45 8 104.5 26.5t116.5 52.5t101.5 84t60.5 122l-209 1040h162l160 -860l522 860h153l-647 -1040l-57 -99q-33 -59 -79 -112.5t-105.5 -94t-130 -67.5t-146.5 -35zM641 1202l240 232h141l-242 -232h-139z" />
<glyph unicode="&#xfe;" horiz-adv-x="1230" d="M41 -537l416 1967h4l2 4h143l-90 -428q55 14 110.5 22t110.5 8q102 0 192.5 -29.5t152 -93t85 -162t-5.5 -235.5q-25 -115 -82 -210t-142 -164.5t-193.5 -108.5t-233.5 -39q-104 0 -207 18l-117 -549h-145zM334 150q49 -18 103.5 -25.5t111.5 -7.5q180 0 302 109.5 t161 287.5q41 193 -45 296t-269 103q-49 0 -103 -11t-108 -28z" />
<glyph unicode="&#xff;" horiz-adv-x="1253" d="M41 -301q45 8 104.5 26.5t116.5 52.5t101.5 84t60.5 122l-209 1040h162l160 -860l522 860h153l-647 -1040l-57 -99q-33 -59 -79 -112.5t-105.5 -94t-130 -67.5t-146.5 -35zM579 1346q8 39 37 63.5t68 24.5t58 -25t11 -63q-8 -39 -37.5 -62.5t-68.5 -23.5t-57.5 23.5 t-10.5 62.5zM909 1346q8 39 36.5 63.5t67.5 24.5t58.5 -25t11.5 -63q-8 -39 -38 -62.5t-69 -23.5t-57 23.5t-10 62.5z" />
<glyph unicode="&#x152;" horiz-adv-x="1880" d="M54.5 439q-13.5 130 17.5 276q31 147 101.5 278t177 228.5t247.5 155t311 57.5h930l-29 -136h-680l-100 -479h617l-29 -133h-617l-116 -551h723l-29 -135h-973q-176 0 -293.5 57.5t-181 154.5t-77 227zM211.5 475.5q15.5 -108.5 70 -185.5t145.5 -118t216 -41h90 l250 1172h-90q-135 0 -245.5 -44.5t-195.5 -122t-142.5 -185t-84.5 -234.5q-29 -133 -13.5 -241.5z" />
<glyph unicode="&#x153;" horiz-adv-x="1748" d="M50 292q-9 89 13 191q20 100 67.5 189.5t116 154t160 102.5t201.5 38q135 0 214 -56.5t110 -150.5q78 104 183.5 155.5t221.5 51.5q209 0 290 -128t30 -372h-719q-14 -80 -5 -145.5t42 -113.5t88 -73.5t129 -25.5q164 0 301 122l61 -84q-82 -72 -178 -112.5t-219 -40.5 q-141 0 -223 58.5t-115 150.5q-70 -96 -174 -152.5t-244 -56.5q-111 0 -185.5 39t-115.5 104.5t-50 154.5zM186.5 331.5q1.5 -69.5 27.5 -120.5t77 -81t133 -30t145.5 28t110.5 78t79 119.5t48 151.5q18 82 16 151.5t-27.5 121t-76.5 81t-133 29.5t-145.5 -28.5t-111.5 -79 t-79 -120t-49 -151.5q-16 -80 -14.5 -149.5zM965 573h573q12 59 5 111.5t-34.5 91.5t-76 61.5t-117.5 22.5q-72 0 -127 -21.5t-98 -60.5t-74 -91t-51 -114z" />
<glyph unicode="&#x178;" horiz-adv-x="1273" d="M41 1380h178l293 -594l547 594h174l-684 -735l-135 -645h-146l135 645zM424 1546q8 39 36.5 63.5t67.5 24.5t58.5 -24.5t11.5 -63.5t-38 -62.5t-68 -23.5q-39 0 -57.5 23.5t-10.5 62.5zM754 1546q8 39 36.5 63.5t67.5 24.5t58.5 -24.5t11.5 -63.5t-38 -62.5t-69 -23.5 t-57 23.5t-10 62.5z" />
<glyph unicode="&#x2c6;" horiz-adv-x="659" d="M41 1118l289 316h131l157 -316h-120l-123 215l-211 -215h-123z" />
<glyph unicode="&#x2dc;" horiz-adv-x="735" d="M41 1341q53 45 102.5 68t114.5 23q25 0 58.5 -12.5t69.5 -28t69.5 -27.5t56.5 -12q29 0 58.5 12t82.5 39l41 -86q-37 -23 -65.5 -38t-52 -24.5t-46 -13.5t-49.5 -4q-31 0 -62.5 13.5t-63 28.5t-62.5 28.5t-60 13.5q-18 0 -31.5 -2t-28.5 -10.5t-35.5 -21.5t-55.5 -34 q-10 23 -19.5 43.5t-21.5 44.5z" />
<glyph unicode="&#x2000;" horiz-adv-x="909" />
<glyph unicode="&#x2001;" horiz-adv-x="1819" />
<glyph unicode="&#x2002;" horiz-adv-x="909" />
<glyph unicode="&#x2003;" horiz-adv-x="1819" />
<glyph unicode="&#x2004;" horiz-adv-x="606" />
<glyph unicode="&#x2005;" horiz-adv-x="454" />
<glyph unicode="&#x2006;" horiz-adv-x="303" />
<glyph unicode="&#x2007;" horiz-adv-x="303" />
<glyph unicode="&#x2008;" horiz-adv-x="227" />
<glyph unicode="&#x2009;" horiz-adv-x="363" />
<glyph unicode="&#x200a;" horiz-adv-x="101" />
<glyph unicode="&#x2010;" horiz-adv-x="516" d="M41 455l25 120h409l-24 -120h-410z" />
<glyph unicode="&#x2011;" horiz-adv-x="516" d="M41 455l25 120h409l-24 -120h-410z" />
<glyph unicode="&#x2012;" horiz-adv-x="516" d="M41 455l25 120h409l-24 -120h-410z" />
<glyph unicode="&#x2013;" horiz-adv-x="1048" d="M41 420l25 112h942l-25 -112h-942z" />
<glyph unicode="&#x2014;" horiz-adv-x="1499" d="M41 420l25 112h1392l-24 -112h-1393z" />
<glyph unicode="&#x2018;" horiz-adv-x="411" d="M41 1024l207 410h123l-199 -410h-131z" />
<glyph unicode="&#x2019;" horiz-adv-x="411" d="M41 1024l207 410h123l-199 -410h-131z" />
<glyph unicode="&#x201a;" horiz-adv-x="438" d="M41 -180l250 385h106l-280 -385h-76z" />
<glyph unicode="&#x201c;" horiz-adv-x="671" d="M41 1024l207 410h123l-199 -410h-131zM301 1024l207 410h123l-199 -410h-131z" />
<glyph unicode="&#x201d;" horiz-adv-x="671" d="M41 1024l207 410h123l-199 -410h-131zM301 1024l207 410h123l-199 -410h-131z" />
<glyph unicode="&#x201e;" horiz-adv-x="675" d="M41 -313l217 501h131l-248 -501h-100zM285 -313l219 501h131l-248 -501h-102z" />
<glyph unicode="&#x2022;" horiz-adv-x="499" d="M59 475q18 84 82 138.5t148 54.5t127 -54.5t24 -138.5q-18 -84 -83.5 -136t-149.5 -52t-125 52t-23 136z" />
<glyph unicode="&#x2026;" horiz-adv-x="1232" d="M49 94q10 41 42 68.5t73 27.5t63.5 -27.5t12.5 -68.5q-8 -41 -41 -67.5t-74 -26.5t-62.5 26.5t-13.5 67.5zM520 94q10 41 42 68.5t73 27.5t63.5 -27.5t12.5 -68.5q-8 -41 -41 -67.5t-74 -26.5t-62.5 26.5t-13.5 67.5zM991 94q10 41 42 68.5t73 27.5t63.5 -27.5 t12.5 -68.5q-8 -41 -41 -67.5t-74 -26.5t-62.5 26.5t-13.5 67.5z" />
<glyph unicode="&#x202f;" horiz-adv-x="363" />
<glyph unicode="&#x2039;" horiz-adv-x="561" d="M41 477l352 338h127l-340 -338l197 -338h-127z" />
<glyph unicode="&#x203a;" horiz-adv-x="550" d="M41 139l319 338l-176 338h117l209 -338l-352 -338h-117z" />
<glyph unicode="&#x205f;" horiz-adv-x="454" />
<glyph unicode="&#x20ac;" horiz-adv-x="1206" d="M41 401l27 121h161q2 20 8.5 49t10.5 52q6 27 11 46t15 46h-165l24 119h186q39 82 91.5 155.5t119 130t143.5 89t163 32.5q123 0 202.5 -61.5t126.5 -159.5l-121 -105q-41 92 -97 144.5t-134 52.5q-55 0 -105.5 -23.5t-94.5 -61.5t-80.5 -88t-67.5 -105h362l-24 -119 h-391q-10 -27 -15.5 -46.5t-11.5 -45.5q-4 -23 -9 -51.5t-7 -49.5h393l-27 -121h-370q4 -57 20 -108t45 -89t71 -60.5t101 -22.5q78 0 156 46t155 136l78 -102q-90 -98 -194.5 -154.5t-227.5 -56.5q-90 0 -154.5 31.5t-106.5 88t-63.5 131t-21.5 160.5h-182z" />
<glyph unicode="&#x2122;" horiz-adv-x="1689" d="M41 1298l29 136h608l-29 -136h-225l-186 -878h-154l186 878h-229zM537 424l215 1010h131l192 -586l447 586h127l-215 -1010h-152l150 696l-416 -559l-182 547l-146 -684h-151z" />
<glyph unicode="&#x25fc;" horiz-adv-x="1024" d="M0 0v1024h1024v-1024h-1024z" />
</font>
</defs>
</svg>
