<?xml version="1.0" standalone="no"?>
<!DOCTYPE svg PUBLIC "-//W3C//DTD SVG 1.1//EN" "http://www.w3.org/Graphics/SVG/1.1/DTD/svg11.dtd" >
<svg xmlns="http://www.w3.org/2000/svg">
<metadata></metadata>
<defs>
<font id="uberlin_xboldregular" horiz-adv-x="1562" >
<font-face units-per-em="2048" ascent="1536" descent="-512" />
<missing-glyph horiz-adv-x="516" />
<glyph horiz-adv-x="2048" />
<glyph horiz-adv-x="2048" />
<glyph unicode="&#xd;" horiz-adv-x="681" />
<glyph unicode=" "  horiz-adv-x="516" />
<glyph unicode="&#x09;" horiz-adv-x="516" />
<glyph unicode="&#xa0;" horiz-adv-x="516" />
<glyph unicode="!" horiz-adv-x="382" d="M41 150q0 70 42 110.5t107 40.5q68 0 110 -41t42 -110q0 -66 -42 -107t-110 -41q-66 0 -107.5 41t-41.5 107zM49 322v1085h287v-1085h-287z" />
<glyph unicode="&#x22;" horiz-adv-x="632" d="M41 1038v371h262l-2 -371h-260zM330 1038v371h262l-2 -371h-260z" />
<glyph unicode="#" horiz-adv-x="909" d="M41 236v202h152q6 35 13 67t17 75h-182v202h221l49 240h207l-51 -240h86l49 240h207l-51 -240h110v-202h-151q-6 -35 -13.5 -66t-15.5 -76h180v-202h-221l-47 -236h-207l49 236h-86l-47 -236h-207l50 236h-111zM397 438h86q6 35 13.5 67t15.5 75h-84z" />
<glyph unicode="$" horiz-adv-x="1226" d="M41 248l248 180q55 -59 104 -99t101 -57v230q-68 20 -129.5 54t-108.5 80t-75.5 106.5t-28.5 134.5q0 59 19 114.5t60 101.5t106.5 78.5t156.5 49.5v184h282v-184q104 -16 201.5 -76t208.5 -164l-240 -174q-94 111 -170 139v-237q72 -20 139.5 -47t119.5 -67t84 -97.5 t32 -139.5q0 -152 -103.5 -240.5t-271.5 -115.5v-172h-282v172q-111 20 -223.5 79.5t-229.5 166.5zM432 893q0 -23 16.5 -47.5t45.5 -44.5v147q-35 -10 -48.5 -23.5t-13.5 -31.5zM776 272q51 16 70.5 35.5t19.5 46.5q0 25 -25.5 42.5t-64.5 31.5v-156z" />
<glyph unicode="%" horiz-adv-x="1116" d="M41 0l725 1401h309l-727 -1401h-307zM61 1147q0 111 71 182.5t190 71.5q131 0 195.5 -71.5t64.5 -182.5q0 -104 -64.5 -178t-195.5 -74q-59 0 -107.5 20.5t-82.5 55.5t-52.5 80t-18.5 96zM317 1147q0 -8 5 -8q8 0 8 8q0 18 -8 18q-4 0 -5 -18zM526 252q0 111 69 181.5 t193 70.5q129 0 194 -70.5t65 -181.5q0 -104 -64.5 -178t-194.5 -74q-61 0 -110 20.5t-83 54.5t-51.5 80t-17.5 97zM786 252q0 -10 2 -10q5 0 5 10q0 16 -5 16q-2 0 -2 -16z" />
<glyph unicode="&#x26;" horiz-adv-x="1236" d="M41 418q0 115 61.5 214t190.5 183q-49 74 -71.5 138.5t-22.5 115.5q0 78 27.5 141.5t74.5 104.5q55 41 127 69.5t143 28.5q78 0 142.5 -25.5t113.5 -70.5q45 -47 75 -107.5t30 -130.5q0 -98 -51.5 -178t-161.5 -153l55 -84l-4 6l18 -21l11 -14q10 -12 15 -18.5t8 -10.5 t8.5 -11t17.5 -20q4 27 8 62t6 86h291q-12 -135 -33.5 -230.5t-62.5 -173.5l139 -169l-135 -111l-92 -78l-109 133q-78 -49 -169 -77.5t-189 -28.5q-102 0 -184 30.5t-148 87.5q-129 125 -129 312zM330 426q0 -33 14 -62.5t39 -53t56.5 -37t66.5 -13.5q47 0 93 12.5t85 38.5 l-219 271q-70 -45 -102.5 -80t-32.5 -76zM489 1083q0 -16 15.5 -39.5t40.5 -56.5l10 -8q43 25 63.5 47.5t20.5 50.5q0 29 -23.5 46.5t-54.5 17.5t-51.5 -15.5t-20.5 -42.5z" />
<glyph unicode="'" horiz-adv-x="344" d="M41 1038v371h262l-2 -371h-260z" />
<glyph unicode="(" horiz-adv-x="702" d="M41 666q0 147 28.5 271t76 228.5t104.5 190.5t117 157h295q-76 -96 -142.5 -197.5t-116 -206.5t-77 -216t-27.5 -227q0 -117 27.5 -227.5t77 -216t115 -206t143.5 -196.5h-295q-59 74 -116.5 160t-105 190t-76 227t-28.5 269z" />
<glyph unicode=")" horiz-adv-x="702" d="M41 -180q76 96 142.5 196.5t115.5 206t78 216t29 227.5t-29 227.5t-78 215.5t-115.5 206.5t-142.5 197.5h295q57 -72 115.5 -157.5t105.5 -190t76 -228.5t29 -271t-29 -270.5t-76 -226.5t-105.5 -189t-115.5 -160h-295z" />
<glyph unicode="*" horiz-adv-x="870" d="M41 1026l84 231l180 -61v205h258v-205q47 16 99.5 32.5t91.5 28.5l75 -237l-190 -68l20 -24l109 -135l-203 -150l-131 164l-127 -154l-203 131l121 172l-28 11l2 -2z" />
<glyph unicode="+" horiz-adv-x="1003" d="M41 420v262h330v330h262v-330h330v-262h-330v-330h-262v330h-330z" />
<glyph unicode="," horiz-adv-x="509" d="M41 -195l158 498h270l-174 -498h-254z" />
<glyph unicode="-" horiz-adv-x="579" d="M41 391v248h498v-248h-498z" />
<glyph unicode="." horiz-adv-x="397" d="M41 158q0 66 43 112.5t113 46.5q68 0 113.5 -47t45.5 -112q0 -72 -46 -115t-113 -43q-70 0 -113 43t-43 115z" />
<glyph unicode="/" horiz-adv-x="882" d="M41 0l522 1413h279l-523 -1413h-278z" />
<glyph unicode="0" horiz-adv-x="1136" d="M41 698q0 162 39 295t109.5 226.5t167 144.5t212.5 51q117 0 213.5 -51t166 -144.5t108.5 -226.5t39 -295q0 -166 -39 -298t-108.5 -224t-166 -141t-213.5 -49t-213 49t-166.5 141t-109.5 224t-39 298zM305 698q0 -104 19.5 -188t55.5 -143.5t84 -91t105 -31.5 q55 0 101.5 31.5t81 91t54 143.5t19.5 188q0 211 -72.5 330t-183.5 119q-115 0 -189.5 -119t-74.5 -330z" />
<glyph unicode="1" horiz-adv-x="348" d="M41 0v1327l266 98v-1425h-266z" />
<glyph unicode="2" horiz-adv-x="1036" d="M41 1130q72 137 191.5 219.5t259.5 82.5q106 0 192 -34t146.5 -95.5t93 -145.5t32.5 -184q0 -68 -24.5 -133.5t-61 -127t-82 -115.5t-86.5 -97l-174 -189l-34 -43h501v-268h-919v240l403 422q31 35 65 75.5t63.5 81.5t49 82t19.5 78t-12.5 70.5t-36 61.5t-58 44t-77.5 16 q-35 0 -73 -11t-73 -35.5t-64.5 -61.5t-45.5 -86z" />
<glyph unicode="3" horiz-adv-x="1044" d="M41 213l217 184q61 -82 124.5 -117.5t125.5 -35.5q104 0 162.5 45t58.5 125q0 88 -74.5 139t-210.5 51h-114v268h116q98 0 163 45.5t65 118.5q0 57 -50.5 93t-121.5 36q-72 0 -127.5 -34.5t-114.5 -104.5l-205 174q106 113 209 167t236 54q94 0 176 -24.5t143.5 -71.5 t96 -119.5t34.5 -167.5q0 -80 -30.5 -153.5t-83.5 -126.5q78 -53 123 -140t45 -204q0 -104 -40 -184t-108 -133.5t-158 -81t-190 -27.5q-66 0 -125 12t-114.5 40t-112 71t-115.5 102z" />
<glyph unicode="4" horiz-adv-x="1050" d="M41 328v190l637 893h221v-811h111v-272h-111v-326h-268v326h-590zM428 600h203v289q-51 -74 -98.5 -139.5t-104.5 -149.5z" />
<glyph unicode="5" horiz-adv-x="1054" d="M41 215l215 191q61 -82 129 -113t131 -31q49 0 91 17.5t73 48t48 71.5t17 88q0 111 -75.5 183.5t-206.5 72.5q-51 0 -143.5 -15t-184.5 -42l70 727h713v-272h-476v-13q-2 -18 -2 -30.5v-22.5t-2 -25.5t-4 -39.5h55q106 0 201.5 -33t167.5 -97.5t114 -160.5t42 -223 q0 -94 -37 -185.5t-103.5 -162t-157.5 -113.5t-200 -43q-139 0 -249.5 56t-225.5 167z" />
<glyph unicode="6" horiz-adv-x="1046" d="M41 551q0 135 43 272.5t136 255t243.5 207.5t365.5 129l74 -244q-188 -43 -307 -104t-180 -147q35 10 74.5 12t80.5 2q86 0 164 -35t138.5 -96.5t96.5 -147.5t36 -190q0 -102 -34 -189.5t-95.5 -152t-149.5 -100t-197 -35.5q-117 0 -208 44t-153.5 120.5t-95 179 t-32.5 219.5zM315 545q0 -55 15.5 -108.5t43 -96.5t68.5 -68.5t95 -25.5q94 0 147 59.5t53 151.5t-53 151.5t-129 59.5q-66 0 -127 -28t-113 -73v-22z" />
<glyph unicode="7" horiz-adv-x="950" d="M41 1141v272h868v-188l-215 -428v2l-26 -54q-47 -88 -90 -170.5t-76 -160.5t-52.5 -153t-19.5 -144v-113h-268v111q0 96 16.5 177t49 165t83.5 180t121 225q27 51 43.5 85t32.5 67l13 32.5t10.5 24.5t12.5 28.5t21 41.5h-524z" />
<glyph unicode="8" horiz-adv-x="1079" d="M41 432q0 117 46 197t124 129q-53 53 -84 124.5t-31 155.5q0 94 35 167t96.5 121t144.5 72.5t179 22.5q121 -2 204 -33.5t134 -84t73.5 -121t22.5 -144.5q0 -80 -30.5 -153.5t-82.5 -126.5q78 -49 122 -129t44 -197q0 -150 -73.5 -248t-184 -146t-240.5 -48t-241 50 t-184.5 148.5t-73.5 243.5zM319 432q0 -88 65 -136t155 -48q45 0 86 11t71.5 33.5t48 57.5t17.5 82q0 74 -60.5 117t-162.5 53q-106 -10 -163 -52t-57 -118zM369 1036q0 -61 49 -106t125 -53q72 8 121 54t49 105q0 27 -13.5 52.5t-37 46t-55.5 33t-68 12.5h-2 q-70 -4 -119 -47t-49 -97z" />
<glyph unicode="9" horiz-adv-x="1046" d="M41 926q0 102 34 192t95 157.5t149.5 106.5t196.5 39q117 0 208 -47t153.5 -127t95.5 -186t33 -223q0 -135 -42 -271.5t-136.5 -254t-245 -207t-365.5 -128.5l-76 240q188 43 309 112.5t185 162.5q-35 -10 -76 -13.5t-86 -3.5q-84 0 -162 32t-138 90t-96 141t-36 188z M311 934q0 -92 52.5 -141.5t128.5 -49.5q68 0 128 26t111 69q2 8 2 15v11q0 55 -15.5 109.5t-44 97.5t-69.5 68.5t-92 25.5q-47 0 -84 -18.5t-63.5 -51t-40 -74.5t-13.5 -87z" />
<glyph unicode=":" horiz-adv-x="399" d="M41 158q0 66 44 112.5t114 46.5q68 0 113.5 -47t45.5 -112q0 -72 -46 -115t-113 -43q-70 0 -114 43t-44 115zM41 862q0 68 44 114t114 46q68 0 113.5 -46t45.5 -114q0 -70 -46 -113.5t-113 -43.5q-70 0 -114 43.5t-44 113.5z" />
<glyph unicode=";" horiz-adv-x="503" d="M41 -268l160 575h262l-162 -575h-260zM143 862q0 68 44 114t114 46q68 0 114 -46t46 -114q0 -70 -46 -113.5t-114 -43.5q-70 0 -114 43.5t-44 113.5z" />
<glyph unicode="&#x3c;" horiz-adv-x="716" d="M41 483l305 369h328l-289 -365l291 -370h-330z" />
<glyph unicode="=" horiz-adv-x="952" d="M41 248v258h870v-258h-870zM41 588v264h870v-264h-870z" />
<glyph unicode="&#x3e;" horiz-adv-x="716" d="M41 117l291 368l-291 367h330l305 -369l-305 -366h-330z" />
<glyph unicode="?" horiz-adv-x="903" d="M41 1200q104 106 202.5 159.5t225.5 53.5q76 0 147.5 -22.5t126 -68.5t87 -116.5t32.5 -167.5q0 -61 -25.5 -118.5t-66.5 -108.5t-92 -96t-100 -82v-299h-261l-4 452q72 45 124 80t85 63.5t48.5 54.5t15.5 54q0 57 -37 84t-92 27q-53 0 -114.5 -27.5t-121.5 -103.5z M291 158q0 63 43 108t115 45q63 0 108 -45t45 -108q0 -72 -45 -115t-108 -43q-72 0 -115 43t-43 115z" />
<glyph unicode="@" horiz-adv-x="1378" d="M41 700q0 137 41 263.5t123 221.5t202.5 152.5t278.5 57.5q145 0 265 -46t206 -131t133 -206.5t47 -268.5q0 -92 -18.5 -163.5t-50 -124t-72.5 -85t-86 -46.5l84 -125q-106 -102 -233 -150.5t-275 -48.5q-158 0 -278.5 52t-202.5 145.5t-123 221.5t-41 281zM238 698 q0 -111 27.5 -204t85 -161.5t142.5 -107.5t199 -39q102 0 187.5 27t164.5 98h-14q-115 0 -168 64q-49 -41 -108.5 -59.5t-118.5 -18.5q-131 0 -214 71.5t-83 196.5q0 70 25.5 122t69.5 85t101.5 49.5t122.5 16.5q41 0 85 -5.5t81 -15.5v19q0 55 -37.5 85.5t-109.5 30.5 q-41 0 -87 -25.5t-100 -92.5l-133 147q61 78 141.5 119t184.5 41q154 0 245 -74t91 -217v-350q0 -12 14 -13q18 0 36.5 11.5t33 40t24 76t9.5 120.5q0 115 -33 204t-91.5 150.5t-141.5 93t-183 31.5q-111 0 -194.5 -42t-140 -112.5t-85 -163.5t-28.5 -198zM530 567 q0 -41 32 -63.5t89 -22.5q45 0 91 25.5t81 66.5v56q-35 14 -72.5 20t-74.5 6q-53 0 -99.5 -19.5t-46.5 -68.5z" />
<glyph unicode="A" d="M41 0l741 1468l740 -1468h-310l-186 391h-494q-29 -59 -55 -114.5t-53 -114.5l-82 -162h-301zM670 678h223l-111 227z" />
<glyph unicode="B" horiz-adv-x="1335" d="M41 0v1434h741q80 0 159 -24t141.5 -74t101.5 -128t39 -184q0 -158 -95 -254q78 -49 122 -131t44 -205q0 -115 -42 -196.5t-112.5 -135t-165.5 -78t-200 -24.5h-733zM328 266h430q250 0 250 174q0 86 -72 128t-188 42h-420v-344zM328 881h434q78 0 127 33.5t49 103.5 q0 72 -47 110.5t-127 38.5h-436v-286z" />
<glyph unicode="C" horiz-adv-x="1366" d="M41 717q0 147 56.5 278t153.5 228.5t228 154t279 56.5q168 0 310 -70t257 -193l-211 -186q-86 86 -177 128t-183 42q-90 0 -170 -35t-139.5 -94t-93.5 -138t-34 -169t34 -169t93.5 -138.5t139.5 -94t170 -34.5t187 51t185 145l187 -219q-115 -127 -252 -193.5t-303 -66.5 q-147 0 -278.5 56.5t-228.5 153.5t-153.5 228t-56.5 279z" />
<glyph unicode="D" horiz-adv-x="1345" d="M41 0v1434h539q150 0 281.5 -55.5t230 -152t156 -226t57.5 -279.5q0 -143 -53.5 -270t-146.5 -224.5t-218 -158t-269 -68.5h-577zM328 281h274q80 12 156 50t133 96t92 134t35 160q0 92 -35 172t-94.5 140.5t-139 95t-169.5 34.5h-252v-882z" />
<glyph unicode="E" horiz-adv-x="1314" d="M41 0v1434h1233v-287h-946v-264h858v-285h-858v-311h946v-287h-1233z" />
<glyph unicode="F" horiz-adv-x="1314" d="M41 0v1434h1233v-287h-946v-264h858v-285h-858v-598h-287z" />
<glyph unicode="G" horiz-adv-x="1361" d="M41 717q0 147 56.5 278t154.5 228.5t229 154t279 56.5q168 0 309 -70t252 -193l-201 -194q-86 86 -179 132t-185 46q-90 0 -170 -35t-139.5 -94t-94.5 -138t-35 -169t35 -169t94.5 -138.5t139.5 -94t170 -34.5q68 0 140.5 25.5t123.5 60.5v229h-430v285h719v-617l-2 -33 q-96 -111 -238.5 -172t-308.5 -61q-147 0 -278.5 56.5t-229.5 153.5t-154.5 228t-56.5 279z" />
<glyph unicode="H" horiz-adv-x="1333" d="M41 0v1434h291v-551h674v551h286v-1434h-286v598h-674v-598h-291z" />
<glyph unicode="I" horiz-adv-x="368" d="M41 0v1434h287v-1434h-287z" />
<glyph unicode="J" horiz-adv-x="1288" d="M41 352l213 187l61 -99q47 -76 134.5 -115.5t173.5 -39.5q66 0 129 20.5t114.5 58t82 90t30.5 113.5v867h268v-879q0 -121 -52 -223.5t-140 -176t-201 -114.5t-231 -41q-82 0 -165 24.5t-160 70.5t-142.5 111.5t-114.5 145.5z" />
<glyph unicode="K" horiz-adv-x="1374" d="M41 0v1434h287v-531l598 531h407l-792 -699q92 -86 193.5 -180t202.5 -189.5t200.5 -189.5t189.5 -176h-420l-579 555v-555h-287z" />
<glyph unicode="L" horiz-adv-x="1314" d="M41 0v1434h287v-1147h946v-287h-1233z" />
<glyph unicode="M" horiz-adv-x="1476" d="M41 0v1479l698 -750l697 750v-1479h-289v707l-404 -439l-413 443v-711h-289z" />
<glyph unicode="N" horiz-adv-x="1337" d="M41 0v1454l973 -819v799h282v-1444l-968 827v-817h-287z" />
<glyph unicode="O" horiz-adv-x="1497" d="M41 717q0 147 56.5 278t153.5 228.5t228 154t279 56.5q174 0 305 -61.5t218 -163t131 -229.5t44 -263t-44 -263t-131 -229.5t-218 -163t-305 -61.5q-147 0 -278.5 56.5t-228.5 153.5t-153.5 228.5t-56.5 278.5zM319 719q0 -90 34 -169t93.5 -138.5t138.5 -94t171 -34.5 q90 0 169 34.5t138 94t93 138.5t34 169t-34 169t-93 138t-138 94t-169 35q-92 0 -171 -35t-138.5 -94t-93.5 -138t-34 -169z" />
<glyph unicode="P" horiz-adv-x="1349" d="M41 0v1434h745q111 0 207.5 -28t166 -83t109.5 -138t40 -194q0 -115 -39 -198.5t-109.5 -137t-169 -79t-215.5 -25.5h-448v-551h-287zM328 838h448q115 0 180.5 30.5t65.5 122.5q0 45 -19.5 78t-52 54.5t-78 32.5t-96.5 11h-448v-329z" />
<glyph unicode="Q" horiz-adv-x="1503" d="M41 717q0 147 56.5 278t153.5 228.5t228 154t281 56.5q88 0 160 -17l57 -14h-10h8q115 -39 205 -110.5t151.5 -164t94 -199t32.5 -212.5q0 -174 -64.5 -327.5t-205.5 -256.5q27 -10 51.5 -23.5t48.5 -25.5q66 -33 131.5 -74t129 -76.5t124 -60.5t117.5 -25q45 0 82 4.5 t67.5 19.5t58 48t56.5 88l264 -117q-51 -94 -105 -155.5t-119.5 -98t-146.5 -51t-184 -14.5q-72 0 -149.5 28.5t-155.5 70.5t-154.5 88t-146.5 83q-111 55 -213 103.5t-180 54.5h-37q-68 -4 -118 -53t-97 -125l-229 149q27 43 49 79t45 59l-25 16q-2 0 -4 2q-2 0 -4 2 l-45 35l-39 41q-102 102 -160.5 230t-58.5 282zM317 719q0 -90 34 -169t93.5 -138.5t139.5 -94t170 -34.5t170 34.5t139 94t93 138.5t34 169t-34 169t-93 138t-139 94t-170 35t-170 -35t-139.5 -94t-93.5 -138t-34 -169z" />
<glyph unicode="R" horiz-adv-x="1380" d="M41 0v1434h747q111 0 206.5 -28t165 -83t109.5 -138t40 -194q0 -160 -76 -259t-205 -144l311 -588h-315l-297 551h-399v-551h-287zM328 838h448q117 0 181.5 30.5t64.5 122.5q0 45 -19.5 78t-52 54.5t-78 32.5t-96.5 11h-448v-329z" />
<glyph unicode="S" horiz-adv-x="1423" d="M41 279l250 182q92 -94 197.5 -147.5t240.5 -53.5q150 0 241 44t91 110q0 35 -31 61.5t-80 48t-110.5 39t-124.5 33.5q-98 25 -197.5 55.5t-179.5 77.5t-130 118t-50 179q0 80 32.5 155.5t103.5 134t181.5 94.5t263.5 36q180 0 334 -67.5t309 -215.5l-249 -180l-41 49 q-63 70 -149.5 107t-199.5 37q-139 0 -216.5 -36t-77.5 -91q0 -35 30.5 -63t80.5 -50.5t112.5 -39.5t124.5 -34q96 -25 195.5 -57.5t179 -82.5t131 -123t51.5 -177q0 -106 -48.5 -187t-133.5 -135.5t-199.5 -82t-249.5 -27.5q-188 0 -355 69.5t-327 219.5z" />
<glyph unicode="T" horiz-adv-x="1333" d="M41 1147v287h1251v-287h-473v-1147h-289v1147h-489z" />
<glyph unicode="U" horiz-adv-x="1331" d="M41 555v879h281v-865q0 -66 30.5 -118t79.5 -88.5t110.5 -57t123.5 -20.5q63 0 125.5 20.5t111.5 58t80 90t31 113.5v867h276v-879q0 -121 -52 -223.5t-140 -176t-200.5 -114.5t-231.5 -41q-117 0 -229.5 42t-199.5 115.5t-141.5 175t-54.5 222.5z" />
<glyph unicode="V" horiz-adv-x="1564" d="M41 1434h303l438 -883l432 883h310l-742 -1448z" />
<glyph unicode="W" horiz-adv-x="1890" d="M41 1434h297l289 -797l317 825l322 -829l288 801h295l-581 -1477l-322 776l-321 -776z" />
<glyph unicode="X" horiz-adv-x="1529" d="M41 0l555 723q-70 90 -144.5 188.5t-152.5 196.5l-250 322h367l350 -455q72 96 147.5 193.5t149.5 191.5l53 70h365l-537 -707l545 -723h-369l-354 469l-356 -469h-369z" />
<glyph unicode="Y" horiz-adv-x="1499" d="M41 1430h360l353 -463q59 80 124.5 165t131.5 166q23 31 52.5 67t51.5 65h344l-561 -766q0 -72 -1 -151t-1 -157v-356h-287v659z" />
<glyph unicode="Z" horiz-adv-x="1492" d="M41 0l840 1147h-772v287h1343l-842 -1147h748v-287h-1317z" />
<glyph unicode="[" horiz-adv-x="454" d="M41 -176v1698h373v-234h-127v-1227h127v-237h-373z" />
<glyph unicode="\" horiz-adv-x="866" d="M41 1374h256l528 -1374h-258z" />
<glyph unicode="]" horiz-adv-x="460" d="M41 61h135v1227h-135v234h379v-1698h-379v237z" />
<glyph unicode="^" horiz-adv-x="833" d="M41 1229l371 342l381 -342h-355l-24 22l-23 -22h-350z" />
<glyph unicode="_" horiz-adv-x="1105" d="M41 -123h1024v-244h-1024v244z" />
<glyph unicode="`" horiz-adv-x="624" d="M41 1534h305l238 -315h-301z" />
<glyph unicode="a" horiz-adv-x="1320" d="M41 0l618 1251l621 -1251h-295l-145 311h-363l-28 -63v2q-25 -53 -60 -126t-61 -124h-287zM612 563h95l-48 99z" />
<glyph unicode="b" horiz-adv-x="1171" d="M41 0v1196h657q70 0 136.5 -20.5t120 -63.5t86 -109.5t32.5 -158.5q0 -59 -19.5 -107.5t-54.5 -89.5q55 -43 93 -113.5t38 -162.5q0 -96 -35.5 -167t-95 -116t-139.5 -66.5t-168 -21.5h-651zM315 260h365q176 0 176 117q0 55 -50 83.5t-136 28.5h-355v-229zM315 766h367 q51 0 83 16.5t32 57.5q0 47 -30 71.5t-83 24.5h-369v-170z" />
<glyph unicode="c" horiz-adv-x="1167" d="M41 598q0 123 47 231.5t129 190.5t190.5 129t231.5 47q139 0 262 -63.5t225 -171.5l-202 -181q-72 74 -144.5 110t-144.5 36q-68 0 -127 -26t-103.5 -70t-70 -104t-25.5 -128t25.5 -127t70 -103t103.5 -70t127 -26q72 0 154.5 43t160.5 123l166 -209q-100 -111 -219 -170 t-258 -59q-123 0 -231.5 47t-190.5 128t-129 190.5t-47 232.5z" />
<glyph unicode="d" horiz-adv-x="1142" d="M41 0v1196h457q125 0 234.5 -47t191.5 -128t130 -189.5t48 -233.5q0 -121 -45 -226.5t-123 -185.5t-183.5 -129t-224.5 -57h-485zM317 270h193q59 10 115.5 40t99.5 73t69.5 98.5t26.5 116.5q0 68 -25.5 129t-68.5 106.5t-102.5 72t-126.5 26.5h-181v-662z" />
<glyph unicode="e" horiz-adv-x="1071" d="M41 0v1196h989v-272h-713v-168h674v-273h-674v-207h713v-276h-989z" />
<glyph unicode="f" horiz-adv-x="1071" d="M41 0v1196h989v-272h-713v-168h674v-273h-674v-483h-276z" />
<glyph unicode="g" horiz-adv-x="1167" d="M41 598q0 123 47 232.5t129 190.5t190.5 129t231.5 48q139 0 262 -63.5t225 -173.5l-202 -179q-72 74 -144.5 110t-144.5 36q-68 0 -127 -25.5t-103.5 -71t-70 -105.5t-25.5 -128t25.5 -127t70 -103t103.5 -70t127 -26q51 0 101 15.5t91 42.5v151h-344v275h623v-549 l-27 -23h2q-76 -78 -190.5 -131t-251.5 -53q-123 0 -231.5 47t-190.5 128t-129 190.5t-47 232.5z" />
<glyph unicode="h" horiz-adv-x="1130" d="M41 0v1198h276v-442h504v442h269v-1198h-269v479h-504v-479h-276z" />
<glyph unicode="i" horiz-adv-x="358" d="M41 0v1196h276v-1196h-276z" />
<glyph unicode="j" horiz-adv-x="1107" d="M41 317l223 177q53 -104 132 -162t145 -58q47 0 93 15.5t82 42t58.5 64.5t22.5 81v719h270v-727q0 -102 -44 -188t-118 -148.5t-169 -97.5t-195 -35q-70 0 -140.5 22.5t-136 63.5t-123 100.5t-100.5 130.5z" />
<glyph unicode="k" horiz-adv-x="1189" d="M41 0v1196h274v-399l177 161l268 238h389l-653 -582l264 -247l387 -367h-397l-435 418v-418h-274z" />
<glyph unicode="l" horiz-adv-x="1071" d="M41 0v1196h276v-920h713v-276h-989z" />
<glyph unicode="m" horiz-adv-x="1241" d="M41 0v1241l580 -600l579 600v-1241h-276v551q-74 -86 -152 -179t-147 -173l-308 354v-553h-276z" />
<glyph unicode="n" horiz-adv-x="1134" d="M41 0v1233l782 -668v631h271v-1219l-777 654v-631h-276z" />
<glyph unicode="o" horiz-adv-x="1263" d="M41 598q0 123 47 232.5t129 190.5t190.5 128t231.5 47q145 0 255 -51t182.5 -135t109.5 -191.5t37 -220.5t-37 -220.5t-109.5 -191.5t-182.5 -135t-255 -51q-123 0 -231.5 47t-190.5 128t-129 190.5t-47 232.5zM309 598q0 -68 25.5 -127t70 -103t104.5 -70t128 -26 t127 26t104 70t71 103t26 127t-26 128t-71 104t-104 70t-127 26t-128 -26t-104.5 -70t-70 -104t-25.5 -128z" />
<glyph unicode="p" horiz-adv-x="1105" d="M41 0v1196h584q92 0 173 -22.5t140 -68.5t93 -116t34 -164q0 -96 -32 -168.5t-89 -121t-139 -73t-180 -24.5h-312v-438h-272zM313 709h305q78 0 122 25.5t44 86.5q0 59 -46 86t-117 27h-308v-225z" />
<glyph unicode="q" horiz-adv-x="1265" d="M41 598q0 123 48 232.5t129 190.5t190.5 128t232.5 47q145 0 255 -51t182.5 -135t109.5 -191.5t37 -220.5q0 -82 -19.5 -163t-57.5 -152.5t-96.5 -130t-138.5 -95.5l164 -229h-334l-120 172q-121 4 -226.5 53t-184.5 130t-125 187.5t-46 227.5zM309 598q0 -68 25.5 -127 t70 -103t104.5 -70t130 -26q68 0 127 26t103 70t70 103t26 127t-26 128t-70 104t-103 70t-127 26q-70 0 -130 -26t-104.5 -70t-70 -104t-25.5 -128z" />
<glyph unicode="r" horiz-adv-x="1171" d="M41 0v1196h584q92 0 173 -22.5t140 -68.5t93 -116t34 -164q0 -127 -52 -208.5t-147 -129.5q31 -55 65 -118.5t68.5 -128t68.5 -126t62 -114.5h-303l-243 438h-269v-438h-274zM315 709h303q78 0 123 25.5t45 86.5q0 59 -47 86t-118 27h-306v-225z" />
<glyph unicode="s" horiz-adv-x="1196" d="M41 229l235 181q76 -78 151 -125t179 -47t172 29.5t68 70.5q0 25 -22.5 43t-58.5 33.5t-83 29t-96 25.5q-82 20 -163 46t-146.5 67t-106.5 102t-41 156q0 68 27.5 132t86 113.5t149.5 80t220 30.5q147 0 275.5 -57.5t267.5 -188.5l-225 -178l-41 45q-111 117 -275 117 q-98 0 -153 -21.5t-55 -56.5q0 -18 23.5 -37.5t61 -36t84 -31t89.5 -26.5q80 -23 161.5 -50.5t148 -70.5t107.5 -105.5t41 -154.5q0 -90 -40 -157.5t-109.5 -114.5t-165.5 -71t-207 -24q-152 0 -285 58.5t-274 193.5z" />
<glyph unicode="t" horiz-adv-x="1134" d="M41 924v272h1053v-272h-385v-924h-275v924h-393z" />
<glyph unicode="u" horiz-adv-x="1132" d="M41 467v725h274v-715q0 -45 22.5 -83t58.5 -64.5t81 -42t88 -15.5q49 0 95.5 15.5t83 42t59 64.5t22.5 81v717h267v-725q0 -102 -44 -188t-118 -147.5t-169.5 -96.5t-195.5 -35q-98 0 -192 35t-168 96.5t-119 147.5t-45 188z" />
<glyph unicode="v" horiz-adv-x="1349" d="M41 1198h311l322 -657l325 657h310l-635 -1231z" />
<glyph unicode="w" horiz-adv-x="1619" d="M41 1198h305l199 -575l264 600l268 -600l195 575h307l-498 -1249l-272 624l-264 -626z" />
<glyph unicode="x" horiz-adv-x="1335" d="M41 0l455 600l-451 598h354l271 -356q29 41 59.5 80t58.5 79q35 47 75 99.5t73 97.5h352l-448 -594l84 -110q41 -55 90 -122t99 -133.5t97 -129t84 -109.5h-352l-274 362l-277 -362h-350z" />
<glyph unicode="y" horiz-adv-x="1304" d="M41 1200h340l272 -356l271 356h340l-473 -651v-549h-277v547q-47 66 -101.5 138.5t-109.5 150.5z" />
<glyph unicode="z" horiz-adv-x="1286" d="M41 0l653 922h-583v276h1134l-678 -922h580v-276h-1106z" />
<glyph unicode="{" horiz-adv-x="514" d="M41 551v270q43 0 51 12.5t10 40.5v185q0 47 1 93t1 93q10 139 81 203.5t186 64.5h102v-243l-102 -2q-18 0 -21.5 -32t-1.5 -60v-334q0 -4 -1 -6t-1 -5v-12q-4 -37 -7 -71.5t-26 -65.5q23 -31 26 -63.5t7 -67.5v-10q0 -4 1 -6.5t1 -6.5v-368q0 -4 1 -8.5t1 -8.5 q0 -29 3 -53t18 -24l102 -3v-241h-102q-115 0 -185.5 64.5t-81.5 201.5l-2 412q-2 25 -11 38t-50 13z" />
<glyph unicode="|" horiz-adv-x="325" d="M41 -338v1833h244v-1833h-244z" />
<glyph unicode="}" horiz-adv-x="514" d="M41 63l100 3q16 0 19.5 24.5t3.5 52.5v17q0 4 1 9t1 9v373q2 35 7 68.5t28 64.5q-23 31 -27 63.5t-8 71.5v357q0 29 -3 60.5t-22 31.5l-100 2v243h100q115 0 187.5 -64.5t79.5 -203.5l2 -375q2 -27 10 -38t53 -11v-270q-45 0 -53 -13.5t-10 -37.5q0 -53 -1 -104.5 t-1 -102.5v-205q-6 -137 -79 -201.5t-188 -64.5h-100v241z" />
<glyph unicode="&#xa1;" horiz-adv-x="378" d="M41 1004q0 66 41 106.5t106 40.5q68 0 109 -40.5t41 -106.5t-41 -107t-109 -41q-66 0 -106.5 41t-40.5 107zM49 -266v1085h287v-1085h-287z" />
<glyph unicode="&#xa2;" horiz-adv-x="1171" d="M41 596q0 100 31.5 192.5t89 167t136.5 129t171 80.5v205h264v-190q111 -23 211 -84.5t186 -147.5l-223 -192q-43 45 -87 75.5t-87 49.5v-566q100 41 207 148l178 -227q-172 -190 -385 -228v-184h-264v199q-92 27 -171 82t-136.5 130.5t-89 167t-31.5 193.5zM328 596 q0 -84 37.5 -150.5t103.5 -105.5v514q-66 -41 -103.5 -108.5t-37.5 -149.5z" />
<glyph unicode="&#xa3;" horiz-adv-x="997" d="M41 438v254h76q-12 29 -20.5 64t-8.5 73q0 82 27.5 151t80 118t129 75.5t175.5 26.5q135 0 244.5 -61.5t211.5 -192.5l-202 -190q-117 180 -258 180q-72 0 -104 -25.5t-32 -66.5t23 -77t51 -73l2 -2h389v-254h-270v-10q0 -88 -37 -152h422v-276h-895v221q51 20 96 44 t79 49.5t53.5 52t19.5 55.5q0 4 -4 16h-248z" />
<glyph unicode="&#xa5;" horiz-adv-x="1124" d="M41 1200h313l211 -360q53 90 107.5 182t101.5 178h309l-278 -471h149v-256h-262v-27h262v-253h-262v-193h-262v193h-260v253h260v27h-260v256h145l-118 205q-16 29 -38 65.5t-43.5 73.5t-41 71t-33.5 56z" />
<glyph unicode="&#xa6;" horiz-adv-x="319" d="M41 -2v582h238v-582h-238zM41 797v581h238v-581h-238z" />
<glyph unicode="&#xa7;" horiz-adv-x="864" d="M41 90l115 232q55 -25 95 -39.5t70.5 -23.5t54 -12t48.5 -3q47 0 72.5 16t25.5 57q0 16 -14 29.5t-36.5 25t-51.5 20.5t-58 20q-53 16 -106 35.5t-95 50t-68.5 79t-26.5 123.5q0 70 18 119t53 88q-41 63 -41 150q0 86 32 146.5t85 99t120.5 56t139.5 17.5t129 -19.5 t123 -43.5l86 -41l-96 -260q-92 57 -145.5 85.5t-96.5 28.5t-72.5 -13t-29.5 -50q14 -6 30 -12q14 -6 32 -12.5t38 -14.5l18 -8l13 -4q53 -16 109.5 -42t103.5 -65t77.5 -94t30.5 -133q0 -53 -20.5 -101.5t-52.5 -87.5q27 -37 36 -78.5t9 -91.5q0 -80 -30 -142t-81 -104 t-118.5 -63.5t-141.5 -21.5q-84 0 -175 23.5t-208 78.5zM342 705q0 -8 37 -19.5t80 -26.5l20 -6l31 -12q41 21 41 35q0 23 -22.5 37t-51 23t-56.5 14.5t-40 9.5q-16 -6 -27.5 -19.5t-11.5 -35.5z" />
<glyph unicode="&#xa8;" horiz-adv-x="698" d="M41 1364q0 66 40 106.5t105 40.5q66 0 107 -40.5t41 -106.5t-41 -106.5t-107 -40.5t-105.5 40.5t-39.5 106.5zM365 1364q0 66 39.5 106.5t105.5 40.5t106.5 -40.5t40.5 -106.5t-41 -106.5t-106 -40.5q-66 0 -105.5 40.5t-39.5 106.5z" />
<glyph unicode="&#xa9;" horiz-adv-x="1501" d="M41 725q0 143 48 272t140.5 225.5t223.5 154t297 57.5t298 -57.5t224 -154t140 -225.5t48 -272q0 -145 -48 -274t-140 -226.5t-224.5 -155t-297.5 -57.5q-166 0 -297 57.5t-223.5 155t-140.5 226.5t-48 274zM190 723q0 -111 42 -215.5t117 -184t177.5 -128t223.5 -48.5 q123 0 225 47.5t178 127t118 184t42 217.5q0 111 -42 214t-118 183t-178.5 128t-224.5 48q-121 0 -223.5 -48t-177.5 -128t-117 -183t-42 -214zM295 725q0 98 30.5 184t87 148.5t139.5 98.5t187 36q115 0 199 -42t149 -116l-100 -100q-49 55 -110.5 89t-133.5 34 q-76 0 -131 -26.5t-91 -71t-53 -103.5t-17 -127q0 -63 18 -123.5t55 -106.5t92.5 -75t131.5 -29q70 0 136 29t122 90l92 -98q-68 -72 -153 -115t-204 -43q-113 0 -196.5 39t-139 104.5t-83 149.5t-27.5 174z" />
<glyph unicode="&#xaa;" horiz-adv-x="915" d="M38 414l415 842l418 -842h-198l-98 209h-244l-19 -42v1q-17 -35 -40.5 -84.5t-40.5 -83.5h-193zM422 793h64l-33 66z" />
<glyph unicode="&#xab;" horiz-adv-x="1155" d="M41 483l305 369h328l-287 -365l289 -370h-330zM479 483l301 369h332l-289 -365l291 -370h-332z" />
<glyph unicode="&#xac;" horiz-adv-x="980" d="M41 500v272h899v-575h-268v303h-631z" />
<glyph unicode="&#xad;" horiz-adv-x="579" d="M41 391v248h498v-248h-498z" />
<glyph unicode="&#xae;" horiz-adv-x="1460" d="M41 705q0 139 47 265t136 222t217 153.5t288 57.5q162 0 290 -57.5t217 -153.5t136 -222t47 -265q0 -141 -47 -268.5t-136 -224.5t-217 -154.5t-290 -57.5q-160 0 -288 57.5t-217 154.5t-136 224t-47 269zM260 702q0 -111 45 -209t123 -167v749q-78 -70 -123 -167 t-45 -206zM504 270q100 -59 225 -59q127 0 229 59h-77l-164 299h-60v-299h-153zM520 1141h225q66 0 125.5 -16.5t103.5 -50.5t70.5 -87t26.5 -125q0 -92 -39 -149.5t-96 -85.5l25 -39q12 -23 27.5 -46.5t27.5 -45.5v2l67 -127q59 68 93 152.5t34 178.5t-35.5 182.5t-100 156 t-152.5 108.5t-193 41q-59 0 -110.5 -13.5t-98.5 -35.5zM657 801h76q53 0 84 19t31 42q-4 35 -32 47.5t-73 12.5h-86v-121z" />
<glyph unicode="&#xaf;" horiz-adv-x="681" d="M41 1092v276h600v-276h-600z" />
<glyph unicode="&#xb0;" horiz-adv-x="595" d="M41 1116q0 106 66.5 179t189.5 73q127 0 192.5 -74t65.5 -178t-65.5 -177t-192.5 -73q-61 0 -108.5 19.5t-80 53.5t-50 80t-17.5 97zM287 1116q0 -20 10 -20q16 0 16 20q0 23 -16 23q-10 0 -10 -23z" />
<glyph unicode="&#xb1;" horiz-adv-x="1001" d="M41 61v265h920v-265h-920zM41 696v271h315v229h281v-229h324v-271h-324v-233h-281v233h-315z" />
<glyph unicode="&#xb2;" horiz-adv-x="626" d="M33 995q41 78 109.5 125t148.5 47q60 0 109.5 -19t84 -54.5t53 -83.5t18.5 -105q0 -38 -14 -75.5t-35 -72.5t-47 -66t-49 -56l-100 -107l-19 -25h286v-153h-525v137l230 241q18 20 37.5 43t36.5 46.5t28 47t11 44.5t-7 40t-20.5 35t-33.5 25t-44 9q-20 0 -42 -6 t-41.5 -20t-36.5 -35t-26 -49z" />
<glyph unicode="&#xb3;" horiz-adv-x="624" d="M33 470l122 103q35 -46 70.5 -66t70.5 -20q59 0 92 25.5t33 70.5q0 50 -42 78.5t-119 28.5h-64v151h65q56 0 92.5 25.5t36.5 66.5q0 32 -28.5 52.5t-68.5 20.5q-41 0 -72 -19.5t-64 -58.5l-116 97q60 64 118 94.5t133 30.5q53 0 99 -14t81 -40.5t54.5 -67t19.5 -94.5 q0 -45 -17.5 -86.5t-47.5 -70.5q44 -30 69.5 -79t25.5 -115q0 -59 -22.5 -104t-61 -75t-89 -45.5t-107.5 -15.5q-37 0 -70 7t-64.5 22.5t-63.5 40t-65 57.5z" />
<glyph unicode="&#xb4;" horiz-adv-x="624" d="M41 1229l240 315h303l-240 -315h-303z" />
<glyph unicode="&#xb5;" horiz-adv-x="829" d="M41 -295v1256h254v-555q0 -72 18.5 -119t77.5 -47q18 0 34.5 11t30 28.5t25 39t19.5 39.5v603h260v-697q0 -39 7 -101.5t21 -162.5h-253v33q-29 -16 -67 -28.5t-79 -12.5q-49 0 -94 14v-301h-254z" />
<glyph unicode="&#xb6;" horiz-adv-x="870" d="M41 1022q0 57 14.5 119.5t56.5 114t118.5 84t201.5 32.5h397v-1380h-501v698q-86 12 -141.5 47t-88 81t-45 99.5t-12.5 104.5z" />
<glyph unicode="&#xb7;" horiz-adv-x="391" d="M41 147q0 70 43 113t111 43q66 0 110.5 -43t44.5 -113q0 -68 -45 -110.5t-110 -42.5q-68 0 -111 42.5t-43 110.5z" />
<glyph unicode="&#xb8;" horiz-adv-x="464" d="M41 -211l111 371h272l-115 -371h-268z" />
<glyph unicode="&#xb9;" horiz-adv-x="233" d="M33 350v755l152 56v-811h-152z" />
<glyph unicode="&#xba;" horiz-adv-x="1089" d="M41 860q0 105 40 198.5t110 162.5t162.5 109t197.5 40q123 0 217 -43.5t156 -115t93.5 -163.5t31.5 -188t-31.5 -188t-93.5 -163.5t-156 -115t-217 -43.5q-105 0 -197.5 40t-162.5 109t-110 162.5t-40 198.5zM269 860q0 -58 22 -108.5t60 -88t89 -59.5t109 -22t108.5 22 t88.5 59.5t60.5 88t22.5 108.5t-22.5 109t-60.5 88.5t-88.5 60t-108.5 22.5t-109 -22.5t-89 -60t-60 -88.5t-22 -109z" />
<glyph unicode="&#xbb;" horiz-adv-x="1062" d="M41 852h336l270 -371l-270 -368h-305l270 370zM449 113l268 368l-266 371h305l266 -371l-266 -368h-307z" />
<glyph unicode="&#xbc;" horiz-adv-x="1208" d="M33 350v755l152 56v-811h-152zM61 0l522 1413h279l-523 -1413h-278zM362 193v112l376 526h130v-478h66v-160h-66v-192h-158v192h-348zM590 353h120v170q-30 -43 -58 -81.5t-62 -88.5z" />
<glyph unicode="&#xbd;" horiz-adv-x="2267" d="M33 350v755l152 56v-811h-152zM61 0l522 1413h279l-523 -1413h-278zM398 647q42 78 110.5 125t148.5 47q61 0 110 -19t83.5 -54.5t53.5 -83.5t19 -105q0 -39 -14 -76.5t-35 -72.5t-47 -66t-50 -56l-99 -108l-20 -25h287v-153h-526v137l230 242q18 20 37.5 43t36.5 46.5 t28 47t11 44.5t-7 40.5t-20.5 35.5t-33 25t-44.5 9q-20 0 -42 -6t-42 -20.5t-37 -35.5t-26 -49z" />
<glyph unicode="&#xbe;" horiz-adv-x="1556" d="M34 490l127 108q36 -49 73 -69.5t73 -20.5q61 0 95.5 26.5t34.5 72.5q0 52 -44 82t-123 30h-67v157h68q57 0 95 26.5t38 69.5q0 33 -29.5 54t-70.5 21q-42 0 -74.5 -20t-67.5 -61l-120 102q62 66 122.5 97.5t138.5 31.5q55 0 102.5 -14t83.5 -41.5t56.5 -70t20.5 -98.5 q0 -47 -18 -90t-49 -74q46 -31 72 -82t26 -120q0 -60 -23 -107t-63 -78.5t-92.5 -47.5t-111.5 -16q-38 0 -72.5 7t-67 23.5t-65.5 41.5t-68 60zM410 0l522 1413h279l-523 -1413h-278zM567 193v112l376 526h130v-478h66v-160h-66v-192h-158v192h-348zM795 353h120v170 q-30 -43 -58 -81.5t-62 -88.5z" />
<glyph unicode="&#xbf;" horiz-adv-x="905" d="M41 -49q0 76 25.5 137.5t67.5 110.5t95.5 91t108.5 79l8 237h236l8 -366q-76 -47 -128 -84t-86 -70t-49.5 -64.5t-15.5 -66.5q0 -66 40 -95.5t104 -29.5q59 0 113.5 36t113.5 103l182 -180q-98 -102 -195.5 -154.5t-224.5 -52.5q-78 0 -149.5 21.5t-128.5 66.5t-91 115 t-34 166zM313 786q0 68 43 108t109 40t105.5 -40t39.5 -108q0 -66 -40 -106.5t-105 -40.5q-66 0 -109 41t-43 106z" />
<glyph unicode="&#xc0;" d="M41 0l741 1468l740 -1468h-310l-186 391h-494q-29 -59 -55 -114.5t-53 -114.5l-82 -162h-301zM510 1841h305l238 -315h-301zM670 678h223l-111 227z" />
<glyph unicode="&#xc1;" d="M41 0l741 1468l740 -1468h-310l-186 391h-494q-29 -59 -55 -114.5t-53 -114.5l-82 -162h-301zM510 1536l240 315h303l-240 -315h-303zM670 678h223l-111 227z" />
<glyph unicode="&#xc2;" d="M41 0l741 1468l740 -1468h-310l-186 391h-494q-29 -59 -55 -114.5t-53 -114.5l-82 -162h-301zM387 1526l387 360l399 -360h-352l-43 37l-41 -37h-350zM670 678h223l-111 227z" />
<glyph unicode="&#xc3;" d="M41 0l741 1468l740 -1468h-310l-186 391h-494q-29 -59 -55 -114.5t-53 -114.5l-82 -162h-301zM463 1509v246q55 41 97 65.5t82 31.5t84 -3t106 -39q39 -25 70.5 -30t62 7.5t61.5 38t72 62.5v-227q0 -29 -27.5 -63t-77 -51t-116 -8t-140.5 64q-25 18 -58.5 22.5t-70 -5.5 t-74.5 -38t-71 -73zM670 678h223l-111 227z" />
<glyph unicode="&#xc4;" d="M41 0l741 1468l740 -1468h-310l-186 391h-494q-29 -59 -55 -114.5t-53 -114.5l-82 -162h-301zM473 1671q0 66 40 106.5t105 40.5q66 0 107 -40.5t41 -106.5t-41 -106.5t-107 -40.5t-105.5 40.5t-39.5 106.5zM670 678h223l-111 227zM797 1671q0 66 39.5 106.5t105.5 40.5 t106.5 -40.5t40.5 -106.5t-41 -106.5t-106 -40.5q-66 0 -105.5 40.5t-39.5 106.5z" />
<glyph unicode="&#xc5;" d="M41 0l633 1255q-72 29 -111 90.5t-39 141.5q0 104 66.5 177t189.5 73q127 0 192.5 -73t65.5 -177q0 -80 -37.5 -141.5t-111.5 -90.5l633 -1255h-310l-186 391h-494q-29 -59 -55 -114.5t-53 -114.5l-82 -162h-301zM670 678h223l-111 227zM770 1487q0 -20 10 -21l2 2v-2 q15 1 15 21q0 23 -17 22q-10 0 -10 -22z" />
<glyph unicode="&#xc6;" horiz-adv-x="2324" d="M41 0l1362 1442l881 -4v-287h-756v-301h667v-285h-667v-278h756v-287h-1043v557h-287l-424 -446l-104 -111h-385zM1219 842h24l4 32z" />
<glyph unicode="&#xc7;" horiz-adv-x="1366" d="M41 717q0 147 56.5 278t153.5 228.5t228 154t279 56.5q168 0 310 -70t257 -193l-211 -186q-86 86 -177 128t-183 42q-90 0 -170 -35t-139.5 -94t-93.5 -138t-34 -169t34 -169t93.5 -138.5t139.5 -94t170 -34.5t187 51t185 145l187 -219q-98 -111 -215 -175.5t-252 -80.5 l-66 -215h-268l70 231q-117 31 -216.5 95.5t-171 157t-112.5 205t-41 239.5z" />
<glyph unicode="&#xc8;" horiz-adv-x="1314" d="M41 0v1434h1233v-287h-946v-264h858v-285h-858v-311h946v-287h-1233zM385 1841h305l238 -315h-301z" />
<glyph unicode="&#xc9;" horiz-adv-x="1314" d="M41 0v1434h1233v-287h-946v-264h858v-285h-858v-311h946v-287h-1233zM385 1536l240 315h303l-240 -315h-303z" />
<glyph unicode="&#xca;" horiz-adv-x="1314" d="M41 0v1434h1233v-287h-946v-264h858v-285h-858v-311h946v-287h-1233zM264 1567l387 360l399 -360h-352l-43 37l-41 -37h-350z" />
<glyph unicode="&#xcb;" horiz-adv-x="1314" d="M41 0v1434h1233v-287h-946v-264h858v-285h-858v-311h946v-287h-1233zM348 1774q0 66 40 106.5t105 40.5q66 0 107 -40.5t41 -106.5t-41 -106.5t-107 -40.5t-105.5 40.5t-39.5 106.5zM672 1774q0 66 39.5 106.5t105.5 40.5t106.5 -40.5t40.5 -106.5t-41 -106.5t-106 -40.5 q-66 0 -105.5 40.5t-39.5 106.5z" />
<glyph unicode="&#xcc;" horiz-adv-x="368" d="M-207 1841h305l238 -315h-301zM41 0v1434h287v-1434h-287z" />
<glyph unicode="&#xcd;" horiz-adv-x="368" d="M18 1536l240 315h303l-240 -315h-303zM41 0v1434h287v-1434h-287z" />
<glyph unicode="&#xce;" horiz-adv-x="368" d="M-207 1567l387 360l399 -360h-352l-43 37l-41 -37h-350zM41 0v1434h287v-1434h-287z" />
<glyph unicode="&#xcf;" horiz-adv-x="368" d="M-121 1671q0 66 40 106.5t105 40.5q66 0 107 -40.5t41 -106.5t-41 -106.5t-107 -40.5t-105.5 40.5t-39.5 106.5zM41 0v1434h287v-1434h-287zM203 1671q0 66 39.5 106.5t105.5 40.5t106.5 -40.5t40.5 -106.5t-41 -106.5t-106 -40.5q-66 0 -105.5 40.5t-39.5 106.5z" />
<glyph unicode="&#xd1;" horiz-adv-x="1337" d="M41 0v1454l973 -819v799h282v-1444l-968 827v-817h-287zM350 1509v246q55 41 97 65.5t82 31.5t84 -3t106 -39q39 -25 70.5 -30t62 7.5t61.5 38t72 62.5v-227q0 -29 -27.5 -63t-77 -51t-116 -8t-140.5 64q-25 18 -58.5 22.5t-70 -5.5t-74.5 -38t-71 -73z" />
<glyph unicode="&#xd2;" horiz-adv-x="1497" d="M41 717q0 147 56.5 278t153.5 228.5t228 154t279 56.5q174 0 305 -61.5t218 -163t131 -229.5t44 -263t-44 -263t-131 -229.5t-218 -163t-305 -61.5q-147 0 -278.5 56.5t-228.5 153.5t-153.5 228.5t-56.5 278.5zM319 719q0 -90 34 -169t93.5 -138.5t138.5 -94t171 -34.5 q90 0 169 34.5t138 94t93 138.5t34 169t-34 169t-93 138t-138 94t-169 35q-92 0 -171 -35t-138.5 -94t-93.5 -138t-34 -169zM477 1841h305l238 -315h-301z" />
<glyph unicode="&#xd3;" horiz-adv-x="1497" d="M41 717q0 147 56.5 278t153.5 228.5t228 154t279 56.5q174 0 305 -61.5t218 -163t131 -229.5t44 -263t-44 -263t-131 -229.5t-218 -163t-305 -61.5q-147 0 -278.5 56.5t-228.5 153.5t-153.5 228.5t-56.5 278.5zM319 719q0 -90 34 -169t93.5 -138.5t138.5 -94t171 -34.5 q90 0 169 34.5t138 94t93 138.5t34 169t-34 169t-93 138t-138 94t-169 35q-92 0 -171 -35t-138.5 -94t-93.5 -138t-34 -169zM477 1536l240 315h303l-240 -315h-303z" />
<glyph unicode="&#xd4;" horiz-adv-x="1497" d="M41 717q0 147 56.5 278t153.5 228.5t228 154t279 56.5q174 0 305 -61.5t218 -163t131 -229.5t44 -263t-44 -263t-131 -229.5t-218 -163t-305 -61.5q-147 0 -278.5 56.5t-228.5 153.5t-153.5 228.5t-56.5 278.5zM319 719q0 -90 34 -169t93.5 -138.5t138.5 -94t171 -34.5 q90 0 169 34.5t138 94t93 138.5t34 169t-34 169t-93 138t-138 94t-169 35q-92 0 -171 -35t-138.5 -94t-93.5 -138t-34 -169zM354 1567l387 360l399 -360h-352l-43 37l-41 -37h-350z" />
<glyph unicode="&#xd5;" horiz-adv-x="1497" d="M41 717q0 147 56.5 278t153.5 228.5t228 154t279 56.5q174 0 305 -61.5t218 -163t131 -229.5t44 -263t-44 -263t-131 -229.5t-218 -163t-305 -61.5q-147 0 -278.5 56.5t-228.5 153.5t-153.5 228.5t-56.5 278.5zM319 719q0 -90 34 -169t93.5 -138.5t138.5 -94t171 -34.5 q90 0 169 34.5t138 94t93 138.5t34 169t-34 169t-93 138t-138 94t-169 35q-92 0 -171 -35t-138.5 -94t-93.5 -138t-34 -169zM430 1489v246q55 41 97 65.5t82 31.5t84 -3t106 -39q39 -25 70.5 -30t62 7.5t61.5 38t72 62.5v-227q0 -29 -27.5 -63t-77 -51t-116 -8t-140.5 64 q-25 18 -58.5 22.5t-70 -5.5t-74.5 -38t-71 -73z" />
<glyph unicode="&#xd6;" horiz-adv-x="1497" d="M41 717q0 147 56.5 278t153.5 228.5t228 154t279 56.5q174 0 305 -61.5t218 -163t131 -229.5t44 -263t-44 -263t-131 -229.5t-218 -163t-305 -61.5q-147 0 -278.5 56.5t-228.5 153.5t-153.5 228.5t-56.5 278.5zM319 719q0 -90 34 -169t93.5 -138.5t138.5 -94t171 -34.5 q90 0 169 34.5t138 94t93 138.5t34 169t-34 169t-93 138t-138 94t-169 35q-92 0 -171 -35t-138.5 -94t-93.5 -138t-34 -169zM440 1671q0 66 40 106.5t105 40.5q66 0 107 -40.5t41 -106.5t-41 -106.5t-107 -40.5t-105.5 40.5t-39.5 106.5zM764 1671q0 66 39.5 106.5 t105.5 40.5t106.5 -40.5t40.5 -106.5t-41 -106.5t-106 -40.5q-66 0 -105.5 40.5t-39.5 106.5z" />
<glyph unicode="&#xd7;" horiz-adv-x="921" d="M41 387l233 234l-231 235l188 180l232 -233l231 231l187 -184l-236 -232l234 -237l-187 -184l-233 235l-234 -231z" />
<glyph unicode="&#xd8;" horiz-adv-x="1497" d="M41 717q0 147 56.5 278t153.5 228.5t228 154t279 56.5q113 0 205 -25l59 115h321l-133 -246q57 -53 103.5 -117.5t78 -138.5t48 -151.5t16.5 -153.5q0 -135 -44 -263t-131 -229.5t-218 -163t-305 -61.5q-57 0 -112.5 8t-106.5 25q-16 -31 -34 -65t-32 -60h-317l139 262 q-113 102 -183.5 242.5t-70.5 304.5zM317 719q0 -88 30 -164t83 -133q70 131 140.5 263t140.5 259v-2l112 207q-37 6 -69 6q-90 0 -170 -35t-139.5 -94t-93.5 -138t-34 -169zM680 287q16 -4 36 -4h38q90 0 170 34.5t139 94t93 138.5t34 169q0 180 -121 301 q-51 -96 -98 -186.5t-95.5 -179.5t-96.5 -179t-99 -188z" />
<glyph unicode="&#xd9;" horiz-adv-x="1331" d="M41 555v879h281v-865q0 -66 30.5 -118t79.5 -88.5t110.5 -57t123.5 -20.5q63 0 125.5 20.5t111.5 58t80 90t31 113.5v867h276v-879q0 -121 -52 -223.5t-140 -176t-200.5 -114.5t-231.5 -41q-117 0 -229.5 42t-199.5 115.5t-141.5 175t-54.5 222.5zM393 1841h305l238 -315 h-301z" />
<glyph unicode="&#xda;" horiz-adv-x="1331" d="M41 555v879h281v-865q0 -66 30.5 -118t79.5 -88.5t110.5 -57t123.5 -20.5q63 0 125.5 20.5t111.5 58t80 90t31 113.5v867h276v-879q0 -121 -52 -223.5t-140 -176t-200.5 -114.5t-231.5 -41q-117 0 -229.5 42t-199.5 115.5t-141.5 175t-54.5 222.5zM393 1536l240 315h303 l-240 -315h-303z" />
<glyph unicode="&#xdb;" horiz-adv-x="1331" d="M41 555v879h281v-865q0 -66 30.5 -118t79.5 -88.5t110.5 -57t123.5 -20.5q63 0 125.5 20.5t111.5 58t80 90t31 113.5v867h276v-879q0 -121 -52 -223.5t-140 -176t-200.5 -114.5t-231.5 -41q-117 0 -229.5 42t-199.5 115.5t-141.5 175t-54.5 222.5zM272 1567l387 360 l399 -360h-352l-43 37l-41 -37h-350z" />
<glyph unicode="&#xdc;" horiz-adv-x="1331" d="M41 555v879h281v-865q0 -66 30.5 -118t79.5 -88.5t110.5 -57t123.5 -20.5q63 0 125.5 20.5t111.5 58t80 90t31 113.5v867h276v-879q0 -121 -52 -223.5t-140 -176t-200.5 -114.5t-231.5 -41q-117 0 -229.5 42t-199.5 115.5t-141.5 175t-54.5 222.5zM356 1671 q0 66 40 106.5t105 40.5q66 0 107 -40.5t41 -106.5t-41 -106.5t-107 -40.5t-105.5 40.5t-39.5 106.5zM680 1671q0 66 39.5 106.5t105.5 40.5t106.5 -40.5t40.5 -106.5t-41 -106.5t-106 -40.5q-66 0 -105.5 40.5t-39.5 106.5z" />
<glyph unicode="&#xdd;" horiz-adv-x="1499" d="M41 1430h360l353 -463q59 80 124.5 165t131.5 166q23 31 52.5 67t51.5 65h344l-561 -766q0 -72 -1 -151t-1 -157v-356h-287v659zM477 2663l240 315h303l-240 -315h-303z" />
<glyph unicode="&#xde;" horiz-adv-x="933" d="M41 0v1434h305v-224h37q111 0 204 -25.5t161.5 -79.5t106.5 -139t38 -204q0 -127 -42 -215t-114.5 -145.5t-169 -83t-205.5 -25.5h-16v-293h-305zM346 592h4q43 0 87 6t80 23.5t59.5 51.5t23.5 89q0 47 -19.5 76.5t-50 47t-67.5 23.5t-70 6h-47v-323z" />
<glyph unicode="&#xdf;" horiz-adv-x="911" d="M41 0v920q0 104 15.5 186t54.5 138t107.5 85t172.5 29q80 0 145.5 -25.5t112.5 -72t73 -111t26 -141.5q0 -104 -21.5 -160.5t-62.5 -91.5q37 -18 74.5 -47t66.5 -72t47 -102.5t18 -139.5q0 -137 -55 -225t-143 -140.5t-197.5 -72.5t-220.5 -20v63h-213zM254 578v8 q-8 -8 0 -8zM319 217q51 4 99.5 17.5t87.5 35t62.5 54t23.5 75.5q0 39 -26.5 69t-64.5 49.5t-80 32.5t-73 19l-29 6v-358zM319 858l60 33q37 20 62.5 41.5t25.5 79.5q0 41 -26.5 57t-49.5 16q-39 0 -55.5 -33.5t-16.5 -113.5v-80z" />
<glyph unicode="&#xe0;" horiz-adv-x="1320" d="M41 0l618 1251l621 -1251h-295l-145 311h-363l-28 -63v2q-25 -53 -60 -126t-61 -124h-287zM389 1739h305l238 -315h-301zM612 563h95l-48 99z" />
<glyph unicode="&#xe1;" horiz-adv-x="1320" d="M41 0l618 1251l621 -1251h-295l-145 311h-363l-28 -63v2q-25 -53 -60 -126t-61 -124h-287zM389 1434l240 315h303l-240 -315h-303zM612 563h95l-48 99z" />
<glyph unicode="&#xe2;" horiz-adv-x="1320" d="M41 0l618 1251l621 -1251h-295l-145 311h-363l-28 -63v2q-25 -53 -60 -126t-61 -124h-287zM266 1362l387 360l399 -360h-352l-43 37l-41 -37h-350zM612 563h95l-48 99z" />
<glyph unicode="&#xe3;" horiz-adv-x="1320" d="M41 0l618 1251l621 -1251h-295l-145 311h-363l-28 -63v2q-25 -53 -60 -126t-61 -124h-287zM342 1304v246q55 41 97 65.5t82 31.5t84 -3t106 -39q39 -25 70.5 -30t62 7.5t61.5 38t72 62.5v-227q0 -29 -27.5 -63t-77 -51t-116 -8t-140.5 64q-25 18 -58.5 22.5t-70 -5.5 t-74.5 -38t-71 -73zM612 563h95l-48 99z" />
<glyph unicode="&#xe4;" horiz-adv-x="1320" d="M41 0l618 1251l621 -1251h-295l-145 311h-363l-28 -63v2q-25 -53 -60 -126t-61 -124h-287zM352 1569q0 66 40 106.5t105 40.5q66 0 107 -40.5t41 -106.5t-41 -106.5t-107 -40.5t-105.5 40.5t-39.5 106.5zM612 563h95l-48 99zM676 1569q0 66 39.5 106.5t105.5 40.5 t106.5 -40.5t40.5 -106.5t-41 -106.5t-106 -40.5q-66 0 -105.5 40.5t-39.5 106.5z" />
<glyph unicode="&#xe5;" horiz-adv-x="1320" d="M41 0l516 1047q-74 27 -114 90t-40 143q0 104 67 177t189 73q127 0 193 -73t66 -177q0 -84 -39 -146.5t-117 -89.5l518 -1044h-295l-145 311h-363l-28 -63v2q-25 -53 -60 -126t-61 -124h-287zM612 563h95l-48 99zM649 1280q0 -20 10 -20q17 0 17 20q0 23 -17 23 q-10 0 -10 -23z" />
<glyph unicode="&#xe6;" horiz-adv-x="1826" d="M41 0l1003 1198h742v-287h-604v-182h532v-280h-532v-173h604v-276h-881v442h-131l-356 -442h-377zM889 653l16 2v31q-2 -6 -6 -14q-8 -16 -10 -19z" />
<glyph unicode="&#xe7;" horiz-adv-x="1167" d="M41 598q0 123 47 231.5t129 190.5t190.5 129t231.5 47q139 0 262 -63.5t225 -171.5l-202 -181q-72 74 -144.5 110t-144.5 36q-68 0 -127 -26t-103.5 -70t-70 -104t-25.5 -128t25.5 -127t70 -103t103.5 -70t127 -26q72 0 154.5 43t160.5 123l166 -209q-86 -92 -182 -149 t-207 -74l-68 -217h-268l70 238q-90 29 -167 84t-133.5 129.5t-88 166t-31.5 191.5z" />
<glyph unicode="&#xe8;" horiz-adv-x="1071" d="M41 0v1196h989v-272h-713v-168h674v-273h-674v-207h713v-276h-989zM264 1534h305l238 -315h-301z" />
<glyph unicode="&#xe9;" horiz-adv-x="1071" d="M41 0v1196h989v-272h-713v-168h674v-273h-674v-207h713v-276h-989zM264 1434l240 315h303l-240 -315h-303z" />
<glyph unicode="&#xea;" horiz-adv-x="1071" d="M41 0v1196h989v-272h-713v-168h674v-273h-674v-207h713v-276h-989zM141 1362l387 360l399 -360h-352l-43 37l-41 -37h-350z" />
<glyph unicode="&#xeb;" horiz-adv-x="1071" d="M41 0v1196h989v-272h-713v-168h674v-273h-674v-207h713v-276h-989zM227 1569q0 66 40 106.5t105 40.5q66 0 107 -40.5t41 -106.5t-41 -106.5t-107 -40.5t-105.5 40.5t-39.5 106.5zM551 1569q0 66 39.5 106.5t105.5 40.5t106.5 -40.5t40.5 -106.5t-41 -106.5t-106 -40.5 q-66 0 -105.5 40.5t-39.5 106.5z" />
<glyph unicode="&#xec;" horiz-adv-x="358" d="M-213 1739h305l238 -315h-301zM41 0v1196h276v-1196h-276z" />
<glyph unicode="&#xed;" horiz-adv-x="358" d="M18 1434l240 315h303l-240 -315h-303zM41 0v1196h276v-1196h-276z" />
<glyph unicode="&#xee;" horiz-adv-x="358" d="M-211 1362l387 360l399 -360h-352l-43 37l-41 -37h-350zM41 0v1196h276v-1196h-276z" />
<glyph unicode="&#xef;" horiz-adv-x="358" d="M-127 1569q0 66 40 106.5t105 40.5q66 0 107 -40.5t41 -106.5t-41 -106.5t-107 -40.5t-105.5 40.5t-39.5 106.5zM41 0v1196h276v-1196h-276zM197 1569q0 66 39.5 106.5t105.5 40.5t106.5 -40.5t40.5 -106.5t-41 -106.5t-106 -40.5q-66 0 -105.5 40.5t-39.5 106.5z" />
<glyph unicode="&#xf1;" horiz-adv-x="1134" d="M41 0v1233l782 -668v631h271v-1219l-777 654v-631h-276zM248 1304v246q55 41 97 65.5t82 31.5t84 -3t106 -39q39 -25 70.5 -30t62 7.5t61.5 38t72 62.5v-227q0 -29 -27.5 -63t-77 -51t-116 -8t-140.5 64q-25 18 -58.5 22.5t-70 -5.5t-74.5 -38t-71 -73z" />
<glyph unicode="&#xf2;" horiz-adv-x="1263" d="M41 598q0 123 47 232.5t129 190.5t190.5 128t231.5 47q145 0 255 -51t182.5 -135t109.5 -191.5t37 -220.5t-37 -220.5t-109.5 -191.5t-182.5 -135t-255 -51q-123 0 -231.5 47t-190.5 128t-129 190.5t-47 232.5zM309 598q0 -68 25.5 -127t70 -103t104.5 -70t128 -26 t127 26t104 70t71 103t26 127t-26 128t-71 104t-104 70t-127 26t-128 -26t-104.5 -70t-70 -104t-25.5 -128zM360 1739h305l238 -315h-301z" />
<glyph unicode="&#xf3;" horiz-adv-x="1263" d="M41 598q0 123 47 232.5t129 190.5t190.5 128t231.5 47q145 0 255 -51t182.5 -135t109.5 -191.5t37 -220.5t-37 -220.5t-109.5 -191.5t-182.5 -135t-255 -51q-123 0 -231.5 47t-190.5 128t-129 190.5t-47 232.5zM309 598q0 -68 25.5 -127t70 -103t104.5 -70t128 -26 t127 26t104 70t71 103t26 127t-26 128t-71 104t-104 70t-127 26t-128 -26t-104.5 -70t-70 -104t-25.5 -128zM360 1434l240 315h303l-240 -315h-303z" />
<glyph unicode="&#xf4;" horiz-adv-x="1263" d="M41 598q0 123 47 232.5t129 190.5t190.5 128t231.5 47q145 0 255 -51t182.5 -135t109.5 -191.5t37 -220.5t-37 -220.5t-109.5 -191.5t-182.5 -135t-255 -51q-123 0 -231.5 47t-190.5 128t-129 190.5t-47 232.5zM238 1362l387 360l399 -360h-352l-43 37l-41 -37h-350z M309 598q0 -68 25.5 -127t70 -103t104.5 -70t128 -26t127 26t104 70t71 103t26 127t-26 128t-71 104t-104 70t-127 26t-128 -26t-104.5 -70t-70 -104t-25.5 -128z" />
<glyph unicode="&#xf5;" horiz-adv-x="1263" d="M41 598q0 123 47 232.5t129 190.5t190.5 128t231.5 47q145 0 255 -51t182.5 -135t109.5 -191.5t37 -220.5t-37 -220.5t-109.5 -191.5t-182.5 -135t-255 -51q-123 0 -231.5 47t-190.5 128t-129 190.5t-47 232.5zM309 598q0 -68 25.5 -127t70 -103t104.5 -70t128 -26 t127 26t104 70t71 103t26 127t-26 128t-71 104t-104 70t-127 26t-128 -26t-104.5 -70t-70 -104t-25.5 -128zM313 1304v246q55 41 97 65.5t82 31.5t84 -3t106 -39q39 -25 70.5 -30t62 7.5t61.5 38t72 62.5v-227q0 -29 -27.5 -63t-77 -51t-116 -8t-140.5 64q-25 18 -58.5 22.5 t-70 -5.5t-74.5 -38t-71 -73z" />
<glyph unicode="&#xf6;" horiz-adv-x="1263" d="M41 598q0 123 47 232.5t129 190.5t190.5 128t231.5 47q145 0 255 -51t182.5 -135t109.5 -191.5t37 -220.5t-37 -220.5t-109.5 -191.5t-182.5 -135t-255 -51q-123 0 -231.5 47t-190.5 128t-129 190.5t-47 232.5zM309 598q0 -68 25.5 -127t70 -103t104.5 -70t128 -26 t127 26t104 70t71 103t26 127t-26 128t-71 104t-104 70t-127 26t-128 -26t-104.5 -70t-70 -104t-25.5 -128zM324 1569q0 66 40 106.5t105 40.5q66 0 107 -40.5t41 -106.5t-41 -106.5t-107 -40.5t-105.5 40.5t-39.5 106.5zM648 1569q0 66 39.5 106.5t105.5 40.5t106.5 -40.5 t40.5 -106.5t-41 -106.5t-106 -40.5q-66 0 -105.5 40.5t-39.5 106.5z" />
<glyph unicode="&#xf7;" horiz-adv-x="399" d="M41 158q0 66 44 112.5t114 46.5q68 0 113.5 -47t45.5 -112q0 -72 -46 -115t-113 -43q-70 0 -114 43t-44 115zM41 862q0 68 44 114t114 46q68 0 113.5 -46t45.5 -114q0 -70 -46 -113.5t-113 -43.5q-70 0 -114 43.5t-44 113.5z" />
<glyph unicode="&#xf8;" horiz-adv-x="1263" d="M41 598q0 123 47 232.5t129 190.5t190.5 128t231.5 47q29 0 57.5 -4t57.5 -8l20 46t17 40h284l-82 -183q125 -86 177.5 -215t52.5 -274q0 -113 -37 -220.5t-109.5 -191.5t-182.5 -135t-255 -51q-59 0 -117 12q-2 -2 -2 -4q-10 -25 -23.5 -58.5t-23.5 -55.5h-285l101 221 q-111 80 -179.5 208t-68.5 275zM309 598q0 -66 23.5 -124t64.5 -101l246 553h-6q-68 0 -128 -26t-104.5 -70t-70 -104t-25.5 -128zM635 272h2q68 0 127 26t104 70t71 103t26 127q0 129 -88 221l-127 -289q-33 -72 -58.5 -127t-56.5 -131z" />
<glyph unicode="&#xf9;" horiz-adv-x="1132" d="M41 467v725h274v-715q0 -45 22.5 -83t58.5 -64.5t81 -42t88 -15.5q49 0 95.5 15.5t83 42t59 64.5t22.5 81v717h267v-725q0 -102 -44 -188t-118 -147.5t-169.5 -96.5t-195.5 -35q-98 0 -192 35t-168 96.5t-119 147.5t-45 188zM295 1739h305l238 -315h-301z" />
<glyph unicode="&#xfa;" horiz-adv-x="1132" d="M41 467v725h274v-715q0 -45 22.5 -83t58.5 -64.5t81 -42t88 -15.5q49 0 95.5 15.5t83 42t59 64.5t22.5 81v717h267v-725q0 -102 -44 -188t-118 -147.5t-169.5 -96.5t-195.5 -35q-98 0 -192 35t-168 96.5t-119 147.5t-45 188zM295 1434l240 315h303l-240 -315h-303z" />
<glyph unicode="&#xfb;" horiz-adv-x="1132" d="M41 467v725h274v-715q0 -45 22.5 -83t58.5 -64.5t81 -42t88 -15.5q49 0 95.5 15.5t83 42t59 64.5t22.5 81v717h267v-725q0 -102 -44 -188t-118 -147.5t-169.5 -96.5t-195.5 -35q-98 0 -192 35t-168 96.5t-119 147.5t-45 188zM172 1383l387 360l399 -360h-352l-43 37 l-41 -37h-350z" />
<glyph unicode="&#xfc;" horiz-adv-x="1132" d="M41 467v725h274v-715q0 -45 22.5 -83t58.5 -64.5t81 -42t88 -15.5q49 0 95.5 15.5t83 42t59 64.5t22.5 81v717h267v-725q0 -102 -44 -188t-118 -147.5t-169.5 -96.5t-195.5 -35q-98 0 -192 35t-168 96.5t-119 147.5t-45 188zM258 1569q0 66 40 106.5t105 40.5 q66 0 107 -40.5t41 -106.5t-41 -106.5t-107 -40.5t-105.5 40.5t-39.5 106.5zM582 1569q0 66 39.5 106.5t105.5 40.5t106.5 -40.5t40.5 -106.5t-41 -106.5t-106 -40.5q-66 0 -105.5 40.5t-39.5 106.5z" />
<glyph unicode="&#xfd;" horiz-adv-x="1304" d="M41 1200h340l272 -356l271 356h340l-473 -651v-549h-277v547q-47 66 -101.5 138.5t-109.5 150.5zM381 1434l240 315h303l-240 -315h-303z" />
<glyph unicode="&#xfe;" horiz-adv-x="993" d="M41 -360v1730h289v-340q45 6 94 6q100 0 195.5 -29.5t169 -93t118.5 -162t45 -235.5q0 -115 -36.5 -210t-106.5 -164.5t-169 -108.5t-222 -39q-33 0 -44.5 -1t-43.5 3v-356h-289zM330 276q25 -4 51.5 -6t48.5 -2q109 0 169 67.5t60 178.5q0 121 -65.5 184.5t-181.5 63.5 q-23 0 -41.5 -2t-40.5 -6v-478z" />
<glyph unicode="&#xff;" horiz-adv-x="1304" d="M41 1200h340l272 -356l271 356h340l-473 -651v-549h-277v547q-47 66 -101.5 138.5t-109.5 150.5zM344 1569q0 66 40 106.5t105 40.5q66 0 107 -40.5t41 -106.5t-41 -106.5t-107 -40.5t-105.5 40.5t-39.5 106.5zM668 1569q0 66 39.5 106.5t105.5 40.5t106.5 -40.5 t40.5 -106.5t-41 -106.5t-106 -40.5q-66 0 -105.5 40.5t-39.5 106.5z" />
<glyph unicode="&#x152;" horiz-adv-x="1884" d="M41 717q0 147 56.5 278t153.5 228.5t228 154t279 56.5h1085v-287h-725v-264h637v-285h-637v-311h725v-287h-1085q-147 0 -278.5 56.5t-228.5 153.5t-153.5 228t-56.5 279zM317 719q0 -90 35 -169t94.5 -138.5t138.5 -94t169 -34.5h77v872h-77q-90 0 -169 -35t-138.5 -94 t-94.5 -138t-35 -169z" />
<glyph unicode="&#x153;" horiz-adv-x="1712" d="M41 598q0 123 47 232.5t128 190.5t189.5 128t231.5 47h1034v-272h-657v-168h585v-273h-585v-207h657v-276l-860 2h-51q-20 0 -42 -1t-38 -1h-43q-123 0 -231.5 47t-189.5 128t-128 190.5t-47 232.5zM309 598q0 -68 25.5 -127t70 -103t103.5 -70t127 -26h104v654h-104 q-68 0 -127 -26t-103.5 -70t-70 -104t-25.5 -128z" />
<glyph unicode="&#x178;" horiz-adv-x="1499" d="M41 1430h360l353 -463q59 80 124.5 165t131.5 166q23 31 52.5 67t51.5 65h344l-561 -766q0 -72 -1 -151t-1 -157v-356h-287v659zM408 2798q0 66 40 106.5t105 40.5q66 0 107 -40.5t41 -106.5t-41 -106.5t-107 -40.5t-105.5 40.5t-39.5 106.5zM732 2798q0 66 39.5 106.5 t105.5 40.5t106.5 -40.5t40.5 -106.5t-41 -106.5t-106 -40.5q-66 0 -105.5 40.5t-39.5 106.5z" />
<glyph unicode="&#x2c6;" horiz-adv-x="868" d="M41 1055l387 360l399 -360h-352l-43 37l-41 -37h-350z" />
<glyph unicode="&#x2dc;" horiz-adv-x="718" d="M41 1202v246q55 41 97 65.5t82 31.5t84 -3t106 -39q39 -25 70.5 -30t62 7.5t61.5 38t72 62.5v-227q0 -29 -27.5 -63t-77 -51t-116 -8t-140.5 64q-25 18 -58.5 22.5t-70 -5.5t-74.5 -38t-71 -73z" />
<glyph unicode="&#x2000;" horiz-adv-x="1489" />
<glyph unicode="&#x2001;" horiz-adv-x="2978" />
<glyph unicode="&#x2002;" horiz-adv-x="1489" />
<glyph unicode="&#x2003;" horiz-adv-x="2978" />
<glyph unicode="&#x2004;" horiz-adv-x="992" />
<glyph unicode="&#x2005;" horiz-adv-x="744" />
<glyph unicode="&#x2006;" horiz-adv-x="496" />
<glyph unicode="&#x2007;" horiz-adv-x="496" />
<glyph unicode="&#x2008;" horiz-adv-x="372" />
<glyph unicode="&#x2009;" horiz-adv-x="595" />
<glyph unicode="&#x200a;" horiz-adv-x="165" />
<glyph unicode="&#x2010;" horiz-adv-x="579" d="M41 391v248h498v-248h-498z" />
<glyph unicode="&#x2011;" horiz-adv-x="579" d="M41 391v248h498v-248h-498z" />
<glyph unicode="&#x2012;" horiz-adv-x="579" d="M41 391v248h498v-248h-498z" />
<glyph unicode="&#x2013;" horiz-adv-x="1038" d="M41 348v266h956v-266h-956z" />
<glyph unicode="&#x2014;" horiz-adv-x="1413" d="M41 348v266h1331v-266h-1331z" />
<glyph unicode="&#x2018;" horiz-adv-x="464" d="M41 1001l111 369h272l-115 -369h-268z" />
<glyph unicode="&#x2019;" horiz-adv-x="464" d="M41 1001l111 369h272l-115 -369h-268z" />
<glyph unicode="&#x201a;" horiz-adv-x="464" d="M41 -51l111 370h272l-115 -370h-268z" />
<glyph unicode="&#x201c;" horiz-adv-x="772" d="M41 1001l111 369h272l-115 -369h-268zM348 1001l111 369h272l-115 -369h-268z" />
<glyph unicode="&#x201d;" horiz-adv-x="772" d="M41 1001l111 369h272l-115 -369h-268zM348 1001l111 369h272l-115 -369h-268z" />
<glyph unicode="&#x201e;" horiz-adv-x="772" d="M41 -49l111 371h272l-115 -371h-268zM348 -49l111 371h272l-115 -371h-268z" />
<glyph unicode="&#x2022;" horiz-adv-x="555" d="M41 479q0 106 63.5 173t169.5 67t173 -66.5t67 -173.5q0 -104 -66.5 -168.5t-173.5 -64.5q-106 0 -169.5 64.5t-63.5 168.5z" />
<glyph unicode="&#x2026;" horiz-adv-x="1044" d="M41 154q0 66 42 110.5t112 44.5q66 0 109.5 -45t43.5 -110q0 -68 -44 -111t-109 -43q-70 0 -112 43t-42 111zM367 154q0 66 42 110.5t111 44.5q68 0 112 -45t44 -110q0 -68 -44 -111t-112 -43q-70 0 -111.5 43t-41.5 111zM694 154q0 66 43 110.5t111 44.5q66 0 111 -45 t45 -110q0 -68 -45.5 -111t-110.5 -43q-68 0 -111 43t-43 111z" />
<glyph unicode="&#x202f;" horiz-adv-x="595" />
<glyph unicode="&#x2039;" horiz-adv-x="679" d="M41 481l305 365h289l-287 -363q25 -29 48.5 -61.5t47.5 -61.5v2l195 -243h-293z" />
<glyph unicode="&#x203a;" horiz-adv-x="657" d="M41 119l264 362l-63 86l-199 279h272l301 -365l-301 -362h-274z" />
<glyph unicode="&#x205f;" horiz-adv-x="744" />
<glyph unicode="&#x20ac;" horiz-adv-x="1087" d="M41 371v188h147v55q0 12 -1 16.5t-1 7.5v7t2 17h-147v186h182q20 78 58 146.5t91.5 119.5t123 81t153.5 30q125 0 222.5 -67.5t175.5 -178.5l-148 -156q-63 98 -124.5 152.5t-121.5 54.5q-74 0 -127 -54t-86 -128h320v-186h-369q-2 -10 -1 -22.5t1 -25.5q0 -23 -1 -29.5 t1 -25.5h369v-188h-332q33 -78 88 -130.5t137 -52.5q119 0 246 191l148 -152q-78 -111 -176.5 -174t-221.5 -63q-86 0 -156.5 29.5t-125 81t-92 121t-58.5 149.5h-176z" />
<glyph unicode="&#x2122;" horiz-adv-x="1515" d="M41 1219v221h661v-221h-213v-605h-231v605h-217zM729 618v824l371 -404l375 402v-822h-234v248l-14 -20l-127 -180l-139 196v-244h-232z" />
<glyph unicode="&#x25fc;" horiz-adv-x="1198" d="M0 0v1198h1198v-1198h-1198z" />
</font>
</defs>
</svg>
